<svg width="18" height="18" viewBox="0 0 18 18" fill="none" xmlns="http://www.w3.org/2000/svg">
<path d="M7.30535 4.51224C7.49167 4.01106 8.20055 4.01106 8.38687 4.51224L8.91936 5.94462C9.43993 7.34495 10.4834 8.48874 11.8302 9.13528L13.1089 9.74908C13.5452 9.95854 13.5452 10.5798 13.1089 10.7893L11.8302 11.4031C10.4834 12.0496 9.43993 13.1934 8.91936 14.5937L8.38687 16.0261C8.20055 16.5273 7.49167 16.5273 7.30535 16.0261L6.77286 14.5937C6.25229 13.1934 5.2088 12.0496 3.86198 11.4031L2.58335 10.7893C2.14703 10.5798 2.14703 9.95854 2.58335 9.74908L3.86198 9.13528C5.2088 8.48874 6.25229 7.34495 6.77287 5.94462L7.30535 4.51224Z" fill="white"/>
<path d="M13.2889 1.67748C13.3974 1.36921 13.8334 1.36921 13.9419 1.67748L14.2415 2.5285C14.3895 2.94889 14.6939 3.29599 15.0915 3.49751L15.891 3.9028C16.1438 4.03098 16.1438 4.39212 15.891 4.52029L15.0915 4.92559C14.6939 5.12711 14.3895 5.4742 14.2415 5.8946L13.9419 6.74561C13.8334 7.05389 13.3974 7.05389 13.2889 6.74561L12.9893 5.8946C12.8413 5.47421 12.5368 5.12711 12.1393 4.92559L11.3398 4.52029C11.087 4.39212 11.087 4.03098 11.3398 3.9028L12.1393 3.49751C12.5368 3.29599 12.8413 2.94889 12.9893 2.5285L13.2889 1.67748Z" fill="white"/>
</svg>
