<svg width="16" height="16" viewBox="0 0 16 16" fill="none" xmlns="http://www.w3.org/2000/svg">
<path d="M7.46966 2.80543C8.72945 2.49698 9.78479 2.89826 10.3764 3.28425C10.646 3.61363 10.9081 4.04341 11.1088 4.54254C11.4483 5.38685 11.5975 6.38453 11.3478 7.34971C11.3023 7.52641 11.4083 7.70686 11.585 7.75261C11.7617 7.79831 11.942 7.692 11.9879 7.51542C12.281 6.38211 12.1017 5.23701 11.723 4.29525C11.6196 4.03817 11.4982 3.79395 11.3671 3.56548C12.3 3.55074 13.6473 4.01933 14.2561 5.98266C15.0044 8.39637 12.8669 9.06261 11.7047 9.0937C11.5272 9.45982 10.8463 10.3581 9.54219 11.0238C8.23799 11.6894 6.58443 11.5295 5.92027 11.3664C5.25389 12.092 3.64481 13.3041 2.54158 12.3463C1.47054 11.4164 1.97763 9.64266 2.39538 8.80169C2.67598 8.8109 2.99328 8.84868 3.32009 8.92964C4.07494 9.11664 4.79995 9.50595 5.20314 10.1604C5.29891 10.3158 5.50267 10.3648 5.65817 10.269C5.81362 10.1732 5.86161 9.96957 5.76585 9.81409C5.23788 8.9569 4.32628 8.49744 3.47866 8.28748C3.09139 8.19158 2.70019 8.14426 2.34373 8.13801C2.3017 6.49487 3.92686 5.05644 5.15193 4.786C5.23576 4.82806 5.31976 4.87431 5.40387 4.92343C6.0754 5.31559 6.6612 5.89338 6.86363 6.63486C6.91169 6.81105 7.09369 6.9156 7.26988 6.86754C7.44593 6.81941 7.54956 6.63751 7.50159 6.46141C7.23666 5.49016 6.49147 4.79272 5.7374 4.35235C5.71039 4.33658 5.68236 4.32253 5.65516 4.30731C5.92108 3.67156 6.6028 3.0177 7.46966 2.80543Z" fill="#B0B3BA"/>
</svg>
