<svg width="63" height="61" viewBox="0 0 63 61" fill="none" xmlns="http://www.w3.org/2000/svg">
<g filter="url(#filter0_g_4135_5782)">
<path d="M44.5568 1.95428C53.923 3.90062 59.5537 8.90067 61.8999 17.231C61.8999 20.9733 61.6678 24.4006 59.5701 27.0567C58.7344 28.1149 58.1166 29.3885 58.2391 30.7314L60.2034 52.2645C60.5774 56.3645 57.3494 59.9004 53.2323 59.9004H9.5675C5.45042 59.9004 2.22244 56.3646 2.59644 52.2645L4.56069 30.7312C4.68319 29.3884 4.06551 28.1149 3.22982 27.0567C1.13229 24.4006 0.899902 20.9731 0.899902 17.231C2.30759 8.90067 8.40759 3.9007 18.243 1.95428C23.5572 0.902621 26.6156 0.900714 31.3999 0.900714C35.5862 0.900714 39.2517 0.851865 44.5568 1.95428Z" fill="#D9D9D9"/>
<path d="M44.5568 1.95428C53.923 3.90062 59.5537 8.90067 61.8999 17.231C61.8999 20.9733 61.6678 24.4006 59.5701 27.0567C58.7344 28.1149 58.1166 29.3885 58.2391 30.7314L60.2034 52.2645C60.5774 56.3645 57.3494 59.9004 53.2323 59.9004H9.5675C5.45042 59.9004 2.22244 56.3646 2.59644 52.2645L4.56069 30.7312C4.68319 29.3884 4.06551 28.1149 3.22982 27.0567C1.13229 24.4006 0.899902 20.9731 0.899902 17.231C2.30759 8.90067 8.40759 3.9007 18.243 1.95428C23.5572 0.902621 26.6156 0.900714 31.3999 0.900714C35.5862 0.900714 39.2517 0.851865 44.5568 1.95428Z" fill="url(#paint0_radial_4135_5782)"/>
</g>
<g filter="url(#filter1_g_4135_5782)">
<circle cx="20.8999" cy="31.9004" r="3" fill="#835520"/>
</g>
<g filter="url(#filter2_g_4135_5782)">
<circle cx="41.8999" cy="31.9004" r="3" fill="#835520"/>
</g>
<path d="M28.8999 37.9004L31.3999 37.9004L33.8999 37.9004" stroke="#835520" stroke-width="2" stroke-linecap="round"/>
<defs>
<filter id="filter0_g_4135_5782" x="-9.76324e-05" y="0.000390649" width="62.8" height="60.8" filterUnits="userSpaceOnUse" color-interpolation-filters="sRGB">
<feFlood flood-opacity="0" result="BackgroundImageFix"/>
<feBlend mode="normal" in="SourceGraphic" in2="BackgroundImageFix" result="shape"/>
<feTurbulence type="fractalNoise" baseFrequency="0.3448275625705719 0.3448275625705719" numOctaves="3" seed="7701" />
<feDisplacementMap in="shape" scale="1.7999999523162842" xChannelSelector="R" yChannelSelector="G" result="displacedImage" width="100%" height="100%" />
<feMerge result="effect1_texture_4135_5782">
<feMergeNode in="displacedImage"/>
</feMerge>
</filter>
<filter id="filter1_g_4135_5782" x="17.3999" y="28.4004" width="7" height="7" filterUnits="userSpaceOnUse" color-interpolation-filters="sRGB">
<feFlood flood-opacity="0" result="BackgroundImageFix"/>
<feBlend mode="normal" in="SourceGraphic" in2="BackgroundImageFix" result="shape"/>
<feTurbulence type="fractalNoise" baseFrequency="0.15625 0.15625" numOctaves="3" seed="7701" />
<feDisplacementMap in="shape" scale="1" xChannelSelector="R" yChannelSelector="G" result="displacedImage" width="100%" height="100%" />
<feMerge result="effect1_texture_4135_5782">
<feMergeNode in="displacedImage"/>
</feMerge>
</filter>
<filter id="filter2_g_4135_5782" x="38.3999" y="28.4004" width="7" height="7" filterUnits="userSpaceOnUse" color-interpolation-filters="sRGB">
<feFlood flood-opacity="0" result="BackgroundImageFix"/>
<feBlend mode="normal" in="SourceGraphic" in2="BackgroundImageFix" result="shape"/>
<feTurbulence type="fractalNoise" baseFrequency="0.15625 0.15625" numOctaves="3" seed="7701" />
<feDisplacementMap in="shape" scale="1" xChannelSelector="R" yChannelSelector="G" result="displacedImage" width="100%" height="100%" />
<feMerge result="effect1_texture_4135_5782">
<feMergeNode in="displacedImage"/>
</feMerge>
</filter>
<radialGradient id="paint0_radial_4135_5782" cx="0" cy="0" r="1" gradientUnits="userSpaceOnUse" gradientTransform="translate(31.3999 36.7587) rotate(90) scale(44.1417 43.8717)">
<stop offset="0.163462" stop-color="#FFBF21"/>
<stop offset="1" stop-color="#FFF9E5"/>
</radialGradient>
</defs>
</svg>
