<svg width="24" height="24" viewBox="0 0 24 24" fill="none" xmlns="http://www.w3.org/2000/svg">
<path d="M9.74053 6.01702C9.98895 5.34877 10.9345 5.34877 11.1829 6.01702L11.8929 7.92718C12.587 9.79404 13.9781 11.3191 15.7737 12.1811L17.4788 12.9994C18.0601 13.2788 18.0601 14.1068 17.4788 14.3862L15.7737 15.2045C13.9782 16.0665 12.587 17.5916 11.8929 19.4584L11.1829 21.3686C10.9345 22.0368 9.98895 22.0368 9.74053 21.3686L9.03057 19.4584C8.33646 17.5916 6.9452 16.0665 5.14971 15.2045L3.44463 14.3862C2.86286 14.1069 2.86286 13.2787 3.44463 12.9994L5.14971 12.1811C6.9452 11.3191 8.33646 9.79402 9.03057 7.92718L9.74053 6.01702Z" fill="#1A1F27"/>
<path d="M17.7181 2.23675C17.8629 1.82602 18.4443 1.82605 18.5892 2.23675L18.9886 3.37151C19.1858 3.93188 19.5916 4.39478 20.1214 4.6635L21.1878 5.20452C21.5248 5.37548 21.5249 5.85688 21.1878 6.02776L20.1214 6.5678C19.5915 6.83649 19.1859 7.29943 18.9886 7.85979L18.5892 8.99456C18.4445 9.40559 17.8628 9.40559 17.7181 8.99456L17.3187 7.85979C17.1213 7.2994 16.7157 6.83647 16.1858 6.5678L15.1194 6.02776C14.7824 5.85689 14.7826 5.37554 15.1194 5.20452L16.1858 4.6635C16.7157 4.39479 17.1214 3.93193 17.3187 3.37151L17.7181 2.23675Z" fill="#1A1F27"/>
</svg>
