<svg width="24" height="24" viewBox="0 0 24 24" fill="none" xmlns="http://www.w3.org/2000/svg">
<path d="M10.9008 4.17509C12.9148 3.6818 14.6018 4.32468 15.5478 4.94195C15.9789 5.46873 16.3989 6.15593 16.7198 6.95419C17.2625 8.30442 17.5009 9.89971 17.1019 11.4432C17.0288 11.7258 17.1981 12.0137 17.4805 12.0871C17.7631 12.1602 18.052 11.9908 18.1252 11.7082C18.5939 9.89581 18.3066 8.06538 17.7013 6.5593C17.5362 6.14856 17.3442 5.75695 17.1349 5.39186C18.6264 5.36918 20.7791 6.11916 21.7518 9.25788C22.948 13.1179 19.5306 14.1821 17.6725 14.2318C17.3889 14.817 15.9664 15.6835 13.8809 16.7484C11.7955 17.8133 9.485 18.1289 8.42327 17.8682C7.35775 19.0286 4.78602 20.9657 3.02226 19.4341C1.30951 17.9468 2.12046 15.1095 2.78843 13.7648C3.23699 13.7795 3.74457 13.8405 4.26695 13.9699C5.47379 14.2691 6.63262 14.8922 7.27716 15.9388C7.43022 16.1874 7.75551 16.265 8.00409 16.1121C8.2526 15.959 8.33022 15.6336 8.17735 15.3849C7.33332 14.0141 5.87617 13.2792 4.52106 12.9434C3.9019 12.79 3.27599 12.715 2.70605 12.7049C2.63829 10.0772 5.23543 7.77643 7.19418 7.34324C7.32852 7.41063 7.46369 7.48358 7.59848 7.56232C8.67237 8.18963 9.60858 9.1148 9.93204 10.301C10.0089 10.5827 10.2997 10.7484 10.5814 10.6716C10.8627 10.5946 11.0285 10.3046 10.952 10.0231C10.5284 8.46987 9.33735 7.35381 8.1318 6.64951C8.08858 6.62427 8.04462 6.59965 8.00108 6.57529C8.42698 5.55932 9.51595 4.5143 10.9008 4.17509Z" fill="#1A1F27"/>
</svg>
