<svg width="24" height="24" viewBox="0 0 24 24" fill="none" xmlns="http://www.w3.org/2000/svg">
<path d="M12 2.34961C17.3294 2.34961 21.6501 6.66969 21.6504 11.999C21.6504 13.5374 21.2893 14.9947 20.6475 16.2871L21.1416 18.0996C21.2534 18.5096 21.3532 18.8753 21.4062 19.1758C21.46 19.4804 21.4969 19.8663 21.3496 20.252C21.1567 20.7571 20.7581 21.1567 20.2529 21.3496C19.8675 21.4968 19.4813 21.46 19.1768 21.4062C18.8762 21.3532 18.5098 21.2535 18.0996 21.1416L16.2871 20.6475C14.9948 21.2892 13.5382 21.6494 12 21.6494C6.67053 21.6493 2.35059 17.3285 2.35059 11.999C2.35084 6.66973 6.67068 2.34968 12 2.34961ZM7.0498 11C6.35956 11.0001 5.7998 11.5597 5.7998 12.25C5.7998 12.9403 6.35956 13.4999 7.0498 13.5C7.74016 13.5 8.2998 12.9404 8.2998 12.25C8.2998 11.5596 7.74016 11 7.0498 11ZM12.0498 11C11.3596 11.0001 10.7998 11.5597 10.7998 12.25C10.7998 12.9403 11.3596 13.4999 12.0498 13.5C12.7402 13.5 13.2998 12.9404 13.2998 12.25C13.2998 11.5596 12.7402 11 12.0498 11ZM17.0498 11C16.3596 11.0001 15.7998 11.5597 15.7998 12.25C15.7998 12.9403 16.3596 13.4999 17.0498 13.5C17.7402 13.5 18.2998 12.9404 18.2998 12.25C18.2998 11.5596 17.7402 11 17.0498 11Z" fill="#1A1F27"/>
</svg>
