<svg width="24" height="24" viewBox="0 0 24 24" fill="none" xmlns="http://www.w3.org/2000/svg">
<path d="M10.5998 13.799L8.44975 11.649C8.26642 11.4657 8.03309 11.374 7.74975 11.374C7.46642 11.374 7.23309 11.4657 7.04976 11.649C6.86642 11.8324 6.77476 12.0657 6.77476 12.349C6.77476 12.6324 6.86642 12.8657 7.04976 13.049L9.89976 15.899C10.0998 16.099 10.3331 16.199 10.5998 16.199C10.8664 16.199 11.0998 16.099 11.2998 15.899L16.9498 10.249C17.1331 10.0657 17.2248 9.83236 17.2248 9.54902C17.2248 9.26569 17.1331 9.03236 16.9498 8.84902C16.7664 8.66569 16.5331 8.57402 16.2498 8.57402C15.9664 8.57402 15.7331 8.66569 15.5498 8.84902L10.5998 13.799ZM11.9998 21.999C10.6164 21.999 9.31642 21.7365 8.09976 21.2115C6.88309 20.6865 5.82476 19.974 4.92476 19.074C4.02476 18.174 3.31226 17.1157 2.78726 15.899C2.26226 14.6824 1.99976 13.3824 1.99976 11.999C1.99976 10.6157 2.26226 9.31569 2.78726 8.09902C3.31226 6.88236 4.02476 5.82402 4.92476 4.92402C5.82476 4.02402 6.88309 3.31152 8.09976 2.78652C9.31642 2.26152 10.6164 1.99902 11.9998 1.99902C13.3831 1.99902 14.6831 2.26152 15.8998 2.78652C17.1164 3.31152 18.1748 4.02402 19.0748 4.92402C19.9748 5.82402 20.6873 6.88236 21.2123 8.09902C21.7373 9.31569 21.9998 10.6157 21.9998 11.999C21.9998 13.3824 21.7373 14.6824 21.2123 15.899C20.6873 17.1157 19.9748 18.174 19.0748 19.074C18.1748 19.974 17.1164 20.6865 15.8998 21.2115C14.6831 21.7365 13.3831 21.999 11.9998 21.999Z" fill="#1A1F27"/>
</svg>
