<svg width="24" height="24" viewBox="0 0 24 24" fill="none" xmlns="http://www.w3.org/2000/svg">
<path d="M22 19.7773C22 20.3667 21.7664 20.9329 21.3496 21.3496C20.9329 21.7664 20.3667 22 19.7773 22H4.22266C3.63329 22 3.06714 21.7664 2.65039 21.3496C2.23364 20.9329 2 20.3667 2 19.7773V12H22V19.7773ZM6.44434 14.2227C5.83084 14.2227 5.33318 14.7195 5.33301 15.333C5.33301 15.9466 5.83074 16.4443 6.44434 16.4443C7.05799 16.4443 7.55566 15.9467 7.55566 15.333C7.55549 14.7195 7.05788 14.2227 6.44434 14.2227ZM12 14.2227C11.3865 14.2227 10.8888 14.7195 10.8887 15.333C10.8887 15.9467 11.3864 16.4443 12 16.4443C12.6136 16.4443 13.1113 15.9467 13.1113 15.333C13.1112 14.7195 12.6135 14.2227 12 14.2227ZM17.5557 14.2227C16.9421 14.2227 16.4445 14.7195 16.4443 15.333C16.4443 15.9467 16.942 16.4443 17.5557 16.4443C18.1693 16.4443 18.667 15.9466 18.667 15.333C18.6668 14.7195 18.1692 14.2227 17.5557 14.2227ZM16.4443 2C16.739 2 17.0221 2.11682 17.2305 2.3252C17.4388 2.53356 17.5557 2.81667 17.5557 3.11133V4.22266H19.7773C20.3667 4.22266 20.9329 4.4563 21.3496 4.87305C21.7662 5.28975 22 5.85511 22 6.44434V9.77734H2V6.44434C2.00003 5.85511 2.2338 5.28975 2.65039 4.87305C3.06714 4.4563 3.63329 4.22266 4.22266 4.22266H6.44434V3.11133C6.44434 2.81667 6.56119 2.53356 6.76953 2.3252C6.9779 2.11682 7.26098 2 7.55566 2C7.85016 2.00003 8.1325 2.11705 8.34082 2.3252C8.54919 2.53357 8.66699 2.81664 8.66699 3.11133V4.22266H15.333V3.11133C15.333 2.81664 15.4508 2.53357 15.6592 2.3252C15.8675 2.11705 16.1498 2.00003 16.4443 2Z" fill="#1A1F27"/>
</svg>
