<svg width="24" height="24" viewBox="0 0 24 24" fill="none" xmlns="http://www.w3.org/2000/svg">
<path d="M11.9998 13.399L14.8998 16.299C15.0831 16.4824 15.3164 16.574 15.5998 16.574C15.8831 16.574 16.1164 16.4824 16.2998 16.299C16.4831 16.1157 16.5748 15.8824 16.5748 15.599C16.5748 15.3157 16.4831 15.0824 16.2998 14.899L13.3998 11.999L16.2998 9.09902C16.4831 8.91569 16.5748 8.68236 16.5748 8.39902C16.5748 8.11569 16.4831 7.88236 16.2998 7.69902C16.1164 7.51569 15.8831 7.42402 15.5998 7.42402C15.3164 7.42402 15.0831 7.51569 14.8998 7.69902L11.9998 10.599L9.09975 7.69902C8.91642 7.51569 8.68309 7.42402 8.39976 7.42402C8.11642 7.42402 7.88309 7.51569 7.69976 7.69902C7.51642 7.88236 7.42476 8.11569 7.42476 8.39902C7.42476 8.68236 7.51642 8.91569 7.69976 9.09902L10.5998 11.999L7.69976 14.899C7.51642 15.0824 7.42476 15.3157 7.42476 15.599C7.42476 15.8824 7.51642 16.1157 7.69976 16.299C7.88309 16.4824 8.11642 16.574 8.39976 16.574C8.68309 16.574 8.91642 16.4824 9.09975 16.299L11.9998 13.399ZM11.9998 21.999C10.6164 21.999 9.31642 21.7365 8.09976 21.2115C6.88309 20.6865 5.82476 19.974 4.92476 19.074C4.02476 18.174 3.31226 17.1157 2.78726 15.899C2.26226 14.6824 1.99976 13.3824 1.99976 11.999C1.99976 10.6157 2.26226 9.31569 2.78726 8.09902C3.31226 6.88236 4.02476 5.82402 4.92476 4.92402C5.82476 4.02402 6.88309 3.31152 8.09976 2.78652C9.31642 2.26152 10.6164 1.99902 11.9998 1.99902C13.3831 1.99902 14.6831 2.26152 15.8998 2.78652C17.1164 3.31152 18.1748 4.02402 19.0748 4.92402C19.9748 5.82402 20.6873 6.88236 21.2123 8.09902C21.7373 9.31569 21.9998 10.6157 21.9998 11.999C21.9998 13.3824 21.7373 14.6824 21.2123 15.899C20.6873 17.1157 19.9748 18.174 19.0748 19.074C18.1748 19.974 17.1164 20.6865 15.8998 21.2115C14.6831 21.7365 13.3831 21.999 11.9998 21.999Z" fill="#1A1F27"/>
</svg>
