<svg width="24" height="24" viewBox="0 0 24 24" fill="none" xmlns="http://www.w3.org/2000/svg">
<path fill-rule="evenodd" clip-rule="evenodd" d="M12.0002 3.7998C16.5299 3.79991 20.1616 7.45356 20.1985 11.9629C20.1989 11.9752 20.2004 11.9876 20.2004 12C20.2004 12.0036 20.1995 12.0072 20.1995 12.0107C20.1995 12.0179 20.2004 12.0251 20.2004 12.0322C20.2004 16.5838 16.5414 20.2001 12.0002 20.2002C7.45896 20.2002 3.80006 16.5839 3.80005 12.0322V12C3.80005 11.9876 3.80058 11.9752 3.80103 11.9629C3.83793 7.4535 7.47051 3.7998 12.0002 3.7998ZM13.0002 7.7998C13.0002 8.35202 12.5524 8.7997 12.0002 8.7998C11.448 8.7998 11.0002 8.35209 11.0002 7.7998V5.87988C8.37786 6.30412 6.3191 8.37118 5.88599 11H7.80005C8.35233 11 8.80005 11.4477 8.80005 12C8.79994 12.5522 8.35227 13 7.80005 13H5.87524C6.28531 15.6425 8.35076 17.7021 11.0002 18.1211V16.2002C11.0002 15.6479 11.448 15.2002 12.0002 15.2002C12.5524 15.2003 13.0002 15.648 13.0002 16.2002V18.1211C15.6497 17.702 17.7152 15.6425 18.1252 13H16.2004C15.6482 13 15.2005 12.5522 15.2004 12C15.2004 11.4477 15.6482 11 16.2004 11H18.1145C17.6814 8.37124 15.6226 6.30419 13.0002 5.87988V7.7998Z" fill="#1A1F27"/>
</svg>
