<svg width="24" height="24" viewBox="0 0 24 24" fill="none" xmlns="http://www.w3.org/2000/svg">
<path d="M11.9498 17.999C12.2998 17.999 12.5956 17.8782 12.8373 17.6365C13.0789 17.3949 13.1998 17.099 13.1998 16.749C13.1998 16.399 13.0789 16.1032 12.8373 15.8615C12.5956 15.6199 12.2998 15.499 11.9498 15.499C11.5998 15.499 11.3039 15.6199 11.0623 15.8615C10.8206 16.1032 10.6998 16.399 10.6998 16.749C10.6998 17.099 10.8206 17.3949 11.0623 17.6365C11.3039 17.8782 11.5998 17.999 11.9498 17.999ZM11.9998 21.999C10.6164 21.999 9.31642 21.7365 8.09976 21.2115C6.88309 20.6865 5.82476 19.974 4.92476 19.074C4.02476 18.174 3.31226 17.1157 2.78726 15.899C2.26226 14.6824 1.99976 13.3824 1.99976 11.999C1.99976 10.6157 2.26226 9.31569 2.78726 8.09902C3.31226 6.88236 4.02476 5.82402 4.92476 4.92402C5.82476 4.02402 6.88309 3.31152 8.09976 2.78652C9.31642 2.26152 10.6164 1.99902 11.9998 1.99902C13.3831 1.99902 14.6831 2.26152 15.8998 2.78652C17.1164 3.31152 18.1748 4.02402 19.0748 4.92402C19.9748 5.82402 20.6873 6.88236 21.2123 8.09902C21.7373 9.31569 21.9998 10.6157 21.9998 11.999C21.9998 13.3824 21.7373 14.6824 21.2123 15.899C20.6873 17.1157 19.9748 18.174 19.0748 19.074C18.1748 19.974 17.1164 20.6865 15.8998 21.2115C14.6831 21.7365 13.3831 21.999 11.9998 21.999ZM12.0998 7.69902C12.5164 7.69902 12.8789 7.83236 13.1873 8.09902C13.4956 8.36569 13.6498 8.69902 13.6498 9.09902C13.6498 9.46569 13.5373 9.79069 13.3123 10.074C13.0873 10.3574 12.8331 10.624 12.5498 10.874C12.1664 11.2074 11.8289 11.574 11.5373 11.974C11.2456 12.374 11.0998 12.824 11.0998 13.324C11.0998 13.5574 11.1873 13.7532 11.3623 13.9115C11.5373 14.0699 11.7414 14.149 11.9748 14.149C12.2248 14.149 12.4373 14.0657 12.6123 13.899C12.7873 13.7324 12.8998 13.524 12.9498 13.274C13.0164 12.924 13.1664 12.6115 13.3998 12.3365C13.6331 12.0615 13.8831 11.799 14.1498 11.549C14.5331 11.1824 14.8623 10.7824 15.1373 10.349C15.4123 9.91569 15.5498 9.43236 15.5498 8.89902C15.5498 8.04902 15.2039 7.35319 14.5123 6.81152C13.8206 6.26986 13.0164 5.99902 12.0998 5.99902C11.4664 5.99902 10.8623 6.13236 10.2873 6.39902C9.71226 6.66569 9.27476 7.07402 8.97475 7.62402C8.85809 7.82402 8.82059 8.03652 8.86226 8.26152C8.90392 8.48652 9.01642 8.65736 9.19975 8.77402C9.43309 8.90736 9.67475 8.94902 9.92475 8.89902C10.1748 8.84902 10.3831 8.70736 10.5498 8.47402C10.7331 8.22402 10.9623 8.03236 11.2373 7.89902C11.5123 7.76569 11.7998 7.69902 12.0998 7.69902Z" fill="#1A1F27"/>
</svg>
