<svg width="14" height="14" viewBox="0 0 14 14" fill="none" xmlns="http://www.w3.org/2000/svg">
<path d="M7.58338 4.66622C7.58338 4.98838 7.32222 5.24955 7.00005 5.24955C6.67789 5.24955 6.41672 4.98838 6.41672 4.66622C6.41672 4.34405 6.67789 4.08289 7.00005 4.08289C7.32222 4.08289 7.58338 4.34405 7.58338 4.66622Z" fill="#A9ACB3"/>
<path d="M7.52512 6.70788C7.52512 6.41794 7.29007 6.18289 7.00013 6.18289C6.71018 6.18289 6.47513 6.41794 6.47513 6.70788V9.33288C6.47513 9.62283 6.71018 9.85788 7.00013 9.85788C7.29007 9.85788 7.52512 9.62283 7.52512 9.33288V6.70788Z" fill="#A9ACB3"/>
<path fill-rule="evenodd" clip-rule="evenodd" d="M1.2251 6.99961C1.2251 3.81016 3.81064 1.22461 7.00007 1.22461C10.1895 1.22461 12.775 3.81016 12.775 6.99961C12.775 10.1891 10.1895 12.7746 7.00007 12.7746C3.81064 12.7746 1.2251 10.1891 1.2251 6.99961ZM7.00007 2.27461C4.39054 2.27461 2.27509 4.39006 2.27509 6.99961C2.27509 9.60915 4.39054 11.7246 7.00007 11.7246C9.6096 11.7246 11.725 9.60915 11.725 6.99961C11.725 4.39006 9.6096 2.27461 7.00007 2.27461Z" fill="#A9ACB3"/>
</svg>
