<svg width="24" height="24" viewBox="0 0 24 24" fill="none" xmlns="http://www.w3.org/2000/svg">
<path d="M17.9993 5.99922C17.447 5.99922 16.9993 6.44694 16.9993 6.99922C16.9993 7.55151 17.447 7.99922 17.9993 7.99922C18.5516 7.99922 18.9993 7.55151 18.9993 6.99922C18.9993 6.44694 18.5516 5.99922 17.9993 5.99922Z" fill="#171719"/>
<path d="M4.99931 10.9992C4.99931 10.4469 5.44703 9.99922 5.99931 9.99922C6.5516 9.99922 6.99931 10.4469 6.99931 10.9992C6.99931 11.5515 6.5516 11.9992 5.99931 11.9992C5.44703 11.9992 4.99931 11.5515 4.99931 10.9992Z" fill="#171719"/>
<path d="M17.9993 9.99922C17.447 9.99922 16.9993 10.4469 16.9993 10.9992C16.9993 11.5515 17.447 11.9992 17.9993 11.9992C18.5516 11.9992 18.9993 11.5515 18.9993 10.9992C18.9993 10.4469 18.5516 9.99922 17.9993 9.99922Z" fill="#171719"/>
<path d="M9.74944 10.0992C9.25238 10.0992 8.84944 10.5022 8.84944 10.9992C8.84944 11.4963 9.25238 11.8992 9.74944 11.8992H14.2494C14.7465 11.8992 15.1494 11.4963 15.1494 10.9992C15.1494 10.5022 14.7465 10.0992 14.2494 10.0992H9.74944Z" fill="#171719"/>
<path d="M12.9993 6.99922C12.9993 6.44694 13.447 5.99922 13.9993 5.99922C14.5516 5.99922 14.9993 6.44694 14.9993 6.99922C14.9993 7.55151 14.5516 7.99922 13.9993 7.99922C13.447 7.99922 12.9993 7.55151 12.9993 6.99922Z" fill="#171719"/>
<path d="M9.99931 5.99922C9.44703 5.99922 8.99931 6.44694 8.99931 6.99922C8.99931 7.55151 9.44703 7.99922 9.99931 7.99922C10.5516 7.99922 10.9993 7.55151 10.9993 6.99922C10.9993 6.44694 10.5516 5.99922 9.99931 5.99922Z" fill="#171719"/>
<path d="M4.99931 6.99922C4.99931 6.44694 5.44703 5.99922 5.99931 5.99922C6.5516 5.99922 6.99931 6.44694 6.99931 6.99922C6.99931 7.55151 6.5516 7.99922 5.99931 7.99922C5.44703 7.99922 4.99931 7.55151 4.99931 6.99922Z" fill="#171719"/>
<path fill-rule="evenodd" clip-rule="evenodd" d="M4.91421 1.84766C4.38438 1.84764 3.93314 1.84763 3.56273 1.8779C3.17357 1.90969 2.79497 1.97933 2.43304 2.16374C1.88737 2.44177 1.44373 2.88542 1.16569 3.43109C0.98128 3.79302 0.911645 4.17161 0.87985 4.56077C0.849586 4.93119 0.849597 5.38234 0.84961 5.91217V12.0831C0.849597 12.6129 0.849586 13.0641 0.87985 13.4345C0.911645 13.8237 0.98128 14.2023 1.16569 14.5642C1.44373 15.1099 1.88737 15.5535 2.43304 15.8316C2.79497 16.016 3.17357 16.0856 3.56273 16.1174C3.93316 16.1477 4.38434 16.1477 4.91421 16.1477H19.085C19.6149 16.1477 20.0661 16.1477 20.4365 16.1174C20.8257 16.0856 21.2043 16.016 21.5662 15.8316C22.1119 15.5535 22.5555 15.1099 22.8335 14.5642C23.0179 14.2023 23.0876 13.8237 23.1194 13.4345C23.1496 13.0641 23.1496 12.613 23.1496 12.0831V5.91225C23.1496 5.38241 23.1496 4.93119 23.1194 4.56077C23.0876 4.17161 23.0179 3.79302 22.8335 3.43109C22.5555 2.88542 22.1119 2.44177 21.5662 2.16374C21.2043 1.97933 20.8257 1.90969 20.4365 1.8779C20.0661 1.84763 19.6149 1.84764 19.0851 1.84766H4.91421ZM3.4097 3.70424C3.54123 3.66151 3.73506 3.6504 4.54962 3.6504H19.4496C20.2642 3.6504 20.458 3.66151 20.5895 3.70424C20.9244 3.81305 21.187 4.0756 21.2958 4.41049C21.3385 4.54201 21.3496 4.73584 21.3496 5.5504V12.4504C21.3496 13.265 21.3385 13.4588 21.2958 13.5903C21.187 13.9252 20.9244 14.1878 20.5895 14.2966C20.458 14.3393 20.2642 14.3504 19.4496 14.3504H4.54962C3.73506 14.3504 3.54123 14.3393 3.4097 14.2966C3.07482 14.1878 2.81227 13.9252 2.70346 13.5903C2.66073 13.4588 2.64962 13.265 2.64962 12.4504V5.5504C2.64962 4.73584 2.66073 4.54201 2.70346 4.41049C2.81227 4.0756 3.07482 3.81305 3.4097 3.70424Z" fill="#171719"/>
<path d="M14.4697 18.4697C14.7626 18.1768 15.2373 18.1768 15.5302 18.4697C15.8231 18.7626 15.8231 19.2373 15.5302 19.5302L12.5302 22.5302C12.2373 22.8231 11.7626 22.8231 11.4697 22.5302L8.46967 19.5302C8.17678 19.2373 8.17678 18.7626 8.46967 18.4697C8.76256 18.1768 9.23732 18.1768 9.53022 18.4697L11.9999 20.9394L14.4697 18.4697Z" fill="black"/>
</svg>
