<svg width="24" height="24" viewBox="0 0 24 24" fill="none" xmlns="http://www.w3.org/2000/svg">
<path d="M17.9993 12.1516C17.447 12.1516 16.9993 12.5993 16.9993 13.1516C16.9993 13.7039 17.447 14.1516 17.9993 14.1516C18.5516 14.1516 18.9993 13.7039 18.9993 13.1516C18.9993 12.5993 18.5516 12.1516 17.9993 12.1516Z" fill="#171719"/>
<path d="M4.99931 17.1516C4.99931 16.5993 5.44703 16.1516 5.99931 16.1516C6.5516 16.1516 6.99931 16.5993 6.99931 17.1516C6.99931 17.7039 6.5516 18.1516 5.99931 18.1516C5.44703 18.1516 4.99931 17.7039 4.99931 17.1516Z" fill="#171719"/>
<path d="M17.9993 16.1516C17.447 16.1516 16.9993 16.5993 16.9993 17.1516C16.9993 17.7039 17.447 18.1516 17.9993 18.1516C18.5516 18.1516 18.9993 17.7039 18.9993 17.1516C18.9993 16.5993 18.5516 16.1516 17.9993 16.1516Z" fill="#171719"/>
<path d="M9.74944 16.2516C9.25238 16.2516 8.84944 16.6545 8.84944 17.1516C8.84944 17.6486 9.25238 18.0516 9.74944 18.0516H14.2494C14.7465 18.0516 15.1494 17.6486 15.1494 17.1516C15.1494 16.6545 14.7465 16.2516 14.2494 16.2516H9.74944Z" fill="#171719"/>
<path d="M12.9993 13.1516C12.9993 12.5993 13.447 12.1516 13.9993 12.1516C14.5516 12.1516 14.9993 12.5993 14.9993 13.1516C14.9993 13.7039 14.5516 14.1516 13.9993 14.1516C13.447 14.1516 12.9993 13.7039 12.9993 13.1516Z" fill="#171719"/>
<path d="M9.99931 12.1516C9.44703 12.1516 8.99931 12.5993 8.99931 13.1516C8.99931 13.7039 9.44703 14.1516 9.99931 14.1516C10.5516 14.1516 10.9993 13.7039 10.9993 13.1516C10.9993 12.5993 10.5516 12.1516 9.99931 12.1516Z" fill="#171719"/>
<path d="M4.99931 13.1516C4.99931 12.5993 5.44703 12.1516 5.99931 12.1516C6.5516 12.1516 6.99931 12.5993 6.99931 13.1516C6.99931 13.7039 6.5516 14.1516 5.99931 14.1516C5.44703 14.1516 4.99931 13.7039 4.99931 13.1516Z" fill="#171719"/>
<path fill-rule="evenodd" clip-rule="evenodd" d="M4.91421 8C4.38438 7.99999 3.93314 7.99998 3.56273 8.03024C3.17357 8.06204 2.79497 8.13167 2.43304 8.31608C1.88737 8.59412 1.44373 9.03776 1.16569 9.58343C0.98128 9.94536 0.911645 10.324 0.87985 10.7131C0.849586 11.0835 0.849597 11.5347 0.84961 12.0645V18.2354C0.849597 18.7652 0.849586 19.2165 0.87985 19.5869C0.911645 19.9761 0.98128 20.3546 1.16569 20.7166C1.44373 21.2622 1.88737 21.7059 2.43304 21.9839C2.79497 22.1683 3.17357 22.238 3.56273 22.2698C3.93316 22.3 4.38434 22.3 4.91421 22.3H19.085C19.6149 22.3 20.0661 22.3 20.4365 22.2698C20.8257 22.238 21.2043 22.1683 21.5662 21.9839C22.1119 21.7059 22.5555 21.2622 22.8335 20.7166C23.0179 20.3546 23.0876 19.9761 23.1194 19.5869C23.1496 19.2165 23.1496 18.7653 23.1496 18.2355V12.0646C23.1496 11.5348 23.1496 11.0835 23.1194 10.7131C23.0876 10.324 23.0179 9.94536 22.8335 9.58343C22.5555 9.03776 22.1119 8.59412 21.5662 8.31608C21.2043 8.13167 20.8257 8.06204 20.4365 8.03024C20.0661 7.99998 19.6149 7.99999 19.0851 8H4.91421ZM3.4097 9.85659C3.54123 9.81385 3.73506 9.80275 4.54962 9.80275H19.4496C20.2642 9.80275 20.458 9.81385 20.5895 9.85659C20.9244 9.9654 21.187 10.2279 21.2958 10.5628C21.3385 10.6944 21.3496 10.8882 21.3496 11.7027V18.6027C21.3496 19.4173 21.3385 19.6111 21.2958 19.7427C21.187 20.0775 20.9244 20.3401 20.5895 20.4489C20.458 20.4916 20.2642 20.5027 19.4496 20.5027H4.54962C3.73506 20.5027 3.54123 20.4916 3.4097 20.4489C3.07482 20.3401 2.81227 20.0775 2.70346 19.7427C2.66073 19.6111 2.64962 19.4173 2.64962 18.6027V11.7027C2.64962 10.8882 2.66073 10.6944 2.70346 10.5628C2.81227 10.2279 3.07482 9.9654 3.4097 9.85659Z" fill="#171719"/>
<path d="M14.4697 6.28033C14.7626 6.57322 15.2373 6.57322 15.5302 6.28033C15.8231 5.98744 15.8231 5.51268 15.5302 5.21978L12.5302 2.21978C12.2373 1.92689 11.7626 1.92689 11.4697 2.21978L8.46967 5.21978C8.17678 5.51268 8.17678 5.98744 8.46967 6.28033C8.76256 6.57322 9.23732 6.57322 9.53022 6.28033L11.9999 3.8106L14.4697 6.28033Z" fill="black"/>
</svg>
