<svg width="24" height="24" viewBox="0 0 24 24" fill="none" xmlns="http://www.w3.org/2000/svg">
<rect width="24" height="24" fill="white"/>
<path d="M16.3039 3.00001C17.6435 3.00734 18.9875 3.57273 19.9406 4.52579C20.8993 5.48455 21.4591 6.81049 21.4664 8.16252L21.4664 8.16738C21.4664 9.31559 21.0702 10.3136 20.3271 11.2907L20.3189 11.3015C19.977 11.7372 19.5058 12.2438 18.7385 13.011L17.996 13.7535C17.6446 14.105 17.0747 14.105 16.7233 13.7535C16.3718 13.4021 16.3718 12.8322 16.7233 12.4807L17.4657 11.7383C18.2212 10.9828 18.6273 10.5405 18.8985 10.1956C19.4499 9.46894 19.6659 8.84618 19.6664 8.16986C19.661 7.29884 19.2952 6.426 18.6678 5.79859C18.0467 5.1775 17.156 4.80539 16.2965 4.8C15.62 4.8005 15.021 5.00463 14.2757 5.57473C13.8965 5.86872 13.449 6.2798 12.7281 7.00065L11.9855 7.74312C11.634 8.09455 11.0642 8.09449 10.7127 7.74298C10.3613 7.39147 10.3614 6.82162 10.7129 6.47019L11.4554 5.72785C12.1877 4.99551 12.7016 4.5172 13.1754 4.15016L13.1795 4.147C14.1753 3.38469 15.1501 2.99999 16.299 3L16.3039 3.00001Z" fill="#1A1F27"/>
<path d="M15.7333 8.73305C16.0848 9.08451 16.0848 9.65436 15.7333 10.0058L10.0058 15.7335C9.65437 16.085 9.08452 16.085 8.73305 15.7336C8.38157 15.3821 8.38156 14.8122 8.73303 14.4608L14.4605 8.73306C14.812 8.38159 15.3819 8.38158 15.7333 8.73305Z" fill="#1A1F27"/>
<path d="M7.74296 10.7129C8.09447 11.0643 8.09454 11.6342 7.7431 11.9857L7.0007 12.7283C6.27987 13.4491 5.86871 13.8967 5.57473 14.2759C5.00467 15.0212 4.80052 15.6201 4.8 16.2966C4.80534 17.1561 5.17746 18.0469 5.79858 18.668C6.42601 19.2954 7.29887 19.6612 8.16991 19.6666C8.84621 19.6661 9.46895 19.4501 10.1956 18.8987C10.5404 18.6275 10.9828 18.2214 11.7382 17.466L12.4807 16.7235C12.8322 16.372 13.402 16.372 13.7535 16.7235C14.105 17.0749 14.105 17.6448 13.7535 17.9963L13.011 18.7387C12.2438 19.506 11.7371 19.9771 11.3014 20.319L11.2907 20.3274C10.3136 21.0705 9.31557 21.4666 8.16737 21.4666L8.1625 21.4666C6.81047 21.4593 5.48454 20.8996 4.52579 19.9408C3.57273 18.9877 3.00734 17.6437 3.00001 16.3041L3 16.2992C2.99999 15.1503 3.3847 14.1755 4.14701 13.1797L4.15016 13.1756C4.51719 12.7018 4.99544 12.188 5.72777 11.4556L6.47017 10.7131C6.82161 10.3615 7.39145 10.3615 7.74296 10.7129Z" fill="#1A1F27"/>
</svg>
