<svg width="24" height="24" viewBox="0 0 24 24" fill="none" xmlns="http://www.w3.org/2000/svg">
<path d="M3.99961 4.84961C3.50255 4.84961 3.09961 5.25255 3.09961 5.74961C3.09961 6.24667 3.50255 6.64961 3.99961 6.64961H19.9995C20.4966 6.64961 20.8995 6.24667 20.8995 5.74961C20.8995 5.25255 20.4966 4.84961 19.9995 4.84961H3.99961Z" fill="#1A1F27"/>
<path d="M3.09962 11.9998C3.09962 11.5027 3.50256 11.0998 3.99962 11.0998H19.9996C20.4966 11.0998 20.8996 11.5027 20.8996 11.9998C20.8996 12.4969 20.4966 12.8998 19.9996 12.8998H3.99962C3.50256 12.8998 3.09962 12.4969 3.09962 11.9998Z" fill="#1A1F27"/>
<path d="M3.09962 18.2495C3.09962 17.7525 3.50256 17.3495 3.99962 17.3495H19.9996C20.4966 17.3495 20.8995 17.7525 20.8995 18.2495C20.8995 18.7466 20.4966 19.1495 19.9996 19.1495H3.99962C3.50256 19.1495 3.09962 18.7466 3.09962 18.2495Z" fill="#1A1F27"/>
</svg>
