<svg width="24" height="24" viewBox="0 0 24 24" fill="none" xmlns="http://www.w3.org/2000/svg">
<path d="M11.9998 16.999C12.2831 16.999 12.5206 16.9032 12.7123 16.7115C12.9039 16.5199 12.9998 16.2824 12.9998 15.999C12.9998 15.7157 12.9039 15.4782 12.7123 15.2865C12.5206 15.0949 12.2831 14.999 11.9998 14.999C11.7164 14.999 11.4789 15.0949 11.2873 15.2865C11.0956 15.4782 10.9998 15.7157 10.9998 15.999C10.9998 16.2824 11.0956 16.5199 11.2873 16.7115C11.4789 16.9032 11.7164 16.999 11.9998 16.999ZM11.9998 12.999C12.2831 12.999 12.5206 12.9032 12.7123 12.7115C12.9039 12.5199 12.9998 12.2824 12.9998 11.999V7.99902C12.9998 7.71569 12.9039 7.47819 12.7123 7.28652C12.5206 7.09486 12.2831 6.99902 11.9998 6.99902C11.7164 6.99902 11.4789 7.09486 11.2873 7.28652C11.0956 7.47819 10.9998 7.71569 10.9998 7.99902V11.999C10.9998 12.2824 11.0956 12.5199 11.2873 12.7115C11.4789 12.9032 11.7164 12.999 11.9998 12.999ZM11.9998 21.999C10.6164 21.999 9.31642 21.7365 8.09976 21.2115C6.88309 20.6865 5.82476 19.974 4.92476 19.074C4.02476 18.174 3.31226 17.1157 2.78726 15.899C2.26226 14.6824 1.99976 13.3824 1.99976 11.999C1.99976 10.6157 2.26226 9.31569 2.78726 8.09902C3.31226 6.88236 4.02476 5.82402 4.92476 4.92402C5.82476 4.02402 6.88309 3.31152 8.09976 2.78652C9.31642 2.26152 10.6164 1.99902 11.9998 1.99902C13.3831 1.99902 14.6831 2.26152 15.8998 2.78652C17.1164 3.31152 18.1748 4.02402 19.0748 4.92402C19.9748 5.82402 20.6873 6.88236 21.2123 8.09902C21.7373 9.31569 21.9998 10.6157 21.9998 11.999C21.9998 13.3824 21.7373 14.6824 21.2123 15.899C20.6873 17.1157 19.9748 18.174 19.0748 19.074C18.1748 19.974 17.1164 20.6865 15.8998 21.2115C14.6831 21.7365 13.3831 21.999 11.9998 21.999Z" fill="#1A1F27"/>
</svg>
