<svg width="24" height="24" viewBox="0 0 24 24" fill="none" xmlns="http://www.w3.org/2000/svg">
<path d="M7.60017 7.25352C7.60017 4.82346 9.57011 2.85352 12.0001 2.85352C14.4302 2.85352 16.4001 4.82346 16.4001 7.25352C16.4001 9.68357 14.4302 11.6535 12.0001 11.6535C9.57011 11.6535 7.60017 9.68357 7.60017 7.25352Z" fill="#1A1F27"/>
<path d="M12.0001 13.5996C9.68814 13.5996 7.5307 14.0522 5.91643 14.9217C4.3033 15.7906 3.1001 17.1658 3.1001 18.9996L3.1001 19.3273C3.10007 19.514 3.10004 19.704 3.11331 19.8664C3.12808 20.0472 3.16365 20.2714 3.27996 20.4996C3.43816 20.8101 3.69059 21.0625 4.00108 21.2207C4.22933 21.337 4.45358 21.3726 4.63431 21.3873C4.79675 21.4006 4.98678 21.4006 5.17343 21.4005L18.8269 21.3997C19.0136 21.3997 19.2036 21.3997 19.366 21.3865C19.5467 21.3717 19.771 21.3361 19.9992 21.2198C20.3096 21.0616 20.562 20.8092 20.7202 20.4987C20.8365 20.2705 20.8721 20.0463 20.8868 19.8656C20.9001 19.7031 20.9001 19.5131 20.9 19.3265L20.9 18.9996C20.9 17.1658 19.6968 15.7906 18.0837 14.9217C16.4694 14.0522 14.312 13.5996 12.0001 13.5996Z" fill="#1A1F27"/>
</svg>
