<svg width="16" height="16" viewBox="0 0 16 16" fill="none" xmlns="http://www.w3.org/2000/svg">
<path d="M7.50454 5.50057C7.50454 4.304 8.46567 3.33398 9.6513 3.33398C10.8369 3.33398 11.7981 4.304 11.7981 5.50057C11.7981 6.69714 10.8369 7.66716 9.6513 7.66716C8.46567 7.66716 7.50454 6.69714 7.50454 5.50057Z" fill="#A9ACB3"/>
<path d="M9.65127 8.61124C8.52072 8.61124 7.46132 8.86661 6.66697 9.36013C5.86506 9.85835 5.30271 10.6261 5.30271 11.6111L5.30263 11.6397C5.30225 11.7358 5.30174 11.868 5.33388 11.9886C5.41801 12.3043 5.66233 12.5508 5.9751 12.6357C6.09461 12.6682 6.22559 12.6676 6.32087 12.6672L6.34914 12.6672L12.954 12.6667L12.9822 12.6668C13.0771 12.6671 13.2077 12.6677 13.3268 12.6354C13.6401 12.5506 13.8849 12.3036 13.9689 11.9874C14.0008 11.8671 14.0003 11.7354 13.9999 11.6396L13.9998 11.6111C13.9998 10.6261 13.4375 9.85835 12.6356 9.36013C11.8412 8.86661 10.7818 8.61124 9.65127 8.61124Z" fill="#A9ACB3"/>
<path d="M3.03182 10.0178C3.59234 9.65063 4.31632 9.47032 5.07706 9.44708C4.61414 10.0251 4.3119 10.7507 4.3119 11.6111L4.31171 11.6238C4.31044 11.6925 4.30516 11.9784 4.37708 12.2483C4.41633 12.3956 4.47227 12.5357 4.54275 12.6664L2.77101 12.6666C2.3452 12.6666 2 12.3182 2 11.8885C2 11.0591 2.41133 10.4242 3.03182 10.0178Z" fill="#A9ACB3"/>
<path d="M4.9724 5.00053C4.09079 5.00053 3.3761 5.72183 3.3761 6.61159C3.3761 7.50135 4.09079 8.22264 4.9724 8.22264C5.85402 8.22264 6.56871 7.50135 6.56871 6.61159C6.56871 5.72183 5.85402 5.00053 4.9724 5.00053Z" fill="#A9ACB3"/>
</svg>
