<svg width="24" height="24" viewBox="0 0 24 24" fill="none" xmlns="http://www.w3.org/2000/svg">
<path fill-rule="evenodd" clip-rule="evenodd" d="M13.6518 20.9825C14.3428 20.4319 15.2665 19.638 16.1932 18.6662C18.0085 16.7625 20 14.006 20 10.9611C20 6.56429 16.4183 3 12 3C7.58172 3 4 6.56429 4 10.9611C4 14.006 5.99152 16.7625 7.80681 18.6662C8.73347 19.638 9.65717 20.4319 10.3482 20.9825C10.7282 21.2853 11.115 21.583 11.5181 21.8552C11.8039 22.0477 12.194 22.0485 12.4802 21.8563C12.8839 21.5838 13.2713 21.2857 13.6518 20.9825ZM14.6192 10.961C14.6192 12.4004 13.4466 13.5673 12.0001 13.5673C10.5537 13.5673 9.38108 12.4004 9.38108 10.961C9.38108 9.52155 10.5537 8.35467 12.0001 8.35467C13.4466 8.35467 14.6192 9.52155 14.6192 10.961Z" fill="#1A1F27"/>
</svg>
