<svg width="24" height="24" viewBox="0 0 24 24" fill="none" xmlns="http://www.w3.org/2000/svg">
<path fill-rule="evenodd" clip-rule="evenodd" d="M10.2861 3C14.3097 3.00023 17.5713 6.26248 17.5713 10.2861C17.5712 11.9382 17.0195 13.4605 16.0928 14.6826C16.1071 14.6954 16.122 14.7079 16.1357 14.7217L20.707 19.293C21.0974 19.6835 21.0974 20.3165 20.707 20.707C20.3166 21.0975 19.6835 21.0974 19.293 20.707L14.7217 16.1357C14.7079 16.122 14.6954 16.1071 14.6826 16.0928C13.4605 17.0195 11.9382 17.5712 10.2861 17.5713C6.26248 17.5713 3.00023 14.3097 3 10.2861C3 6.26234 6.26234 3 10.2861 3ZM10.2861 5C7.36691 5 5 7.36691 5 10.2861C5.00023 13.2052 7.36705 15.5713 10.2861 15.5713C13.205 15.5711 15.5711 13.205 15.5713 10.2861C15.5713 7.36705 13.2052 5.00023 10.2861 5Z" fill="#1A1F27"/>
</svg>
