<svg width="24" height="24" viewBox="0 0 24 24" fill="none" xmlns="http://www.w3.org/2000/svg">
<path d="M10.8558 3.89406C11.3948 2.72279 12.9957 2.72597 13.53 3.89938L15.0403 7.21603C15.2554 7.68827 15.685 8.01501 16.1821 8.08432L19.6732 8.5711C20.9083 8.74331 21.3998 10.3314 20.4943 11.2239L17.9347 13.7466C17.5702 14.1058 17.4048 14.6327 17.4951 15.1469L18.1292 18.7584C18.3536 20.0361 17.0565 21.0144 15.9625 20.3926L12.8703 18.635C12.43 18.3848 11.8981 18.3837 11.4569 18.6322L8.35772 20.3775C7.26125 20.9949 5.96806 20.0115 6.19749 18.7347L6.84598 15.1258C6.93832 14.6119 6.77501 14.0843 6.412 13.7236L3.86248 11.1908C2.96048 10.2947 3.45834 8.7086 4.69413 8.54129L8.18712 8.06841C8.68446 8.00108 9.11541 7.67606 9.33233 7.20468L10.8558 3.89406Z" fill="#1A1F27"/>
</svg>
