<svg width="24" height="24" viewBox="0 0 24 24" fill="none" xmlns="http://www.w3.org/2000/svg">
<rect width="24" height="24" fill="white"/>
<path d="M12.1503 16.301C11.6532 16.301 11.2503 15.898 11.2503 15.401V5.02098L9.15041 7.04844C8.79283 7.39369 8.22307 7.38369 7.87782 7.02611C7.53256 6.66853 7.54256 6.09877 7.90014 5.75352L11.5 2.27775C11.6639 2.10659 11.8946 2 12.1503 2C12.4059 2 12.6367 2.1066 12.8005 2.27777L16.4004 5.75351C16.758 6.09877 16.768 6.66853 16.4227 7.02611C16.0775 7.38369 15.5077 7.39369 15.1501 7.04844L13.0503 5.02098V15.401C13.0503 15.898 12.6473 16.301 12.1503 16.301Z" fill="#1A1F27"/>
<path d="M7.25062 8.99975C7.74748 8.99975 8.15027 9.40253 8.15027 9.89939C8.15027 10.3963 7.74748 10.799 7.25062 10.799H6.70054C5.88598 10.799 5.69214 10.8101 5.56062 10.8529C5.22574 10.9617 4.96319 11.2242 4.85438 11.5591C4.81164 11.6906 4.80054 11.8845 4.80054 12.699V17.8639C4.80054 18.6784 4.81164 18.8723 4.85438 19.0038C4.96319 19.3387 5.22574 19.6012 5.56062 19.71C5.69214 19.7528 5.88598 19.7639 6.70054 19.7639H17.6005C18.4151 19.7639 18.6089 19.7528 18.7405 19.71C19.0753 19.6012 19.3379 19.3387 19.4467 19.0038C19.4894 18.8723 19.5005 18.6784 19.5005 17.8639L19.5005 12.699C19.5005 11.8845 19.4894 11.6906 19.4467 11.5591C19.3379 11.2242 19.0753 10.9617 18.7405 10.8529C18.6089 10.8101 18.4151 10.799 17.6005 10.799H17.0499C16.5531 10.799 16.1503 10.3963 16.1503 9.89939C16.1503 9.40253 16.5531 8.99975 17.0499 8.99975H17.2354C17.7652 8.99973 18.2165 8.99972 18.5869 9.02999C18.9761 9.06178 19.3546 9.13142 19.7166 9.31583C20.2622 9.59386 20.7059 10.0375 20.9839 10.5832C21.1683 10.9451 21.238 11.3237 21.2698 11.7129C21.3 12.0833 21.3 12.5344 21.3 13.0643L21.3 17.5C21.3 18.0298 21.3 18.4811 21.2698 18.8515C21.238 19.2406 21.1683 19.6192 20.9839 19.9812C20.7059 20.5268 20.2622 20.9705 19.7166 21.2485C19.3546 21.4329 18.9761 21.5026 18.5869 21.5344C18.2165 21.5646 17.7653 21.5646 17.2354 21.5646H7.0646C6.53473 21.5646 6.08355 21.5646 5.71312 21.5344C5.32396 21.5026 4.94536 21.4329 4.58343 21.2485C4.03776 20.9705 3.59412 20.5268 3.31608 19.9812C3.13167 19.6192 3.06204 19.2406 3.03024 18.8515C2.99998 18.4811 2.99999 18.0299 3 17.5001L3 13.0643C2.99999 12.5345 2.99998 12.0833 3.03024 11.7129C3.06204 11.3237 3.13167 10.9451 3.31608 10.5832C3.59412 10.0375 4.03776 9.59386 4.58343 9.31583C4.94536 9.13142 5.32396 9.06178 5.71312 9.02999C6.08353 8.99972 6.53468 8.99973 7.06451 8.99975H7.25062Z" fill="#1A1F27"/>
</svg>
