<svg width="24" height="24" viewBox="0 0 24 24" fill="none" xmlns="http://www.w3.org/2000/svg">
<rect width="24" height="24" fill="white"/>
<path d="M9.89999 10.7465C10.397 10.7465 10.8 11.1494 10.8 11.6465V16.6465C10.8 17.1436 10.397 17.5465 9.89999 17.5465C9.40293 17.5465 8.99999 17.1436 8.99999 16.6465V11.6465C8.99999 11.1494 9.40293 10.7465 9.89999 10.7465Z" fill="#1A1F27"/>
<path d="M13.9 10.7465C14.397 10.7465 14.8 11.1494 14.8 11.6465V16.6465C14.8 17.1436 14.397 17.5465 13.9 17.5465C13.4029 17.5465 13 17.1436 13 16.6465V11.6465C13 11.1494 13.4029 10.7465 13.9 10.7465Z" fill="#1A1F27"/>
<path fill-rule="evenodd" clip-rule="evenodd" d="M19.8999 5.9969H16.2998C16.2998 5.4962 16.2986 5.06767 16.2696 4.71312C16.2378 4.32396 16.1682 3.94536 15.9837 3.58343C15.7057 3.03776 15.2621 2.59412 14.7164 2.31608C14.3545 2.13167 13.9759 2.06204 13.5867 2.03024C13.2163 1.99998 12.7652 1.99999 12.2353 2H11.5644C11.0346 1.99999 10.5834 1.99998 10.213 2.03024C9.82379 2.06204 9.4452 2.13167 9.08327 2.31608C8.5376 2.59412 8.09396 3.03776 7.81593 3.58343C7.63151 3.94536 7.56188 4.32396 7.53008 4.71312C7.50112 5.06767 7.49989 5.4962 7.49985 5.9969H3.9C3.40294 5.9969 3 6.39984 3 6.8969C3 7.39395 3.40294 7.7969 3.9 7.7969H4.4999L4.49989 18.2333C4.49988 18.7631 4.49987 19.2143 4.53013 19.5847C4.56193 19.9739 4.63156 20.3525 4.81598 20.7144C5.09401 21.2601 5.53765 21.7037 6.08332 21.9818C6.44525 22.1662 6.82384 22.2358 7.213 22.2676C7.58341 22.2979 8.03455 22.2979 8.56437 22.2979H15.2353C15.7651 22.2979 16.2163 22.2979 16.5867 22.2676C16.9759 22.2358 17.3545 22.1662 17.7164 21.9818C18.2621 21.7037 18.7057 21.2601 18.9838 20.7144C19.1682 20.3525 19.2378 19.9739 19.2696 19.5847C19.2999 19.2143 19.2999 18.7631 19.2999 18.2333V7.7969H19.8999C20.397 7.7969 20.7999 7.39395 20.7999 6.8969C20.7999 6.39984 20.397 5.9969 19.8999 5.9969ZM14.5002 5.9969H9.30019V5.69088C9.30019 4.87632 9.31129 4.68248 9.35403 4.55096C9.46284 4.21608 9.72539 3.95353 10.0603 3.84472C10.1918 3.80198 10.3856 3.79088 11.2002 3.79088H12.6002C13.4147 3.79088 13.6086 3.80198 13.7401 3.84472C14.075 3.95353 14.3375 4.21608 14.4463 4.55096C14.4891 4.68248 14.5002 4.87632 14.5002 5.69088V5.9969ZM6.30022 18.5915V7.7969H17.5002V18.5915C17.5002 19.406 17.4891 19.5999 17.4464 19.7314C17.3375 20.0663 17.075 20.3288 16.7401 20.4376C16.6086 20.4804 16.4148 20.4915 15.6002 20.4915H8.20021C7.38566 20.4915 7.19182 20.4804 7.0603 20.4376C6.72542 20.3288 6.46287 20.0663 6.35406 19.7314C6.31132 19.5999 6.30022 19.406 6.30022 18.5915Z" fill="#1A1F27"/>
</svg>
