<svg width="24" height="24" viewBox="0 0 24 24" fill="none" xmlns="http://www.w3.org/2000/svg">
<path fill-rule="evenodd" clip-rule="evenodd" d="M11.7111 8.65059H3.49961C3.00255 8.65059 2.59961 8.24764 2.59961 7.75059C2.59961 7.25353 3.00255 6.85059 3.49961 6.85059H11.7116C12.1128 5.27047 13.5447 4.10156 15.2496 4.10156C16.9545 4.10156 18.3864 5.27047 18.7875 6.85059H20.4996C20.9966 6.85059 21.3996 7.25353 21.3996 7.75059C21.3996 8.24764 20.9966 8.65059 20.4996 8.65059H18.788C18.3875 10.2317 16.9552 11.4016 15.2496 11.4016C13.544 11.4016 12.1116 10.2317 11.7111 8.65059ZM13.3996 7.75156C13.3996 6.72984 14.2279 5.90156 15.2496 5.90156C16.2713 5.90156 17.0996 6.72984 17.0996 7.75156C17.0996 8.77329 16.2713 9.60156 15.2496 9.60156C14.2279 9.60156 13.3996 8.77329 13.3996 7.75156Z" fill="#1A1F27"/>
<path fill-rule="evenodd" clip-rule="evenodd" d="M5.21116 17.1506H3.49961C3.00255 17.1506 2.59961 16.7476 2.59961 16.2506C2.59961 15.7535 3.00255 15.3506 3.49961 15.3506H5.21166C5.61282 13.7705 7.0447 12.6016 8.7496 12.6016C10.4545 12.6016 11.8864 13.7705 12.2875 15.3506H20.4996C20.9966 15.3506 21.3996 15.7535 21.3996 16.2506C21.3996 16.7476 20.9966 17.1506 20.4996 17.1506H12.288C11.8876 18.7317 10.4552 19.9016 8.7496 19.9016C7.044 19.9016 5.61164 18.7317 5.21116 17.1506ZM6.89961 16.2516C6.89961 15.2298 7.72788 14.4016 8.7496 14.4016C9.77132 14.4016 10.5996 15.2298 10.5996 16.2516C10.5996 17.2733 9.77132 18.1016 8.7496 18.1016C7.72788 18.1016 6.89961 17.2733 6.89961 16.2516Z" fill="#1A1F27"/>
</svg>
