<svg width="24" height="24" viewBox="0 0 24 24" fill="none" xmlns="http://www.w3.org/2000/svg">
<path fill-rule="evenodd" clip-rule="evenodd" d="M10.1963 3.25505C11.188 2.24828 12.812 2.24835 13.8038 3.25507L14.8204 4.28702C14.9889 4.45805 15.2195 4.55358 15.4595 4.55179L16.9082 4.54095C18.3213 4.53036 19.4696 5.67868 19.4591 7.0918L19.4482 8.5404C19.4464 8.78051 19.542 9.01111 19.7129 9.17953L20.745 10.1963C21.7517 11.1881 21.7517 12.812 20.745 13.8038L19.713 14.8204C19.542 14.9889 19.4464 15.2194 19.4482 15.4595L19.4591 16.9081C19.4696 18.3213 18.3213 19.4695 16.9082 19.459L15.4596 19.4482C15.2195 19.4464 14.9889 19.5419 14.8204 19.7129L13.8038 20.7449C12.812 21.7517 11.1881 21.7517 10.1963 20.745L9.17957 19.713C9.01115 19.542 8.7806 19.4464 8.54048 19.4482L7.09185 19.459C5.67873 19.4695 4.53036 18.3213 4.54094 16.9082L4.55178 15.4595C4.55358 15.2195 4.45811 14.9889 4.28707 14.8204L3.25507 13.8038C2.24832 12.812 2.24831 11.1881 3.25505 10.1963L4.28705 9.17957C4.45806 9.0111 4.55358 8.78053 4.55178 8.54047L4.54094 7.09184C4.53036 5.67866 5.67866 4.53036 7.09184 4.54095L8.54048 4.55179C8.78053 4.55358 9.01108 4.45809 9.17955 4.28707L10.1963 3.25505ZM16.0068 10.2971C16.3279 9.9761 16.3279 9.45557 16.0068 9.1345C15.6858 8.81344 15.1652 8.81343 14.8442 9.13447L10.858 13.1205L9.15587 11.4182C8.83483 11.0971 8.31429 11.0971 7.99322 11.4181C7.67215 11.7392 7.67212 12.2597 7.99316 12.5808L10.2766 14.8644C10.4308 15.0186 10.6399 15.1052 10.8579 15.1052C11.0759 15.1052 11.2851 15.0186 11.4392 14.8645L16.0068 10.2971Z" fill="#1A1F27"/>
</svg>
