<svg width="24" height="24" viewBox="0 0 24 24" fill="none" xmlns="http://www.w3.org/2000/svg">
<path d="M15.451 4.2858C17.9077 4.81362 19.3846 6.16957 20 8.42864C20 9.44351 19.9391 10.3729 19.3889 11.0932C19.1697 11.3802 19.0077 11.7256 19.0398 12.0898L19.555 17.9292C19.6531 19.0411 18.8064 20 17.7265 20H6.27347C5.19358 20 4.3469 19.0411 4.44499 17.9292L4.96021 12.0897C4.99234 11.7256 4.83032 11.3802 4.61113 11.0932C4.06095 10.3729 4 9.44345 4 8.42864C4.36923 6.16957 5.96923 4.81364 8.54902 4.2858C9.94289 4.0006 10.7451 4.00009 12 4.00009C13.098 4.00009 14.0595 3.98684 15.451 4.2858Z" fill="#1A1F27"/>
</svg>
