<svg width="44" height="44" viewBox="0 0 44 44" fill="none" xmlns="http://www.w3.org/2000/svg">
<g filter="url(#filter0_g_4358_11029)">
<path d="M4.76118 23.6702L5.47995 21.5138C5.61925 21.096 5.37132 20.608 5.03392 20.3248C3.8332 19.3171 2.18975 16.6619 2.02633 14.0472C1.65492 8.10465 5.21805 3.3002 12.4258 2.16229C19.4825 1.04823 24.6823 5.87613 25.4251 10.333C26.0441 14.0472 25.4251 18.1326 21.3396 21.1039C18.1893 23.395 12.7157 23.1097 10.107 22.6427C9.92508 22.6101 9.73809 22.6422 9.57961 22.7373L9.29793 22.9064C8.41329 23.4374 7.48752 23.8967 6.52951 24.2797L5.74168 24.5948C5.15452 24.8296 4.5612 24.2701 4.76118 23.6702Z" fill="#D9D9D9"/>
<path d="M4.76118 23.6702L5.47995 21.5138C5.61925 21.096 5.37132 20.608 5.03392 20.3248C3.8332 19.3171 2.18975 16.6619 2.02633 14.0472C1.65492 8.10465 5.21805 3.3002 12.4258 2.16229C19.4825 1.04823 24.6823 5.87613 25.4251 10.333C26.0441 14.0472 25.4251 18.1326 21.3396 21.1039C18.1893 23.395 12.7157 23.1097 10.107 22.6427C9.92508 22.6101 9.73809 22.6422 9.57961 22.7373L9.29793 22.9064C8.41329 23.4374 7.48752 23.8967 6.52951 24.2797L5.74168 24.5948C5.15452 24.8296 4.5612 24.2701 4.76118 23.6702Z" fill="url(#paint0_radial_4358_11029)"/>
</g>
<g filter="url(#filter1_g_4358_11029)">
<circle cx="8.87153" cy="13.1186" r="1.67134" fill="white"/>
</g>
<g filter="url(#filter2_g_4358_11029)">
<circle cx="13.6997" cy="12.7475" r="1.67134" fill="white"/>
</g>
<g filter="url(#filter3_g_4358_11029)">
<circle cx="18.3793" cy="12.5249" r="1.67134" fill="white"/>
</g>
<g filter="url(#filter4_g_4358_11029)">
<path d="M39.5276 33.3655L38.9797 31.3162C38.8736 30.919 39.1321 30.4784 39.4624 30.2337C40.6378 29.3627 42.3187 26.982 42.6186 24.5554C43.3001 19.0404 40.252 14.3635 33.6017 12.8966C27.0907 11.4603 21.9742 15.6644 21.0306 19.7744C20.2442 23.1995 20.5902 27.0403 24.2284 30.0389C27.0338 32.3511 32.1489 32.3944 34.6055 32.1065C34.7769 32.0865 34.9492 32.1269 35.0915 32.2245L35.3444 32.3979C36.1385 32.9425 36.975 33.4226 37.8458 33.8336L38.562 34.1715C39.0957 34.4234 39.68 33.9357 39.5276 33.3655Z" fill="#D9D9D9"/>
<path d="M39.5276 33.3655L38.9797 31.3162C38.8736 30.919 39.1321 30.4784 39.4624 30.2337C40.6378 29.3627 42.3187 26.982 42.6186 24.5554C43.3001 19.0404 40.252 14.3635 33.6017 12.8966C27.0907 11.4603 21.9742 15.6644 21.0306 19.7744C20.2442 23.1995 20.5902 27.0403 24.2284 30.0389C27.0338 32.3511 32.1489 32.3944 34.6055 32.1065C34.7769 32.0865 34.9492 32.1269 35.0915 32.2245L35.3444 32.3979C36.1385 32.9425 36.975 33.4226 37.8458 33.8336L38.562 34.1715C39.0957 34.4234 39.68 33.9357 39.5276 33.3655Z" fill="url(#paint1_radial_4358_11029)"/>
<path d="M39.5276 33.3655L38.9797 31.3162C38.8736 30.919 39.1321 30.4784 39.4624 30.2337C40.6378 29.3627 42.3187 26.982 42.6186 24.5554C43.3001 19.0404 40.252 14.3635 33.6017 12.8966C27.0907 11.4603 21.9742 15.6644 21.0306 19.7744C20.2442 23.1995 20.5902 27.0403 24.2284 30.0389C27.0338 32.3511 32.1489 32.3944 34.6055 32.1065C34.7769 32.0865 34.9492 32.1269 35.0915 32.2245L35.3444 32.3979C36.1385 32.9425 36.975 33.4226 37.8458 33.8336L38.562 34.1715C39.0957 34.4234 39.68 33.9357 39.5276 33.3655Z" fill="url(#paint2_radial_4358_11029)"/>
</g>
<g filter="url(#filter5_g_4358_11029)">
<circle cx="1.55984" cy="1.55984" r="1.55984" transform="matrix(-0.998169 -0.0604913 -0.0604913 0.998169 37.9453 21.8418)" fill="white"/>
</g>
<g filter="url(#filter6_g_4358_11029)">
<circle cx="1.55984" cy="1.55984" r="1.55984" transform="matrix(-0.998169 -0.0604913 -0.0604913 0.998169 33.4688 21.2227)" fill="white"/>
</g>
<g filter="url(#filter7_g_4358_11029)">
<circle cx="1.55984" cy="1.55984" r="1.55984" transform="matrix(-0.998169 -0.0604913 -0.0604913 0.998169 29.1211 20.752)" fill="white"/>
</g>
<g filter="url(#filter8_g_4358_11029)">
<path d="M10.3121 40.0424L11.1258 38.4661C11.2835 38.1607 11.1511 37.7545 10.925 37.4956C10.1204 36.574 9.17268 34.3288 9.36137 32.2929C9.79019 27.6658 13.116 24.3899 18.8109 24.3799C24.3865 24.3702 27.815 28.7189 27.8513 32.245C27.8817 35.1836 26.9126 38.2593 23.4047 40.0588C20.6997 41.4463 16.5133 40.5676 14.5579 39.8935C14.4216 39.8465 14.2735 39.8487 14.1399 39.903L13.9023 39.9995C13.1562 40.3024 12.3871 40.5451 11.6023 40.7252L10.9568 40.8734C10.4758 40.9837 10.0856 40.4809 10.3121 40.0424Z" fill="#D9D9D9"/>
<path d="M10.3121 40.0424L11.1258 38.4661C11.2835 38.1607 11.1511 37.7545 10.925 37.4956C10.1204 36.574 9.17268 34.3288 9.36137 32.2929C9.79019 27.6658 13.116 24.3899 18.8109 24.3799C24.3865 24.3702 27.815 28.7189 27.8513 32.245C27.8817 35.1836 26.9126 38.2593 23.4047 40.0588C20.6997 41.4463 16.5133 40.5676 14.5579 39.8935C14.4216 39.8465 14.2735 39.8487 14.1399 39.903L13.9023 39.9995C13.1562 40.3024 12.3871 40.5451 11.6023 40.7252L10.9568 40.8734C10.4758 40.9837 10.0856 40.4809 10.3121 40.0424Z" fill="url(#paint3_radial_4358_11029)"/>
<path d="M10.3121 40.0424L11.1258 38.4661C11.2835 38.1607 11.1511 37.7545 10.925 37.4956C10.1204 36.574 9.17268 34.3288 9.36137 32.2929C9.79019 27.6658 13.116 24.3899 18.8109 24.3799C24.3865 24.3702 27.815 28.7189 27.8513 32.245C27.8817 35.1836 26.9126 38.2593 23.4047 40.0588C20.6997 41.4463 16.5133 40.5676 14.5579 39.8935C14.4216 39.8465 14.2735 39.8487 14.1399 39.903L13.9023 39.9995C13.1562 40.3024 12.3871 40.5451 11.6023 40.7252L10.9568 40.8734C10.4758 40.9837 10.0856 40.4809 10.3121 40.0424Z" fill="url(#paint4_radial_4358_11029)"/>
<path d="M10.3121 40.0424L11.1258 38.4661C11.2835 38.1607 11.1511 37.7545 10.925 37.4956C10.1204 36.574 9.17268 34.3288 9.36137 32.2929C9.79019 27.6658 13.116 24.3899 18.8109 24.3799C24.3865 24.3702 27.815 28.7189 27.8513 32.245C27.8817 35.1836 26.9126 38.2593 23.4047 40.0588C20.6997 41.4463 16.5133 40.5676 14.5579 39.8935C14.4216 39.8465 14.2735 39.8487 14.1399 39.903L13.9023 39.9995C13.1562 40.3024 12.3871 40.5451 11.6023 40.7252L10.9568 40.8734C10.4758 40.9837 10.0856 40.4809 10.3121 40.0424Z" fill="url(#paint5_radial_4358_11029)"/>
</g>
<g filter="url(#filter9_g_4358_11029)">
<circle cx="14.7517" cy="32.402" r="1.30439" transform="rotate(8.87124 14.7517 32.402)" fill="white"/>
</g>
<g filter="url(#filter10_g_4358_11029)">
<circle cx="18.5193" cy="32.695" r="1.30439" transform="rotate(8.87124 18.5193 32.695)" fill="white"/>
</g>
<g filter="url(#filter11_g_4358_11029)">
<circle cx="22.155" cy="33.0876" r="1.30439" transform="rotate(8.87124 22.155 33.0876)" fill="white"/>
</g>
<defs>
<filter id="filter0_g_4358_11029" x="1.6" y="1.6" width="24.4309" height="23.4504" filterUnits="userSpaceOnUse" color-interpolation-filters="sRGB">
<feFlood flood-opacity="0" result="BackgroundImageFix"/>
<feBlend mode="normal" in="SourceGraphic" in2="BackgroundImageFix" result="shape"/>
<feTurbulence type="fractalNoise" baseFrequency="0.83333331346511841 0.83333331346511841" numOctaves="3" seed="7701" />
<feDisplacementMap in="shape" scale="0.80000001192092896" xChannelSelector="R" yChannelSelector="G" result="displacedImage" width="100%" height="100%" />
<feMerge result="effect1_texture_4358_11029">
<feMergeNode in="displacedImage"/>
</feMerge>
</filter>
<filter id="filter1_g_4358_11029" x="6.87113" y="11.1182" width="4.00091" height="3.99993" filterUnits="userSpaceOnUse" color-interpolation-filters="sRGB">
<feFlood flood-opacity="0" result="BackgroundImageFix"/>
<feBlend mode="normal" in="SourceGraphic" in2="BackgroundImageFix" result="shape"/>
<feTurbulence type="fractalNoise" baseFrequency="0.94310218095779419 0.94310218095779419" numOctaves="3" seed="7701" />
<feDisplacementMap in="shape" scale="0.65813601016998291" xChannelSelector="R" yChannelSelector="G" result="displacedImage" width="100%" height="100%" />
<feMerge result="effect1_texture_4358_11029">
<feMergeNode in="displacedImage"/>
</feMerge>
</filter>
<filter id="filter2_g_4358_11029" x="11.6993" y="10.7471" width="4.00091" height="3.99993" filterUnits="userSpaceOnUse" color-interpolation-filters="sRGB">
<feFlood flood-opacity="0" result="BackgroundImageFix"/>
<feBlend mode="normal" in="SourceGraphic" in2="BackgroundImageFix" result="shape"/>
<feTurbulence type="fractalNoise" baseFrequency="0.94310218095779419 0.94310218095779419" numOctaves="3" seed="7701" />
<feDisplacementMap in="shape" scale="0.65813601016998291" xChannelSelector="R" yChannelSelector="G" result="displacedImage" width="100%" height="100%" />
<feMerge result="effect1_texture_4358_11029">
<feMergeNode in="displacedImage"/>
</feMerge>
</filter>
<filter id="filter3_g_4358_11029" x="16.3789" y="10.5244" width="4.00091" height="3.99993" filterUnits="userSpaceOnUse" color-interpolation-filters="sRGB">
<feFlood flood-opacity="0" result="BackgroundImageFix"/>
<feBlend mode="normal" in="SourceGraphic" in2="BackgroundImageFix" result="shape"/>
<feTurbulence type="fractalNoise" baseFrequency="0.94310218095779419 0.94310218095779419" numOctaves="3" seed="7701" />
<feDisplacementMap in="shape" scale="0.65813601016998291" xChannelSelector="R" yChannelSelector="G" result="displacedImage" width="100%" height="100%" />
<feMerge result="effect1_texture_4358_11029">
<feMergeNode in="displacedImage"/>
</feMerge>
</filter>
<filter id="filter4_g_4358_11029" x="20.2836" y="12.2094" width="22.8283" height="22.4309" filterUnits="userSpaceOnUse" color-interpolation-filters="sRGB">
<feFlood flood-opacity="0" result="BackgroundImageFix"/>
<feBlend mode="normal" in="SourceGraphic" in2="BackgroundImageFix" result="shape"/>
<feTurbulence type="fractalNoise" baseFrequency="0.83333331346511841 0.83333331346511841" numOctaves="3" seed="7701" />
<feDisplacementMap in="shape" scale="0.80000001192092896" xChannelSelector="R" yChannelSelector="G" result="displacedImage" width="100%" height="100%" />
<feMerge result="effect1_texture_4358_11029">
<feMergeNode in="displacedImage"/>
</feMerge>
</filter>
<filter id="filter5_g_4358_11029" x="34.4273" y="21.437" width="3.73337" height="3.73532" filterUnits="userSpaceOnUse" color-interpolation-filters="sRGB">
<feFlood flood-opacity="0" result="BackgroundImageFix"/>
<feBlend mode="normal" in="SourceGraphic" in2="BackgroundImageFix" result="shape"/>
<feTurbulence type="fractalNoise" baseFrequency="0.99900001287460327 0.99900001287460327" numOctaves="3" seed="7701" />
<feDisplacementMap in="shape" scale="0.61422890424728394" xChannelSelector="R" yChannelSelector="G" result="displacedImage" width="100%" height="100%" />
<feMerge result="effect1_texture_4358_11029">
<feMergeNode in="displacedImage"/>
</feMerge>
</filter>
<filter id="filter6_g_4358_11029" x="29.9507" y="20.8179" width="3.73337" height="3.73532" filterUnits="userSpaceOnUse" color-interpolation-filters="sRGB">
<feFlood flood-opacity="0" result="BackgroundImageFix"/>
<feBlend mode="normal" in="SourceGraphic" in2="BackgroundImageFix" result="shape"/>
<feTurbulence type="fractalNoise" baseFrequency="0.99900001287460327 0.99900001287460327" numOctaves="3" seed="7701" />
<feDisplacementMap in="shape" scale="0.61422890424728394" xChannelSelector="R" yChannelSelector="G" result="displacedImage" width="100%" height="100%" />
<feMerge result="effect1_texture_4358_11029">
<feMergeNode in="displacedImage"/>
</feMerge>
</filter>
<filter id="filter7_g_4358_11029" x="25.603" y="20.3472" width="3.73337" height="3.73532" filterUnits="userSpaceOnUse" color-interpolation-filters="sRGB">
<feFlood flood-opacity="0" result="BackgroundImageFix"/>
<feBlend mode="normal" in="SourceGraphic" in2="BackgroundImageFix" result="shape"/>
<feTurbulence type="fractalNoise" baseFrequency="0.99900001287460327 0.99900001287460327" numOctaves="3" seed="7701" />
<feDisplacementMap in="shape" scale="0.61422890424728394" xChannelSelector="R" yChannelSelector="G" result="displacedImage" width="100%" height="100%" />
<feMerge result="effect1_texture_4358_11029">
<feMergeNode in="displacedImage"/>
</feMerge>
</filter>
<filter id="filter8_g_4358_11029" x="9.08009" y="24.124" width="19.0283" height="17.0215" filterUnits="userSpaceOnUse" color-interpolation-filters="sRGB">
<feFlood flood-opacity="0" result="BackgroundImageFix"/>
<feBlend mode="normal" in="SourceGraphic" in2="BackgroundImageFix" result="shape"/>
<feTurbulence type="fractalNoise" baseFrequency="0.99900001287460327 0.99900001287460327" numOctaves="3" seed="7701" />
<feDisplacementMap in="shape" scale="0.51363849639892578" xChannelSelector="R" yChannelSelector="G" result="displacedImage" width="100%" height="100%" />
<feMerge result="effect1_texture_4358_11029">
<feMergeNode in="displacedImage"/>
</feMerge>
</filter>
<filter id="filter9_g_4358_11029" x="13.1904" y="30.8408" width="3.12301" height="3.12301" filterUnits="userSpaceOnUse" color-interpolation-filters="sRGB">
<feFlood flood-opacity="0" result="BackgroundImageFix"/>
<feBlend mode="normal" in="SourceGraphic" in2="BackgroundImageFix" result="shape"/>
<feTurbulence type="fractalNoise" baseFrequency="0.99900001287460327 0.99900001287460327" numOctaves="3" seed="7701" />
<feDisplacementMap in="shape" scale="0.51363855600357056" xChannelSelector="R" yChannelSelector="G" result="displacedImage" width="100%" height="100%" />
<feMerge result="effect1_texture_4358_11029">
<feMergeNode in="displacedImage"/>
</feMerge>
</filter>
<filter id="filter10_g_4358_11029" x="16.958" y="31.1338" width="3.12301" height="3.12301" filterUnits="userSpaceOnUse" color-interpolation-filters="sRGB">
<feFlood flood-opacity="0" result="BackgroundImageFix"/>
<feBlend mode="normal" in="SourceGraphic" in2="BackgroundImageFix" result="shape"/>
<feTurbulence type="fractalNoise" baseFrequency="0.99900001287460327 0.99900001287460327" numOctaves="3" seed="7701" />
<feDisplacementMap in="shape" scale="0.51363855600357056" xChannelSelector="R" yChannelSelector="G" result="displacedImage" width="100%" height="100%" />
<feMerge result="effect1_texture_4358_11029">
<feMergeNode in="displacedImage"/>
</feMerge>
</filter>
<filter id="filter11_g_4358_11029" x="20.5938" y="31.5264" width="3.12301" height="3.12301" filterUnits="userSpaceOnUse" color-interpolation-filters="sRGB">
<feFlood flood-opacity="0" result="BackgroundImageFix"/>
<feBlend mode="normal" in="SourceGraphic" in2="BackgroundImageFix" result="shape"/>
<feTurbulence type="fractalNoise" baseFrequency="0.99900001287460327 0.99900001287460327" numOctaves="3" seed="7701" />
<feDisplacementMap in="shape" scale="0.51363855600357056" xChannelSelector="R" yChannelSelector="G" result="displacedImage" width="100%" height="100%" />
<feMerge result="effect1_texture_4358_11029">
<feMergeNode in="displacedImage"/>
</feMerge>
</filter>
<radialGradient id="paint0_radial_4358_11029" cx="0" cy="0" r="1" gradientTransform="matrix(-0.742816 15.5992 -23.472 -1.33824 13.8851 14.0476)" gradientUnits="userSpaceOnUse">
<stop offset="0.163462" stop-color="#FFBF21"/>
<stop offset="1" stop-color="#FFF9E5"/>
</radialGradient>
<radialGradient id="paint1_radial_4358_11029" cx="0" cy="0" r="1" gradientTransform="matrix(-0.188671 14.5737 21.9415 0.0784558 31.5712 23.8862)" gradientUnits="userSpaceOnUse">
<stop offset="0.163462" stop-color="#FFBF21"/>
<stop offset="1" stop-color="#FFF9E5"/>
</radialGradient>
<radialGradient id="paint2_radial_4358_11029" cx="0" cy="0" r="1" gradientUnits="userSpaceOnUse" gradientTransform="translate(31.6618 23.4683) rotate(90.949) scale(15.9937 16.298)">
<stop stop-color="#00CB89"/>
<stop offset="1" stop-color="#D3F8EC"/>
</radialGradient>
<radialGradient id="paint3_radial_4358_11029" cx="0" cy="0" r="1" gradientTransform="matrix(-2.45024 11.9392 -17.9384 -3.85692 18.5057 33.7204)" gradientUnits="userSpaceOnUse">
<stop offset="0.163462" stop-color="#FFBF21"/>
<stop offset="1" stop-color="#FFF9E5"/>
</radialGradient>
<radialGradient id="paint4_radial_4358_11029" cx="0" cy="0" r="1" gradientUnits="userSpaceOnUse" gradientTransform="translate(18.5064 33.3628) rotate(101.39) scale(13.3744 13.6289)">
<stop stop-color="#00CB89"/>
<stop offset="1" stop-color="#D3F8EC"/>
</radialGradient>
<radialGradient id="paint5_radial_4358_11029" cx="0" cy="0" r="1" gradientTransform="matrix(-2.71782 16.5335 -16.6733 -3.88916 17.5756 34.0501)" gradientUnits="userSpaceOnUse">
<stop stop-color="#9F71E4"/>
<stop offset="1" stop-color="#EDE5FF"/>
</radialGradient>
</defs>
</svg>
