<svg width="44" height="44" viewBox="0 0 44 44" fill="none" xmlns="http://www.w3.org/2000/svg">
<g filter="url(#filter0_g_4321_6161)">
<path d="M8.22063 23.0052L2.83471 36.8547C2.5177 37.6699 3.32613 38.4705 4.1382 38.1456L10.9207 35.4318C11.6151 35.154 12.3882 35.1456 13.0885 35.4082L20.9877 38.3704C22.8997 39.0874 25.0296 38.9337 26.8189 37.9496L32.8793 34.6164C33.5907 34.2251 34.4374 34.164 35.1976 34.4491C36.7112 35.0167 38.3884 34.1795 38.8445 32.6286L42.2194 21.1539C42.6604 19.6547 41.8766 18.0681 40.4179 17.5073L36.5 16.0009C34.1 15.2009 28.1667 19.6676 25.5 22.0009L17.4989 20.2231C16.8513 20.0792 16.2981 19.6756 15.7294 19.334C14.2915 18.4701 12.3526 19.0217 10.8016 19.8333C9.55361 20.4864 8.73115 21.6924 8.22063 23.0052Z" fill="#D9D9D9"/>
<path d="M8.22063 23.0052L2.83471 36.8547C2.5177 37.6699 3.32613 38.4705 4.1382 38.1456L10.9207 35.4318C11.6151 35.154 12.3882 35.1456 13.0885 35.4082L20.9877 38.3704C22.8997 39.0874 25.0296 38.9337 26.8189 37.9496L32.8793 34.6164C33.5907 34.2251 34.4374 34.164 35.1976 34.4491C36.7112 35.0167 38.3884 34.1795 38.8445 32.6286L42.2194 21.1539C42.6604 19.6547 41.8766 18.0681 40.4179 17.5073L36.5 16.0009C34.1 15.2009 28.1667 19.6676 25.5 22.0009L17.4989 20.2231C16.8513 20.0792 16.2981 19.6756 15.7294 19.334C14.2915 18.4701 12.3526 19.0217 10.8016 19.8333C9.55361 20.4864 8.73115 21.6924 8.22063 23.0052Z" fill="url(#paint0_radial_4321_6161)"/>
</g>
<g filter="url(#filter1_g_4321_6161)">
<path d="M2.8415 36.8492L6.5 27.4993C18.9 27.0993 22.1667 34.8333 21.5 38.5L13.8024 35.6636C12.6421 35.2361 11.3646 35.2536 10.2166 35.7129L4.14416 38.1421C3.33119 38.4673 2.52244 37.6646 2.8415 36.8492Z" fill="url(#paint1_radial_4321_6161)"/>
</g>
<g filter="url(#filter2_g_4321_6161)">
<path d="M22.5 39L11.5 35L16 19.5L24.75 22.6836L31.75 17.1836L22.5 39Z" fill="black" fill-opacity="0.08"/>
</g>
<g filter="url(#filter3_g_4321_6161)">
<path d="M24 5C26.1167 5 27.9796 5.76759 29.5879 7.30273C31.1961 8.83784 32 10.8992 32 13.4863C32 14.2625 31.8542 15.0778 31.5625 15.9316C31.2708 16.7854 30.8454 17.6739 30.2871 18.5967C29.7289 19.5193 29.0333 20.4721 28.2002 21.4551C27.3669 22.4382 26.4085 23.4475 25.3252 24.4824C25.1419 24.6549 24.9335 24.7848 24.7002 24.8711C24.4669 24.9573 24.2333 25 24 25C23.7667 25 23.5331 24.9573 23.2998 24.8711C23.0665 24.7848 22.8581 24.6549 22.6748 24.4824C21.5915 23.4475 20.6331 22.4382 19.7998 21.4551C18.9667 20.4721 18.2711 19.5193 17.7129 18.5967C17.1546 17.6739 16.7292 16.7854 16.4375 15.9316C16.1458 15.0778 16 14.2625 16 13.4863C16 10.8992 16.8039 8.83784 18.4121 7.30273C20.0204 5.76759 21.8833 5 24 5ZM24.0498 9.7998C22.2549 9.7998 20.7999 11.255 20.7998 13.0498C20.7998 14.8447 22.2549 16.2998 24.0498 16.2998C25.8447 16.2998 27.2998 14.8447 27.2998 13.0498C27.2997 11.255 25.8447 9.7998 24.0498 9.7998Z" fill="url(#paint2_radial_4321_6161)"/>
</g>
<g filter="url(#filter4_g_4321_6161)">
<path d="M34.9995 25C30.1995 27.8 28.9994 34.0001 29.4994 36.5001L33.9994 34.0001L36.0185 34.7573C37.0939 35.1607 38.2872 34.5775 38.6298 33.4813L42.4005 21.4149C42.7627 20.256 42.3906 18.993 41.4579 18.2156L39.9994 16.9998C35.9994 15.7998 34.4995 22 34.9995 25Z" fill="url(#paint3_radial_4321_6161)"/>
</g>
<defs>
<filter id="filter0_g_4321_6161" x="2.36465" y="15.5062" width="40.3771" height="23.7102" filterUnits="userSpaceOnUse" color-interpolation-filters="sRGB">
<feFlood flood-opacity="0" result="BackgroundImageFix"/>
<feBlend mode="normal" in="SourceGraphic" in2="BackgroundImageFix" result="shape"/>
<feTurbulence type="fractalNoise" baseFrequency="0.76923078298568726 0.76923078298568726" numOctaves="3" seed="7701" />
<feDisplacementMap in="shape" scale="0.80000001192092896" xChannelSelector="R" yChannelSelector="G" result="displacedImage" width="100%" height="100%" />
<feMerge result="effect1_texture_4321_6161">
<feMergeNode in="displacedImage"/>
</feMerge>
</filter>
<filter id="filter1_g_4321_6161" x="2.37051" y="27.0844" width="19.6115" height="11.8156" filterUnits="userSpaceOnUse" color-interpolation-filters="sRGB">
<feFlood flood-opacity="0" result="BackgroundImageFix"/>
<feBlend mode="normal" in="SourceGraphic" in2="BackgroundImageFix" result="shape"/>
<feTurbulence type="fractalNoise" baseFrequency="0.76923078298568726 0.76923078298568726" numOctaves="3" seed="7701" />
<feDisplacementMap in="shape" scale="0.80000001192092896" xChannelSelector="R" yChannelSelector="G" result="displacedImage" width="100%" height="100%" />
<feMerge result="effect1_texture_4321_6161">
<feMergeNode in="displacedImage"/>
</feMerge>
</filter>
<filter id="filter2_g_4321_6161" x="11.1" y="16.7836" width="21.05" height="22.6164" filterUnits="userSpaceOnUse" color-interpolation-filters="sRGB">
<feFlood flood-opacity="0" result="BackgroundImageFix"/>
<feBlend mode="normal" in="SourceGraphic" in2="BackgroundImageFix" result="shape"/>
<feTurbulence type="fractalNoise" baseFrequency="0.76923078298568726 0.76923078298568726" numOctaves="3" seed="7701" />
<feDisplacementMap in="shape" scale="0.80000001192092896" xChannelSelector="R" yChannelSelector="G" result="displacedImage" width="100%" height="100%" />
<feMerge result="effect1_texture_4321_6161">
<feMergeNode in="displacedImage"/>
</feMerge>
</filter>
<filter id="filter3_g_4321_6161" x="15.6" y="4.6" width="16.8" height="20.8" filterUnits="userSpaceOnUse" color-interpolation-filters="sRGB">
<feFlood flood-opacity="0" result="BackgroundImageFix"/>
<feBlend mode="normal" in="SourceGraphic" in2="BackgroundImageFix" result="shape"/>
<feTurbulence type="fractalNoise" baseFrequency="0.76923078298568726 0.76923078298568726" numOctaves="3" seed="7701" />
<feDisplacementMap in="shape" scale="0.80000001192092896" xChannelSelector="R" yChannelSelector="G" result="displacedImage" width="100%" height="100%" />
<feMerge result="effect1_texture_4321_6161">
<feMergeNode in="displacedImage"/>
</feMerge>
</filter>
<filter id="filter4_g_4321_6161" x="28.9945" y="16.4477" width="13.9426" height="20.4523" filterUnits="userSpaceOnUse" color-interpolation-filters="sRGB">
<feFlood flood-opacity="0" result="BackgroundImageFix"/>
<feBlend mode="normal" in="SourceGraphic" in2="BackgroundImageFix" result="shape"/>
<feTurbulence type="fractalNoise" baseFrequency="0.76923078298568726 0.76923078298568726" numOctaves="3" seed="7701" />
<feDisplacementMap in="shape" scale="0.80000001192092896" xChannelSelector="R" yChannelSelector="G" result="displacedImage" width="100%" height="100%" />
<feMerge result="effect1_texture_4321_6161">
<feMergeNode in="displacedImage"/>
</feMerge>
</filter>
<radialGradient id="paint0_radial_4321_6161" cx="0" cy="0" r="1" gradientUnits="userSpaceOnUse" gradientTransform="translate(22.5 27.7031) rotate(91.6093) scale(17.8039 47.2403)">
<stop stop-color="#00CB89"/>
<stop offset="1" stop-color="#D3F8EC"/>
</radialGradient>
<radialGradient id="paint1_radial_4321_6161" cx="0" cy="0" r="1" gradientUnits="userSpaceOnUse" gradientTransform="translate(11.5 32.5) rotate(88.413) scale(10.504 14.9787)">
<stop stop-color="#569DEE"/>
<stop offset="1" stop-color="#BADAFF"/>
</radialGradient>
<radialGradient id="paint2_radial_4321_6161" cx="0" cy="0" r="1" gradientUnits="userSpaceOnUse" gradientTransform="translate(24 14.5) rotate(90) scale(45.5 15.4938)">
<stop stop-color="#FB6A59"/>
<stop offset="1" stop-color="#FFE4E4"/>
</radialGradient>
<radialGradient id="paint3_radial_4321_6161" cx="0" cy="0" r="1" gradientUnits="userSpaceOnUse" gradientTransform="translate(36.4995 26.5) rotate(90.3352) scale(15.983 14.4692)">
<stop stop-color="#569DEE"/>
<stop offset="1" stop-color="#BADAFF"/>
</radialGradient>
</defs>
</svg>
