<svg width="44" height="44" viewBox="0 0 44 44" fill="none" xmlns="http://www.w3.org/2000/svg">
<g clip-path="url(#clip0_4358_11030)">
<g filter="url(#filter0_g_4358_11030)">
<path d="M6.14824 24.4882C10.7524 28.1965 17.1152 30.0433 19.7896 30.0317C20.2028 30.0299 20.5923 29.8753 20.9347 29.644C26.1532 26.1191 29.2599 19.9136 29.9356 16.7749C31.3545 8.91715 26.9499 4.55164 23.1782 3.87054C18.4636 3.01918 14.7834 7.22299 14.5869 10.1085C12.5005 7.73235 8.24339 7.9757 6.78597 8.37551C-0.327423 10.7909 -0.0854577 19.4676 6.14824 24.4882Z" fill="#D9D9D9"/>
<path d="M6.14824 24.4882C10.7524 28.1965 17.1152 30.0433 19.7896 30.0317C20.2028 30.0299 20.5923 29.8753 20.9347 29.644C26.1532 26.1191 29.2599 19.9136 29.9356 16.7749C31.3545 8.91715 26.9499 4.55164 23.1782 3.87054C18.4636 3.01918 14.7834 7.22299 14.5869 10.1085C12.5005 7.73235 8.24339 7.9757 6.78597 8.37551C-0.327423 10.7909 -0.0854577 19.4676 6.14824 24.4882Z" fill="url(#paint0_radial_4358_11030)"/>
</g>
<g filter="url(#filter1_g_4358_11030)">
<path d="M17.3251 28.992C18.4388 34.3378 21.3338 38.3095 23.2192 39.6509C23.5377 39.8775 23.9225 39.9789 24.3132 39.9922C30.2112 40.1933 36.0844 36.4406 38.3444 34.4754C44.437 28.3828 41.6953 23.6103 39.5629 21.9856C36.3948 19.7923 32.3534 21.4779 30.7287 22.5949C30.485 19.6704 27.784 17.9238 26.4639 17.4161C19.7621 15.2837 15.8019 21.6809 17.3251 28.992Z" fill="#D9D9D9"/>
<path d="M17.3251 28.992C18.4388 34.3378 21.3338 38.3095 23.2192 39.6509C23.5377 39.8775 23.9225 39.9789 24.3132 39.9922C30.2112 40.1933 36.0844 36.4406 38.3444 34.4754C44.437 28.3828 41.6953 23.6103 39.5629 21.9856C36.3948 19.7923 32.3534 21.4779 30.7287 22.5949C30.485 19.6704 27.784 17.9238 26.4639 17.4161C19.7621 15.2837 15.8019 21.6809 17.3251 28.992Z" fill="url(#paint1_radial_4358_11030)"/>
</g>
</g>
<defs>
<filter id="filter0_g_4358_11030" x="0.92756" y="3.22639" width="29.8138" height="27.3382" filterUnits="userSpaceOnUse" color-interpolation-filters="sRGB">
<feFlood flood-opacity="0" result="BackgroundImageFix"/>
<feBlend mode="normal" in="SourceGraphic" in2="BackgroundImageFix" result="shape"/>
<feTurbulence type="fractalNoise" baseFrequency="0.5818483829498291 0.5818483829498291" numOctaves="3" seed="7701" />
<feDisplacementMap in="shape" scale="1.0667546987533569" xChannelSelector="R" yChannelSelector="G" result="displacedImage" width="100%" height="100%" />
<feMerge result="effect1_texture_4358_11030">
<feMergeNode in="displacedImage"/>
</feMerge>
</filter>
<filter id="filter1_g_4358_11030" x="16.4913" y="16.4913" width="26.0809" height="24.0174" filterUnits="userSpaceOnUse" color-interpolation-filters="sRGB">
<feFlood flood-opacity="0" result="BackgroundImageFix"/>
<feBlend mode="normal" in="SourceGraphic" in2="BackgroundImageFix" result="shape"/>
<feTurbulence type="fractalNoise" baseFrequency="0.61004602909088135 0.61004602909088135" numOctaves="3" seed="7701" />
<feDisplacementMap in="shape" scale="1.0174469947814941" xChannelSelector="R" yChannelSelector="G" result="displacedImage" width="100%" height="100%" />
<feMerge result="effect1_texture_4358_11030">
<feMergeNode in="displacedImage"/>
</feMerge>
</filter>
<radialGradient id="paint0_radial_4358_11030" cx="0" cy="0" r="1" gradientUnits="userSpaceOnUse" gradientTransform="translate(17.6294 22.6666) rotate(86.0294) scale(26.028 31.5301)">
<stop stop-color="#EB4432"/>
<stop offset="1" stop-color="#FFDDD9"/>
</radialGradient>
<radialGradient id="paint1_radial_4358_11030" cx="0" cy="0" r="1" gradientTransform="matrix(1.21851 17.3638 -24.8373 1.07894 26.5739 32.9523)" gradientUnits="userSpaceOnUse">
<stop stop-color="#569DEE"/>
<stop offset="1" stop-color="#BADAFF"/>
</radialGradient>
<clipPath id="clip0_4358_11030">
<rect width="44" height="44" fill="white"/>
</clipPath>
</defs>
</svg>
