<svg width="177" height="110" viewBox="0 0 183 130" fill="none" xmlns="http://www.w3.org/2000/svg">
<g filter="url(#filter0_f_4333_2767)">
<path d="M157.1 64.5996C157.1 104.1 157.1 104.1 91.0996 104.1C35.3932 104.1 25.0996 104.1 25.0996 64.5996C25.0996 30.1269 34.7877 25.0996 91.0996 25.0996C144.99 25.0996 157.1 25.0996 157.1 64.5996Z" fill="url(#paint0_radial_4333_2767)" fill-opacity="0.3"/>
</g>
<g filter="url(#filter1_d_4333_2767)">
<path d="M131.393 72.6345C131.91 71.2423 133.88 71.2423 134.398 72.6345L135.877 76.614C137.323 80.5033 140.221 83.6805 143.962 85.4763L147.514 87.1812C148.725 87.7632 148.725 89.4882 147.514 90.0702L143.962 91.7751C140.221 93.5709 137.323 96.7481 135.877 100.637L134.398 104.617C133.88 106.009 131.91 106.009 131.393 104.617L129.914 100.637C128.468 96.7482 125.569 93.571 121.828 91.7751L118.276 90.0702C117.064 89.4884 117.064 87.763 118.276 87.1812L121.828 85.4763C125.569 83.6804 128.468 80.5033 129.914 76.614L131.393 72.6345Z" fill="url(#paint1_radial_4333_2767)"/>
<path d="M148.013 64.7589C148.314 63.9032 149.526 63.9033 149.827 64.7589L150.659 67.123C151.07 68.2905 151.916 69.2548 153.019 69.8147L155.241 70.9418C155.943 71.298 155.943 72.3009 155.241 72.6569L153.019 73.782C151.916 74.3417 151.07 75.3062 150.659 76.4736L149.827 78.8377C149.526 79.694 148.314 79.694 148.013 78.8377L147.18 76.4736C146.769 75.3061 145.924 74.3417 144.82 73.782L142.599 72.6569C141.897 72.3009 141.897 71.2981 142.599 70.9418L144.82 69.8147C145.924 69.2549 146.769 68.2906 147.18 67.123L148.013 64.7589Z" fill="url(#paint2_radial_4333_2767)"/>
</g>
<defs>
<filter id="filter0_f_4333_2767" x="-0.000391006" y="-0.000391006" width="182.2" height="129.2" filterUnits="userSpaceOnUse" color-interpolation-filters="sRGB">
<feFlood flood-opacity="0" result="BackgroundImageFix"/>
<feBlend mode="normal" in="SourceGraphic" in2="BackgroundImageFix" result="shape"/>
<feGaussianBlur stdDeviation="12.55" result="effect1_foregroundBlur_4333_2767"/>
</filter>
<filter id="filter1_d_4333_2767" x="112.767" y="59.5172" width="47.6004" height="50.743" filterUnits="userSpaceOnUse" color-interpolation-filters="sRGB">
<feFlood flood-opacity="0" result="BackgroundImageFix"/>
<feColorMatrix in="SourceAlpha" type="matrix" values="0 0 0 0 0 0 0 0 0 0 0 0 0 0 0 0 0 0 127 0" result="hardAlpha"/>
<feOffset/>
<feGaussianBlur stdDeviation="2.3"/>
<feComposite in2="hardAlpha" operator="out"/>
<feColorMatrix type="matrix" values="0 0 0 0 1 0 0 0 0 0.685096 0 0 0 0 0.370192 0 0 0 0.28 0"/>
<feBlend mode="normal" in2="BackgroundImageFix" result="effect1_dropShadow_4333_2767"/>
<feBlend mode="normal" in="SourceGraphic" in2="effect1_dropShadow_4333_2767" result="shape"/>
</filter>
<radialGradient id="paint0_radial_4333_2767" cx="0" cy="0" r="1" gradientTransform="matrix(61.156 79 -132 143.754 57.7969 39.4632)" gradientUnits="userSpaceOnUse">
<stop stop-color="#FFCF84"/>
<stop offset="1" stop-color="#FF8CA5"/>
</radialGradient>
<radialGradient id="paint1_radial_4333_2767" cx="0" cy="0" r="1" gradientUnits="userSpaceOnUse" gradientTransform="translate(123.6 79.5996) rotate(39.1933) scale(41.9345 64.4548)">
<stop stop-color="#FFB18D"/>
<stop offset="0.375753" stop-color="#FF8648"/>
<stop offset="1" stop-color="#E24502"/>
</radialGradient>
<radialGradient id="paint2_radial_4333_2767" cx="0" cy="0" r="1" gradientUnits="userSpaceOnUse" gradientTransform="translate(123.6 79.5996) rotate(39.1933) scale(41.9345 64.4548)">
<stop stop-color="#FFB18D"/>
<stop offset="0.375753" stop-color="#FF8648"/>
<stop offset="1" stop-color="#E24502"/>
</radialGradient>
</defs>
</svg>
