<svg width="44" height="44" viewBox="0 0 44 44" fill="none" xmlns="http://www.w3.org/2000/svg">
<g filter="url(#filter0_g_4351_10873)">
<path d="M26.3283 10.5522C18.3622 13.0036 8.80595 20.1869 5 23L37.8939 20.6164C38.6334 20.5628 39.0548 19.7521 38.635 19.1409C34.7175 13.4373 29.1106 10.7868 26.6779 10.516C26.5589 10.5027 26.4427 10.517 26.3283 10.5522Z" fill="#D9D9D9"/>
<path d="M26.3283 10.5522C18.3622 13.0036 8.80595 20.1869 5 23L37.8939 20.6164C38.6334 20.5628 39.0548 19.7521 38.635 19.1409C34.7175 13.4373 29.1106 10.7868 26.6779 10.516C26.5589 10.5027 26.4427 10.517 26.3283 10.5522Z" fill="url(#paint0_radial_4351_10873)"/>
</g>
<g filter="url(#filter1_g_4351_10873)">
<path d="M5.09078 22.9985L6.41082 37.519C6.46029 38.0632 6.93739 38.4669 7.48225 38.4256L37.5958 36.1443C38.6614 36.0635 39.4753 35.1594 39.4439 34.0912L39.0935 22.1798C39.0428 20.4546 37.5504 19.1279 35.8311 19.2796L5.99878 21.9119C5.4476 21.9605 5.04068 22.4475 5.09078 22.9985Z" fill="#D9D9D9"/>
<path d="M5.09078 22.9985L6.41082 37.519C6.46029 38.0632 6.93739 38.4669 7.48225 38.4256L37.5958 36.1443C38.6614 36.0635 39.4753 35.1594 39.4439 34.0912L39.0935 22.1798C39.0428 20.4546 37.5504 19.1279 35.8311 19.2796L5.99878 21.9119C5.4476 21.9605 5.04068 22.4475 5.09078 22.9985Z" fill="url(#paint1_radial_4351_10873)"/>
</g>
<g filter="url(#filter2_g_4351_10873)">
<path d="M35.5145 21.5782L6.00836 23.92C5.45334 23.964 5.04117 24.4529 5.09158 25.0074L5.4105 28.5155C5.46009 29.061 5.93941 29.4651 6.48551 29.4218L35.9916 27.08C36.5467 27.036 36.9588 26.5471 36.9084 25.9926L36.5895 22.4845C36.5399 21.939 36.0606 21.5349 35.5145 21.5782Z" fill="url(#paint2_radial_4351_10873)"/>
</g>
<g filter="url(#filter3_g_4351_10873)">
<path d="M35.5078 26.596L6.49854 29.4034C5.94758 29.4567 5.54474 29.9474 5.59982 30.4982L5.90081 33.5081C5.95564 34.0564 6.4437 34.4571 6.99218 34.404L36.0015 31.5966C36.5524 31.5433 36.9553 31.0526 36.9002 30.5018L36.5992 27.4919C36.5444 26.9436 36.0563 26.5429 35.5078 26.596Z" fill="#D9D9D9"/>
<path d="M35.5078 26.596L6.49854 29.4034C5.94758 29.4567 5.54474 29.9474 5.59982 30.4982L5.90081 33.5081C5.95564 34.0564 6.4437 34.4571 6.99218 34.404L36.0015 31.5966C36.5524 31.5433 36.9553 31.0526 36.9002 30.5018L36.5992 27.4919C36.5444 26.9436 36.0563 26.5429 35.5078 26.596Z" fill="url(#paint3_radial_4351_10873)"/>
</g>
<g filter="url(#filter4_g_4351_10873)">
<path d="M35.9037 31.6061L7.12506 34.3911C6.52722 34.449 6.11491 35.0171 6.2452 35.6034L6.81064 38.1479C6.91912 38.6361 7.37153 38.969 7.86987 38.9275L36.083 36.5764C36.6013 36.5332 37 36.1 37 35.5799V32.6014C37 32.0111 36.4913 31.5492 35.9037 31.6061Z" fill="url(#paint4_radial_4351_10873)"/>
</g>
<g filter="url(#filter5_g_4351_10873)">
<path d="M15.0064 32.5419L9.45803 32.9687C9.22116 32.9869 8.9989 32.8344 9.00002 32.5968C9.0058 31.3679 10.2613 29.5 12.0509 29.5C14.4107 29.5 15.1606 30.9206 15.4379 31.9659C15.5131 32.2496 15.2991 32.5194 15.0064 32.5419Z" fill="#D9D9D9"/>
<path d="M15.0064 32.5419L9.45803 32.9687C9.22116 32.9869 8.9989 32.8344 9.00002 32.5968C9.0058 31.3679 10.2613 29.5 12.0509 29.5C14.4107 29.5 15.1606 30.9206 15.4379 31.9659C15.5131 32.2496 15.2991 32.5194 15.0064 32.5419Z" fill="url(#paint5_radial_4351_10873)"/>
</g>
<g filter="url(#filter6_g_4351_10873)">
<path d="M24.0064 31.7411L18.458 32.1679C18.2212 32.1861 17.9989 32.0336 18 31.796C18.0058 30.5671 19.2613 28.6992 21.0509 28.6992C23.4107 28.6992 24.1606 30.1198 24.4379 31.1651C24.5131 31.4488 24.2991 31.7186 24.0064 31.7411Z" fill="#D9D9D9"/>
<path d="M24.0064 31.7411L18.458 32.1679C18.2212 32.1861 17.9989 32.0336 18 31.796C18.0058 30.5671 19.2613 28.6992 21.0509 28.6992C23.4107 28.6992 24.1606 30.1198 24.4379 31.1651C24.5131 31.4488 24.2991 31.7186 24.0064 31.7411Z" fill="url(#paint6_radial_4351_10873)"/>
<path d="M24.0064 31.7411L18.458 32.1679C18.2212 32.1861 17.9989 32.0336 18 31.796C18.0058 30.5671 19.2613 28.6992 21.0509 28.6992C23.4107 28.6992 24.1606 30.1198 24.4379 31.1651C24.5131 31.4488 24.2991 31.7186 24.0064 31.7411Z" fill="url(#paint7_radial_4351_10873)"/>
</g>
<g filter="url(#filter7_g_4351_10873)">
<path d="M33.0064 31.0419L27.458 31.4687C27.2212 31.4869 26.9989 31.3344 27 31.0968C27.0058 29.8679 28.2613 28 30.0509 28C32.4107 28 33.1606 29.4206 33.4379 30.4659C33.5131 30.7496 33.2991 31.0194 33.0064 31.0419Z" fill="#D9D9D9"/>
<path d="M33.0064 31.0419L27.458 31.4687C27.2212 31.4869 26.9989 31.3344 27 31.0968C27.0058 29.8679 28.2613 28 30.0509 28C32.4107 28 33.1606 29.4206 33.4379 30.4659C33.5131 30.7496 33.2991 31.0194 33.0064 31.0419Z" fill="url(#paint8_radial_4351_10873)"/>
<path d="M33.0064 31.0419L27.458 31.4687C27.2212 31.4869 26.9989 31.3344 27 31.0968C27.0058 29.8679 28.2613 28 30.0509 28C32.4107 28 33.1606 29.4206 33.4379 30.4659C33.5131 30.7496 33.2991 31.0194 33.0064 31.0419Z" fill="url(#paint9_radial_4351_10873)"/>
</g>
<g filter="url(#filter8_g_4351_10873)">
<path d="M21.3377 19.5C13.3319 18.6573 15.6234 12.1329 19.8341 7.40828C21.1608 5.91968 23.4558 5.98445 24.8052 7.45253C28.6562 11.6423 28.1957 13.4416 28.3374 15C28.7267 19.2818 23.8377 19.6667 21.3377 19.5Z" fill="#D9D9D9"/>
<path d="M21.3377 19.5C13.3319 18.6573 15.6234 12.1329 19.8341 7.40828C21.1608 5.91968 23.4558 5.98445 24.8052 7.45253C28.6562 11.6423 28.1957 13.4416 28.3374 15C28.7267 19.2818 23.8377 19.6667 21.3377 19.5Z" fill="url(#paint10_radial_4351_10873)"/>
</g>
<g filter="url(#filter9_g_4351_10873)">
<circle cx="19.5" cy="12.5" r="0.5" fill="#FF8274"/>
</g>
<g filter="url(#filter10_g_4351_10873)">
<circle cx="21.5" cy="9.5" r="0.5" fill="#FF8274"/>
</g>
<g filter="url(#filter11_g_4351_10873)">
<circle cx="23.5" cy="11.5" r="0.5" fill="#FF8274"/>
</g>
<g filter="url(#filter12_g_4351_10873)">
<circle cx="22.5" cy="13.5" r="0.5" fill="#FF8274"/>
</g>
<g filter="url(#filter13_g_4351_10873)">
<circle cx="18.5" cy="15.5" r="0.5" fill="#FF8274"/>
</g>
<g filter="url(#filter14_g_4351_10873)">
<circle cx="22.5" cy="16.5" r="0.5" fill="#FF8274"/>
</g>
<g filter="url(#filter15_g_4351_10873)">
<circle cx="25.5" cy="14.5" r="0.5" fill="#FF8274"/>
</g>
<defs>
<filter id="filter0_g_4351_10873" x="4.6" y="10.1117" width="34.6018" height="13.2883" filterUnits="userSpaceOnUse" color-interpolation-filters="sRGB">
<feFlood flood-opacity="0" result="BackgroundImageFix"/>
<feBlend mode="normal" in="SourceGraphic" in2="BackgroundImageFix" result="shape"/>
<feTurbulence type="fractalNoise" baseFrequency="0.55555558204650879 0.55555558204650879" numOctaves="3" seed="7701" />
<feDisplacementMap in="shape" scale="0.80000001192092896" xChannelSelector="R" yChannelSelector="G" result="displacedImage" width="100%" height="100%" />
<feMerge result="effect1_texture_4351_10873">
<feMergeNode in="displacedImage"/>
</feMerge>
</filter>
<filter id="filter1_g_4351_10873" x="4.68691" y="18.8676" width="35.1574" height="19.9602" filterUnits="userSpaceOnUse" color-interpolation-filters="sRGB">
<feFlood flood-opacity="0" result="BackgroundImageFix"/>
<feBlend mode="normal" in="SourceGraphic" in2="BackgroundImageFix" result="shape"/>
<feTurbulence type="fractalNoise" baseFrequency="0.55555558204650879 0.55555558204650879" numOctaves="3" seed="7701" />
<feDisplacementMap in="shape" scale="0.80000001192092896" xChannelSelector="R" yChannelSelector="G" result="displacedImage" width="100%" height="100%" />
<feMerge result="effect1_texture_4351_10873">
<feMergeNode in="displacedImage"/>
</feMerge>
</filter>
<filter id="filter2_g_4351_10873" x="4.68789" y="21.1742" width="32.6242" height="8.65156" filterUnits="userSpaceOnUse" color-interpolation-filters="sRGB">
<feFlood flood-opacity="0" result="BackgroundImageFix"/>
<feBlend mode="normal" in="SourceGraphic" in2="BackgroundImageFix" result="shape"/>
<feTurbulence type="fractalNoise" baseFrequency="0.55555558204650879 0.55555558204650879" numOctaves="3" seed="7701" />
<feDisplacementMap in="shape" scale="0.80000001192092896" xChannelSelector="R" yChannelSelector="G" result="displacedImage" width="100%" height="100%" />
<feMerge result="effect1_texture_4351_10873">
<feMergeNode in="displacedImage"/>
</feMerge>
</filter>
<filter id="filter3_g_4351_10873" x="5.19473" y="26.1918" width="32.1105" height="8.61641" filterUnits="userSpaceOnUse" color-interpolation-filters="sRGB">
<feFlood flood-opacity="0" result="BackgroundImageFix"/>
<feBlend mode="normal" in="SourceGraphic" in2="BackgroundImageFix" result="shape"/>
<feTurbulence type="fractalNoise" baseFrequency="0.55555558204650879 0.55555558204650879" numOctaves="3" seed="7701" />
<feDisplacementMap in="shape" scale="0.80000001192092896" xChannelSelector="R" yChannelSelector="G" result="displacedImage" width="100%" height="100%" />
<feMerge result="effect1_texture_4351_10873">
<feMergeNode in="displacedImage"/>
</feMerge>
</filter>
<filter id="filter4_g_4351_10873" x="5.8207" y="31.2016" width="31.5793" height="8.13008" filterUnits="userSpaceOnUse" color-interpolation-filters="sRGB">
<feFlood flood-opacity="0" result="BackgroundImageFix"/>
<feBlend mode="normal" in="SourceGraphic" in2="BackgroundImageFix" result="shape"/>
<feTurbulence type="fractalNoise" baseFrequency="0.55555558204650879 0.55555558204650879" numOctaves="3" seed="7701" />
<feDisplacementMap in="shape" scale="0.80000001192092896" xChannelSelector="R" yChannelSelector="G" result="displacedImage" width="100%" height="100%" />
<feMerge result="effect1_texture_4351_10873">
<feMergeNode in="displacedImage"/>
</feMerge>
</filter>
<filter id="filter5_g_4351_10873" x="8.6" y="29.1" width="7.25313" height="4.2707" filterUnits="userSpaceOnUse" color-interpolation-filters="sRGB">
<feFlood flood-opacity="0" result="BackgroundImageFix"/>
<feBlend mode="normal" in="SourceGraphic" in2="BackgroundImageFix" result="shape"/>
<feTurbulence type="fractalNoise" baseFrequency="0.55555558204650879 0.55555558204650879" numOctaves="3" seed="7701" />
<feDisplacementMap in="shape" scale="0.80000001192092896" xChannelSelector="R" yChannelSelector="G" result="displacedImage" width="100%" height="100%" />
<feMerge result="effect1_texture_4351_10873">
<feMergeNode in="displacedImage"/>
</feMerge>
</filter>
<filter id="filter6_g_4351_10873" x="17.6" y="28.2992" width="7.25313" height="4.2707" filterUnits="userSpaceOnUse" color-interpolation-filters="sRGB">
<feFlood flood-opacity="0" result="BackgroundImageFix"/>
<feBlend mode="normal" in="SourceGraphic" in2="BackgroundImageFix" result="shape"/>
<feTurbulence type="fractalNoise" baseFrequency="0.55555558204650879 0.55555558204650879" numOctaves="3" seed="7701" />
<feDisplacementMap in="shape" scale="0.80000001192092896" xChannelSelector="R" yChannelSelector="G" result="displacedImage" width="100%" height="100%" />
<feMerge result="effect1_texture_4351_10873">
<feMergeNode in="displacedImage"/>
</feMerge>
</filter>
<filter id="filter7_g_4351_10873" x="26.6" y="27.6" width="7.25313" height="4.2707" filterUnits="userSpaceOnUse" color-interpolation-filters="sRGB">
<feFlood flood-opacity="0" result="BackgroundImageFix"/>
<feBlend mode="normal" in="SourceGraphic" in2="BackgroundImageFix" result="shape"/>
<feTurbulence type="fractalNoise" baseFrequency="0.55555558204650879 0.55555558204650879" numOctaves="3" seed="7701" />
<feDisplacementMap in="shape" scale="0.80000001192092896" xChannelSelector="R" yChannelSelector="G" result="displacedImage" width="100%" height="100%" />
<feMerge result="effect1_texture_4351_10873">
<feMergeNode in="displacedImage"/>
</feMerge>
</filter>
<filter id="filter8_g_4351_10873" x="15.6" y="5.92031" width="13.1594" height="14.0109" filterUnits="userSpaceOnUse" color-interpolation-filters="sRGB">
<feFlood flood-opacity="0" result="BackgroundImageFix"/>
<feBlend mode="normal" in="SourceGraphic" in2="BackgroundImageFix" result="shape"/>
<feTurbulence type="fractalNoise" baseFrequency="0.55555558204650879 0.55555558204650879" numOctaves="3" seed="7701" />
<feDisplacementMap in="shape" scale="0.80000001192092896" xChannelSelector="R" yChannelSelector="G" result="displacedImage" width="100%" height="100%" />
<feMerge result="effect1_texture_4351_10873">
<feMergeNode in="displacedImage"/>
</feMerge>
</filter>
<filter id="filter9_g_4351_10873" x="18.6371" y="11.6371" width="1.72582" height="1.72582" filterUnits="userSpaceOnUse" color-interpolation-filters="sRGB">
<feFlood flood-opacity="0" result="BackgroundImageFix"/>
<feBlend mode="normal" in="SourceGraphic" in2="BackgroundImageFix" result="shape"/>
<feTurbulence type="fractalNoise" baseFrequency="0.42942783236503601 0.42942783236503601" numOctaves="3" seed="7701" />
<feDisplacementMap in="shape" scale="0.72582238912582397" xChannelSelector="R" yChannelSelector="G" result="displacedImage" width="100%" height="100%" />
<feMerge result="effect1_texture_4351_10873">
<feMergeNode in="displacedImage"/>
</feMerge>
</filter>
<filter id="filter10_g_4351_10873" x="20.6371" y="8.63709" width="1.72582" height="1.72582" filterUnits="userSpaceOnUse" color-interpolation-filters="sRGB">
<feFlood flood-opacity="0" result="BackgroundImageFix"/>
<feBlend mode="normal" in="SourceGraphic" in2="BackgroundImageFix" result="shape"/>
<feTurbulence type="fractalNoise" baseFrequency="0.42942783236503601 0.42942783236503601" numOctaves="3" seed="7701" />
<feDisplacementMap in="shape" scale="0.72582238912582397" xChannelSelector="R" yChannelSelector="G" result="displacedImage" width="100%" height="100%" />
<feMerge result="effect1_texture_4351_10873">
<feMergeNode in="displacedImage"/>
</feMerge>
</filter>
<filter id="filter11_g_4351_10873" x="22.6371" y="10.6371" width="1.72582" height="1.72582" filterUnits="userSpaceOnUse" color-interpolation-filters="sRGB">
<feFlood flood-opacity="0" result="BackgroundImageFix"/>
<feBlend mode="normal" in="SourceGraphic" in2="BackgroundImageFix" result="shape"/>
<feTurbulence type="fractalNoise" baseFrequency="0.42942783236503601 0.42942783236503601" numOctaves="3" seed="7701" />
<feDisplacementMap in="shape" scale="0.72582238912582397" xChannelSelector="R" yChannelSelector="G" result="displacedImage" width="100%" height="100%" />
<feMerge result="effect1_texture_4351_10873">
<feMergeNode in="displacedImage"/>
</feMerge>
</filter>
<filter id="filter12_g_4351_10873" x="21.6371" y="12.6371" width="1.72582" height="1.72582" filterUnits="userSpaceOnUse" color-interpolation-filters="sRGB">
<feFlood flood-opacity="0" result="BackgroundImageFix"/>
<feBlend mode="normal" in="SourceGraphic" in2="BackgroundImageFix" result="shape"/>
<feTurbulence type="fractalNoise" baseFrequency="0.42942783236503601 0.42942783236503601" numOctaves="3" seed="7701" />
<feDisplacementMap in="shape" scale="0.72582238912582397" xChannelSelector="R" yChannelSelector="G" result="displacedImage" width="100%" height="100%" />
<feMerge result="effect1_texture_4351_10873">
<feMergeNode in="displacedImage"/>
</feMerge>
</filter>
<filter id="filter13_g_4351_10873" x="17.6371" y="14.6371" width="1.72582" height="1.72582" filterUnits="userSpaceOnUse" color-interpolation-filters="sRGB">
<feFlood flood-opacity="0" result="BackgroundImageFix"/>
<feBlend mode="normal" in="SourceGraphic" in2="BackgroundImageFix" result="shape"/>
<feTurbulence type="fractalNoise" baseFrequency="0.42942783236503601 0.42942783236503601" numOctaves="3" seed="7701" />
<feDisplacementMap in="shape" scale="0.72582238912582397" xChannelSelector="R" yChannelSelector="G" result="displacedImage" width="100%" height="100%" />
<feMerge result="effect1_texture_4351_10873">
<feMergeNode in="displacedImage"/>
</feMerge>
</filter>
<filter id="filter14_g_4351_10873" x="21.6371" y="15.6371" width="1.72582" height="1.72582" filterUnits="userSpaceOnUse" color-interpolation-filters="sRGB">
<feFlood flood-opacity="0" result="BackgroundImageFix"/>
<feBlend mode="normal" in="SourceGraphic" in2="BackgroundImageFix" result="shape"/>
<feTurbulence type="fractalNoise" baseFrequency="0.42942783236503601 0.42942783236503601" numOctaves="3" seed="7701" />
<feDisplacementMap in="shape" scale="0.72582238912582397" xChannelSelector="R" yChannelSelector="G" result="displacedImage" width="100%" height="100%" />
<feMerge result="effect1_texture_4351_10873">
<feMergeNode in="displacedImage"/>
</feMerge>
</filter>
<filter id="filter15_g_4351_10873" x="24.6371" y="13.6371" width="1.72582" height="1.72582" filterUnits="userSpaceOnUse" color-interpolation-filters="sRGB">
<feFlood flood-opacity="0" result="BackgroundImageFix"/>
<feBlend mode="normal" in="SourceGraphic" in2="BackgroundImageFix" result="shape"/>
<feTurbulence type="fractalNoise" baseFrequency="0.42942783236503601 0.42942783236503601" numOctaves="3" seed="7701" />
<feDisplacementMap in="shape" scale="0.72582238912582397" xChannelSelector="R" yChannelSelector="G" result="displacedImage" width="100%" height="100%" />
<feMerge result="effect1_texture_4351_10873">
<feMergeNode in="displacedImage"/>
</feMerge>
</filter>
<radialGradient id="paint0_radial_4351_10873" cx="0" cy="0" r="1" gradientTransform="matrix(1.88889 49.925 -42.3914 2.84475 21.4603 16.6375)" gradientUnits="userSpaceOnUse">
<stop stop-color="#FBF6EC"/>
<stop offset="1" stop-color="#F2D7AB"/>
</radialGradient>
<radialGradient id="paint1_radial_4351_10873" cx="0" cy="0" r="1" gradientTransform="matrix(1.91666 84.6555 -43.0148 4.82371 21.7024 29.407)" gradientUnits="userSpaceOnUse">
<stop stop-color="#FDEED6"/>
<stop offset="1" stop-color="#F3CD8B"/>
</radialGradient>
<radialGradient id="paint2_radial_4351_10873" cx="0" cy="0" r="1" gradientUnits="userSpaceOnUse" gradientTransform="translate(36 25) rotate(173.774) scale(55.3263 7.85814)">
<stop offset="0.163462" stop-color="#FFBF21"/>
<stop offset="1" stop-color="#FFF9E5"/>
</radialGradient>
<radialGradient id="paint3_radial_4351_10873" cx="0" cy="0" r="1" gradientUnits="userSpaceOnUse" gradientTransform="translate(20.75 30.7695) rotate(87.1154) scale(34.7745 39.3242)">
<stop stop-color="#FDEED6"/>
<stop offset="1" stop-color="#F3CD8B"/>
</radialGradient>
<radialGradient id="paint4_radial_4351_10873" cx="0" cy="0" r="1" gradientUnits="userSpaceOnUse" gradientTransform="translate(22.5 38) rotate(-90) scale(10.5 31.0628)">
<stop offset="0.163462" stop-color="#FFBF21"/>
<stop offset="1" stop-color="#FFF9E5"/>
</radialGradient>
<radialGradient id="paint5_radial_4351_10873" cx="0" cy="0" r="1" gradientUnits="userSpaceOnUse" gradientTransform="translate(12.5 35.5) rotate(-94.7636) scale(6.0208 11.2693)">
<stop stop-color="#FFDDD9"/>
<stop offset="1" stop-color="#EB4432"/>
</radialGradient>
<radialGradient id="paint6_radial_4351_10873" cx="0" cy="0" r="1" gradientUnits="userSpaceOnUse" gradientTransform="translate(21.2755 30.4492) rotate(90) scale(2.0625 3.86044)">
<stop stop-color="#EB4432"/>
<stop offset="1" stop-color="#FFDDD9"/>
</radialGradient>
<radialGradient id="paint7_radial_4351_10873" cx="0" cy="0" r="1" gradientUnits="userSpaceOnUse" gradientTransform="translate(21.5 34.6992) rotate(-94.7636) scale(6.0208 11.2693)">
<stop stop-color="#FFDDD9"/>
<stop offset="1" stop-color="#EB4432"/>
</radialGradient>
<radialGradient id="paint8_radial_4351_10873" cx="0" cy="0" r="1" gradientUnits="userSpaceOnUse" gradientTransform="translate(30.2755 29.75) rotate(90) scale(2.0625 3.86044)">
<stop stop-color="#EB4432"/>
<stop offset="1" stop-color="#FFDDD9"/>
</radialGradient>
<radialGradient id="paint9_radial_4351_10873" cx="0" cy="0" r="1" gradientUnits="userSpaceOnUse" gradientTransform="translate(30.5 34) rotate(-94.7636) scale(6.0208 11.2693)">
<stop stop-color="#FFDDD9"/>
<stop offset="1" stop-color="#EB4432"/>
</radialGradient>
<radialGradient id="paint10_radial_4351_10873" cx="0" cy="0" r="1" gradientUnits="userSpaceOnUse" gradientTransform="translate(22 19.5) rotate(-88.3634) scale(17.5071 39.8691)">
<stop stop-color="#EB4432"/>
<stop offset="1" stop-color="#FFDDD9"/>
</radialGradient>
</defs>
</svg>
