<svg width="44" height="44" viewBox="0 0 44 44" fill="none" xmlns="http://www.w3.org/2000/svg">
<g filter="url(#filter0_g_4358_11028)">
<path d="M4.83887 19.1738C4.83887 18.3886 5.19937 17.6469 5.81679 17.1617L16.728 8.58865C17.639 7.87286 18.9173 7.8585 19.8442 8.55365L31.3226 17.1625C31.9669 17.6457 32.3461 18.4041 32.3461 19.2095V34.5624C32.3461 35.9756 31.2005 37.1212 29.7873 37.1212H7.39768C5.98448 37.1212 4.83887 35.9756 4.83887 34.5624V19.1738Z" fill="#D9D9D9"/>
<path d="M4.83887 19.1738C4.83887 18.3886 5.19937 17.6469 5.81679 17.1617L16.728 8.58865C17.639 7.87286 18.9173 7.8585 19.8442 8.55365L31.3226 17.1625C31.9669 17.6457 32.3461 18.4041 32.3461 19.2095V34.5624C32.3461 35.9756 31.2005 37.1212 29.7873 37.1212H7.39768C5.98448 37.1212 4.83887 35.9756 4.83887 34.5624V19.1738Z" fill="url(#paint0_radial_4358_11028)"/>
</g>
<g filter="url(#filter1_g_4358_11028)">
<rect x="25.9482" y="6.41602" width="6.39703" height="10.2353" rx="1.91911" fill="#D9D9D9"/>
<rect x="25.9482" y="6.41602" width="6.39703" height="10.2353" rx="1.91911" fill="url(#paint1_radial_4358_11028)"/>
<rect x="25.9482" y="6.41602" width="6.39703" height="10.2353" rx="1.91911" fill="url(#paint2_radial_4358_11028)"/>
</g>
<g filter="url(#filter2_g_4358_11028)">
<path d="M15.7999 4.90989C17.2179 3.70672 19.3006 3.69558 20.7314 4.88365L20.8719 5.00609L35.0322 17.9613C36.0748 18.9153 36.1467 20.5339 35.1928 21.5765C34.2388 22.6191 32.6202 22.691 31.5776 21.7371L19.163 10.3789C18.6702 9.92808 17.9135 9.93215 17.4256 10.3883L5.30601 21.7183C4.27365 22.6834 2.65461 22.6289 1.68956 21.5965C0.724529 20.5642 0.779047 18.9451 1.81138 17.9801L15.66 5.03421L15.7999 4.90989Z" fill="black"/>
<path d="M15.7999 4.90989C17.2179 3.70672 19.3006 3.69558 20.7314 4.88365L20.8719 5.00609L35.0322 17.9613C36.0748 18.9153 36.1467 20.5339 35.1928 21.5765C34.2388 22.6191 32.6202 22.691 31.5776 21.7371L19.163 10.3789C18.6702 9.92808 17.9135 9.93215 17.4256 10.3883L5.30601 21.7183C4.27365 22.6834 2.65461 22.6289 1.68956 21.5965C0.724529 20.5642 0.779047 18.9451 1.81138 17.9801L15.66 5.03421L15.7999 4.90989Z" fill="url(#paint3_radial_4358_11028)"/>
<path d="M15.7999 4.90989C17.2179 3.70672 19.3006 3.69558 20.7314 4.88365L20.8719 5.00609L35.0322 17.9613C36.0748 18.9153 36.1467 20.5339 35.1928 21.5765C34.2388 22.6191 32.6202 22.691 31.5776 21.7371L19.163 10.3789C18.6702 9.92808 17.9135 9.93215 17.4256 10.3883L5.30601 21.7183C4.27365 22.6834 2.65461 22.6289 1.68956 21.5965C0.724529 20.5642 0.779047 18.9451 1.81138 17.9801L15.66 5.03421L15.7999 4.90989Z" fill="url(#paint4_radial_4358_11028)"/>
</g>
<g filter="url(#filter3_g_4358_11028)">
<rect x="13.1543" y="19.8496" width="10.2353" height="10.875" rx="1.91911" fill="#D9D9D9"/>
<rect x="13.1543" y="19.8496" width="10.2353" height="10.875" rx="1.91911" fill="url(#paint5_radial_4358_11028)"/>
</g>
<g filter="url(#filter4_g_4358_11028)">
<path d="M18.8483 19.8496V30.7246H17.6963V19.8496H18.8483Z" fill="white"/>
</g>
<g filter="url(#filter5_g_4358_11028)">
<path d="M23.3896 25.859H13.1544V24.707H23.3896V25.859Z" fill="white"/>
</g>
<g filter="url(#filter6_g_4358_11028)">
<path d="M22.1349 35.2027C22.3084 32.9476 25.6532 31.3645 27.8923 32.6439C27.4658 30.2983 27.7123 25.4027 32.3701 24.3277C36.5281 23.3681 38.7672 26.8865 38.7672 29.4454C39.94 29.3388 42.9252 31.0445 42.9253 34.563C42.9254 38.6093 39.5136 40.0005 37.4878 40.0005H26.6128C24.6937 40.0005 21.815 39.3607 22.1349 35.2027Z" fill="#D9D9D9"/>
<path d="M22.1349 35.2027C22.3084 32.9476 25.6532 31.3645 27.8923 32.6439C27.4658 30.2983 27.7123 25.4027 32.3701 24.3277C36.5281 23.3681 38.7672 26.8865 38.7672 29.4454C39.94 29.3388 42.9252 31.0445 42.9253 34.563C42.9254 38.6093 39.5136 40.0005 37.4878 40.0005H26.6128C24.6937 40.0005 21.815 39.3607 22.1349 35.2027Z" fill="url(#paint6_radial_4358_11028)"/>
</g>
<defs>
<filter id="filter0_g_4358_11028" x="4.43887" y="7.64102" width="28.3068" height="29.8801" filterUnits="userSpaceOnUse" color-interpolation-filters="sRGB">
<feFlood flood-opacity="0" result="BackgroundImageFix"/>
<feBlend mode="normal" in="SourceGraphic" in2="BackgroundImageFix" result="shape"/>
<feTurbulence type="fractalNoise" baseFrequency="0.83333331346511841 0.83333331346511841" numOctaves="3" seed="7701" />
<feDisplacementMap in="shape" scale="0.80000001192092896" xChannelSelector="R" yChannelSelector="G" result="displacedImage" width="100%" height="100%" />
<feMerge result="effect1_texture_4358_11028">
<feMergeNode in="displacedImage"/>
</feMerge>
</filter>
<filter id="filter1_g_4358_11028" x="25.5482" y="6.01602" width="7.19746" height="11.0344" filterUnits="userSpaceOnUse" color-interpolation-filters="sRGB">
<feFlood flood-opacity="0" result="BackgroundImageFix"/>
<feBlend mode="normal" in="SourceGraphic" in2="BackgroundImageFix" result="shape"/>
<feTurbulence type="fractalNoise" baseFrequency="0.83333331346511841 0.83333331346511841" numOctaves="3" seed="7701" />
<feDisplacementMap in="shape" scale="0.80000001192092896" xChannelSelector="R" yChannelSelector="G" result="displacedImage" width="100%" height="100%" />
<feMerge result="effect1_texture_4358_11028">
<feMergeNode in="displacedImage"/>
</feMerge>
</filter>
<filter id="filter2_g_4358_11028" x="0.6" y="3.6" width="35.6633" height="19.2082" filterUnits="userSpaceOnUse" color-interpolation-filters="sRGB">
<feFlood flood-opacity="0" result="BackgroundImageFix"/>
<feBlend mode="normal" in="SourceGraphic" in2="BackgroundImageFix" result="shape"/>
<feTurbulence type="fractalNoise" baseFrequency="0.83333331346511841 0.83333331346511841" numOctaves="3" seed="7701" />
<feDisplacementMap in="shape" scale="0.80000001192092896" xChannelSelector="R" yChannelSelector="G" result="displacedImage" width="100%" height="100%" />
<feMerge result="effect1_texture_4358_11028">
<feMergeNode in="displacedImage"/>
</feMerge>
</filter>
<filter id="filter3_g_4358_11028" x="12.9438" y="19.6391" width="10.6564" height="11.296" filterUnits="userSpaceOnUse" color-interpolation-filters="sRGB">
<feFlood flood-opacity="0" result="BackgroundImageFix"/>
<feBlend mode="normal" in="SourceGraphic" in2="BackgroundImageFix" result="shape"/>
<feTurbulence type="fractalNoise" baseFrequency="0.99900001287460327 0.99900001287460327" numOctaves="3" seed="7701" />
<feDisplacementMap in="shape" scale="0.42101171612739563" xChannelSelector="R" yChannelSelector="G" result="displacedImage" width="100%" height="100%" />
<feMerge result="effect1_texture_4358_11028">
<feMergeNode in="displacedImage"/>
</feMerge>
</filter>
<filter id="filter4_g_4358_11028" x="17.4858" y="19.6391" width="1.57336" height="11.296" filterUnits="userSpaceOnUse" color-interpolation-filters="sRGB">
<feFlood flood-opacity="0" result="BackgroundImageFix"/>
<feBlend mode="normal" in="SourceGraphic" in2="BackgroundImageFix" result="shape"/>
<feTurbulence type="fractalNoise" baseFrequency="0.99900001287460327 0.99900001287460327" numOctaves="3" seed="7701" />
<feDisplacementMap in="shape" scale="0.42101171612739563" xChannelSelector="R" yChannelSelector="G" result="displacedImage" width="100%" height="100%" />
<feMerge result="effect1_texture_4358_11028">
<feMergeNode in="displacedImage"/>
</feMerge>
</filter>
<filter id="filter5_g_4358_11028" x="12.9438" y="24.4965" width="10.6564" height="1.57336" filterUnits="userSpaceOnUse" color-interpolation-filters="sRGB">
<feFlood flood-opacity="0" result="BackgroundImageFix"/>
<feBlend mode="normal" in="SourceGraphic" in2="BackgroundImageFix" result="shape"/>
<feTurbulence type="fractalNoise" baseFrequency="0.99900001287460327 0.99900001287460327" numOctaves="3" seed="7701" />
<feDisplacementMap in="shape" scale="0.42101171612739563" xChannelSelector="R" yChannelSelector="G" result="displacedImage" width="100%" height="100%" />
<feMerge result="effect1_texture_4358_11028">
<feMergeNode in="displacedImage"/>
</feMerge>
</filter>
<filter id="filter6_g_4358_11028" x="21.7104" y="23.766" width="21.6154" height="16.634" filterUnits="userSpaceOnUse" color-interpolation-filters="sRGB">
<feFlood flood-opacity="0" result="BackgroundImageFix"/>
<feBlend mode="normal" in="SourceGraphic" in2="BackgroundImageFix" result="shape"/>
<feTurbulence type="fractalNoise" baseFrequency="0.83333331346511841 0.83333331346511841" numOctaves="3" seed="7701" />
<feDisplacementMap in="shape" scale="0.80000001192092896" xChannelSelector="R" yChannelSelector="G" result="displacedImage" width="100%" height="100%" />
<feMerge result="effect1_texture_4358_11028">
<feMergeNode in="displacedImage"/>
</feMerge>
</filter>
<radialGradient id="paint0_radial_4358_11028" cx="0" cy="0" r="1" gradientTransform="matrix(-0.864676 20.0098 -27.3226 -1.71663 18.6737 22.829)" gradientUnits="userSpaceOnUse">
<stop offset="0.163462" stop-color="#FFBF21"/>
<stop offset="1" stop-color="#FFF9E5"/>
</radialGradient>
<radialGradient id="paint1_radial_4358_11028" cx="0" cy="0" r="1" gradientTransform="matrix(-3.9025 10.9868 -7.51643 -8.09813 29.1174 11.3159)" gradientUnits="userSpaceOnUse">
<stop stop-color="#EB4432"/>
<stop offset="1" stop-color="#FFDDD9"/>
</radialGradient>
<radialGradient id="paint2_radial_4358_11028" cx="0" cy="0" r="1" gradientTransform="matrix(0.34025 -9.36369 5.09281 5.62511 29.1593 10.8642)" gradientUnits="userSpaceOnUse">
<stop stop-color="#FF8274"/>
<stop offset="1" stop-color="#F6A89F"/>
</radialGradient>
<radialGradient id="paint3_radial_4358_11028" cx="0" cy="0" r="1" gradientTransform="matrix(-21.2686 19.7597 -40.9644 -14.5644 18.272 12.8125)" gradientUnits="userSpaceOnUse">
<stop stop-color="#EB4432"/>
<stop offset="1" stop-color="#FFDDD9"/>
</radialGradient>
<radialGradient id="paint4_radial_4358_11028" cx="0" cy="0" r="1" gradientTransform="matrix(1 -8 13.1161 4.8281 18.5 12)" gradientUnits="userSpaceOnUse">
<stop stop-color="#F6A89F"/>
<stop offset="1" stop-color="#FF8274"/>
</radialGradient>
<radialGradient id="paint5_radial_4358_11028" cx="0" cy="0" r="1" gradientTransform="matrix(1.27233e-07 8.63599 -10.6624 -0.109625 18.2719 25.6069)" gradientUnits="userSpaceOnUse">
<stop stop-color="#569DEE"/>
<stop offset="1" stop-color="#BADAFF"/>
</radialGradient>
<radialGradient id="paint6_radial_4358_11028" cx="0" cy="0" r="1" gradientTransform="matrix(-0.663448 11.6904 -15.3674 -0.524092 32.5178 32.0833)" gradientUnits="userSpaceOnUse">
<stop stop-color="#00CB89"/>
<stop offset="1" stop-color="#D3F8EC"/>
</radialGradient>
</defs>
</svg>
