<svg width="44" height="44" viewBox="0 0 44 44" fill="none" xmlns="http://www.w3.org/2000/svg">
<g filter="url(#filter0_g_4351_10874)">
<path d="M8.37301 33.2494L7.21848 26.4211C7.10849 25.7705 7.64751 25.1937 8.30398 25.2593L36.1963 28.0485C36.6652 28.0954 37.0377 28.4633 37.0905 28.9316L37.7222 34.5358C37.865 35.8031 36.8012 36.8786 35.5324 36.7495L9.25784 34.0776C8.81016 34.032 8.44803 33.6931 8.37301 33.2494Z" fill="#D9D9D9"/>
<path d="M8.37301 33.2494L7.21848 26.4211C7.10849 25.7705 7.64751 25.1937 8.30398 25.2593L36.1963 28.0485C36.6652 28.0954 37.0377 28.4633 37.0905 28.9316L37.7222 34.5358C37.865 35.8031 36.8012 36.8786 35.5324 36.7495L9.25784 34.0776C8.81016 34.032 8.44803 33.6931 8.37301 33.2494Z" fill="url(#paint0_radial_4351_10874)"/>
</g>
<g filter="url(#filter1_g_4351_10874)">
<path d="M12.391 30.6904C12.3377 30.2002 12.9415 29.5549 12.9415 29.5549L25.0549 31.1838L26.7141 33.0163C26.929 33.2537 26.8659 33.6253 26.5697 33.747C26.1353 33.9255 25.5329 34.1103 25.0729 34.0084C24.6682 33.9188 24.223 33.5741 23.9327 33.3137C23.7449 33.1453 23.4615 33.1155 23.246 33.2465C22.8159 33.5078 22.0905 33.8937 21.5028 33.9315C20.8193 33.9756 19.9108 33.5752 19.4714 33.3566C19.3089 33.2757 19.1161 33.2783 18.9559 33.3637C18.4286 33.6451 17.1962 34.2262 16.3165 34.0405C15.2612 33.8176 14.2875 32.4011 13.9622 31.8825C13.887 31.7627 13.7686 31.6755 13.6333 31.6343C13.2423 31.5156 12.4476 31.2116 12.391 30.6904Z" fill="#D9D9D9"/>
<path d="M12.391 30.6904C12.3377 30.2002 12.9415 29.5549 12.9415 29.5549L25.0549 31.1838L26.7141 33.0163C26.929 33.2537 26.8659 33.6253 26.5697 33.747C26.1353 33.9255 25.5329 34.1103 25.0729 34.0084C24.6682 33.9188 24.223 33.5741 23.9327 33.3137C23.7449 33.1453 23.4615 33.1155 23.246 33.2465C22.8159 33.5078 22.0905 33.8937 21.5028 33.9315C20.8193 33.9756 19.9108 33.5752 19.4714 33.3566C19.3089 33.2757 19.1161 33.2783 18.9559 33.3637C18.4286 33.6451 17.1962 34.2262 16.3165 34.0405C15.2612 33.8176 14.2875 32.4011 13.9622 31.8825C13.887 31.7627 13.7686 31.6755 13.6333 31.6343C13.2423 31.5156 12.4476 31.2116 12.391 30.6904Z" fill="url(#paint1_radial_4351_10874)"/>
</g>
<g filter="url(#filter2_g_4351_10874)">
<path d="M37 25.6284C35.4 24.8284 23.3333 27.9617 17.5 29.6284L19 30.6284C25.3333 31.7951 38.2 33.6284 39 31.6284C40 29.1284 39 26.6284 37 25.6284Z" fill="#D9D9D9"/>
<path d="M37 25.6284C35.4 24.8284 23.3333 27.9617 17.5 29.6284L19 30.6284C25.3333 31.7951 38.2 33.6284 39 31.6284C40 29.1284 39 26.6284 37 25.6284Z" fill="url(#paint2_radial_4351_10874)"/>
</g>
<g filter="url(#filter3_g_4351_10874)">
<path d="M36.1434 33.8119C30.9877 34.054 17.513 31.4341 13 29.6289L14 28.1289C15 29.1289 33 33.6289 37.5 32.1289C38.6384 31.7494 38.8333 31.4622 39 31.1289V32.2005C39 32.4682 38.8662 32.7181 38.6436 32.8665C37.8858 33.3717 37.0531 33.7692 36.1434 33.8119Z" fill="#D9D9D9"/>
<path d="M36.1434 33.8119C30.9877 34.054 17.513 31.4341 13 29.6289L14 28.1289C15 29.1289 33 33.6289 37.5 32.1289C38.6384 31.7494 38.8333 31.4622 39 31.1289V32.2005C39 32.4682 38.8662 32.7181 38.6436 32.8665C37.8858 33.3717 37.0531 33.7692 36.1434 33.8119Z" fill="url(#paint3_radial_4351_10874)"/>
</g>
<g filter="url(#filter4_g_4351_10874)">
<path d="M3.99136 29.493C3.15544 27.2142 5.73286 26.6445 7.12605 26.6445H11.8281L11.3057 30.3068L7.64853 31.5275C6.77777 31.7988 4.82728 31.7717 3.99136 29.493Z" fill="#D9D9D9"/>
<path d="M3.99136 29.493C3.15544 27.2142 5.73286 26.6445 7.12605 26.6445H11.8281L11.3057 30.3068L7.64853 31.5275C6.77777 31.7988 4.82728 31.7717 3.99136 29.493Z" fill="url(#paint4_radial_4351_10874)"/>
</g>
<path d="M7.5 24L7 25.5V27L11 29H16.5L25.5 27L29 28.5H32.5L35.5 27V25.5L33 23.5L7.5 24Z" fill="#D9D9D9"/>
<path d="M7.5 24L7 25.5V27L11 29H16.5L25.5 27L29 28.5H32.5L35.5 27V25.5L33 23.5L7.5 24Z" fill="url(#paint5_radial_4351_10874)"/>
<g filter="url(#filter5_g_4351_10874)">
<path d="M12.5 28.5C9.3 28.5 7.5 26.5 7 25.5L6.7396 25.8906C6.29173 26.5624 6.29173 27.4376 6.7396 28.1094L7 28.5C7.33333 29 8.9 30.1 12.5 30.5C17 31 22 29.5 23.5 28.5C24.7 27.7 26.3333 28.1667 27 28.5C27.8333 29 30 30 32 30C33.3094 30 34.2615 29.5714 34.8566 29.1351C35.3342 28.7849 35.5 28.1839 35.5 27.5917V25.5C35.5 26.1667 34.8 27.6 32 28C29.2 28.4 27.5 27.1667 27 26.5C26.5 26 25.2 25.2 24 26C22.5 27 16.5 28.5 12.5 28.5Z" fill="#D9D9D9"/>
<path d="M12.5 28.5C9.3 28.5 7.5 26.5 7 25.5L6.7396 25.8906C6.29173 26.5624 6.29173 27.4376 6.7396 28.1094L7 28.5C7.33333 29 8.9 30.1 12.5 30.5C17 31 22 29.5 23.5 28.5C24.7 27.7 26.3333 28.1667 27 28.5C27.8333 29 30 30 32 30C33.3094 30 34.2615 29.5714 34.8566 29.1351C35.3342 28.7849 35.5 28.1839 35.5 27.5917V25.5C35.5 26.1667 34.8 27.6 32 28C29.2 28.4 27.5 27.1667 27 26.5C26.5 26 25.2 25.2 24 26C22.5 27 16.5 28.5 12.5 28.5Z" fill="url(#paint6_radial_4351_10874)"/>
</g>
<g filter="url(#filter6_g_4351_10874)">
<path d="M33.2532 10.8054C32.0091 8.42804 29.3959 9.54321 28.2449 10.398C21.3108 14.0269 7.14818 21.5901 5.97057 22.8121C4.49856 24.3396 5.02621 25.8301 6.5352 26.3022C7.57356 26.6272 8.91012 25.7379 9.67999 25.0508C9.87188 24.8796 10.1611 24.8584 10.3753 25.0009C10.7847 25.2733 11.4623 25.6642 12.025 25.7006C12.727 25.7461 13.6001 25.2626 14.1012 24.9375C14.3311 24.7884 14.6451 24.8263 14.835 25.0239C15.2238 25.4286 15.8985 26.0319 16.5335 26.1174C17.1458 26.1998 17.895 25.8243 18.409 25.5005C18.7093 25.3113 19.1393 25.4404 19.3078 25.7528C19.4827 26.077 19.7314 26.4221 20.0421 26.5526C20.5078 26.7481 21.1725 26.487 21.6033 26.2653C21.8477 26.1394 22.1596 26.1965 22.3311 26.4114C22.8506 27.0622 23.9714 28.3023 25.0783 28.4598C26.8073 28.7057 29.0406 26.3862 29.0406 26.3862L30.5403 26.3584C30.7836 26.3539 30.9697 26.258 31.1106 26.1125C31.4347 25.778 32.1222 25.5 32.4611 25.8195C34.5915 27.8283 38.0538 29.9594 40.0572 27.1826C41.6781 24.9361 40.0504 23.4212 38.063 22.5514C37.554 22.3286 36.878 20.3234 36.8152 19.7713C36.7745 19.4127 36.6742 18.9925 36.5 18.5005C35.941 16.9214 34.5837 16.5486 33.4427 16.6273C32.9634 16.6604 32.4908 16.1079 32.7109 15.6807C33.3924 14.3584 34.1273 12.4755 33.2532 10.8054Z" fill="#D9D9D9"/>
<path d="M33.2532 10.8054C32.0091 8.42804 29.3959 9.54321 28.2449 10.398C21.3108 14.0269 7.14818 21.5901 5.97057 22.8121C4.49856 24.3396 5.02621 25.8301 6.5352 26.3022C7.57356 26.6272 8.91012 25.7379 9.67999 25.0508C9.87188 24.8796 10.1611 24.8584 10.3753 25.0009C10.7847 25.2733 11.4623 25.6642 12.025 25.7006C12.727 25.7461 13.6001 25.2626 14.1012 24.9375C14.3311 24.7884 14.6451 24.8263 14.835 25.0239C15.2238 25.4286 15.8985 26.0319 16.5335 26.1174C17.1458 26.1998 17.895 25.8243 18.409 25.5005C18.7093 25.3113 19.1393 25.4404 19.3078 25.7528C19.4827 26.077 19.7314 26.4221 20.0421 26.5526C20.5078 26.7481 21.1725 26.487 21.6033 26.2653C21.8477 26.1394 22.1596 26.1965 22.3311 26.4114C22.8506 27.0622 23.9714 28.3023 25.0783 28.4598C26.8073 28.7057 29.0406 26.3862 29.0406 26.3862L30.5403 26.3584C30.7836 26.3539 30.9697 26.258 31.1106 26.1125C31.4347 25.778 32.1222 25.5 32.4611 25.8195C34.5915 27.8283 38.0538 29.9594 40.0572 27.1826C41.6781 24.9361 40.0504 23.4212 38.063 22.5514C37.554 22.3286 36.878 20.3234 36.8152 19.7713C36.7745 19.4127 36.6742 18.9925 36.5 18.5005C35.941 16.9214 34.5837 16.5486 33.4427 16.6273C32.9634 16.6604 32.4908 16.1079 32.7109 15.6807C33.3924 14.3584 34.1273 12.4755 33.2532 10.8054Z" fill="url(#paint7_radial_4351_10874)"/>
</g>
<g filter="url(#filter7_g_4351_10874)">
<path d="M25.2518 7.6489L5.58099 19.4514C4.75606 19.9464 5.03745 21.2067 5.99455 21.3038L35.6686 24.3142C36.4576 24.3943 37.0214 23.568 36.6591 22.8625L29.464 8.85097C28.6716 7.3078 26.7394 6.75639 25.2518 7.6489Z" fill="#D9D9D9"/>
<path d="M25.2518 7.6489L5.58099 19.4514C4.75606 19.9464 5.03745 21.2067 5.99455 21.3038L35.6686 24.3142C36.4576 24.3943 37.0214 23.568 36.6591 22.8625L29.464 8.85097C28.6716 7.3078 26.7394 6.75639 25.2518 7.6489Z" fill="url(#paint8_radial_4351_10874)"/>
</g>
<g filter="url(#filter8_g_4351_10874)">
<path d="M5.40216 22.7173L5.15696 20.7557C5.07687 20.1149 5.61604 19.5674 6.25797 19.6376L36.1087 22.9025C36.6159 22.958 37 23.3864 37 23.8966V24.7655C37 25.9575 35.9639 26.8849 34.7791 26.7532L6.284 23.5871C5.82425 23.536 5.45953 23.1763 5.40216 22.7173Z" fill="#D9D9D9"/>
<path d="M5.40216 22.7173L5.15696 20.7557C5.07687 20.1149 5.61604 19.5674 6.25797 19.6376L36.1087 22.9025C36.6159 22.958 37 23.3864 37 23.8966V24.7655C37 25.9575 35.9639 26.8849 34.7791 26.7532L6.284 23.5871C5.82425 23.536 5.45953 23.1763 5.40216 22.7173Z" fill="url(#paint9_radial_4351_10874)"/>
</g>
<defs>
<filter id="filter0_g_4351_10874" x="6.8041" y="24.8539" width="31.3313" height="12.3059" filterUnits="userSpaceOnUse" color-interpolation-filters="sRGB">
<feFlood flood-opacity="0" result="BackgroundImageFix"/>
<feBlend mode="normal" in="SourceGraphic" in2="BackgroundImageFix" result="shape"/>
<feTurbulence type="fractalNoise" baseFrequency="0.55555558204650879 0.55555558204650879" numOctaves="3" seed="7701" />
<feDisplacementMap in="shape" scale="0.80000001192092896" xChannelSelector="R" yChannelSelector="G" result="displacedImage" width="100%" height="100%" />
<feMerge result="effect1_texture_4351_10874">
<feMergeNode in="displacedImage"/>
</feMerge>
</filter>
<filter id="filter1_g_4351_10874" x="11.9877" y="29.1547" width="15.2541" height="5.32148" filterUnits="userSpaceOnUse" color-interpolation-filters="sRGB">
<feFlood flood-opacity="0" result="BackgroundImageFix"/>
<feBlend mode="normal" in="SourceGraphic" in2="BackgroundImageFix" result="shape"/>
<feTurbulence type="fractalNoise" baseFrequency="0.55555558204650879 0.55555558204650879" numOctaves="3" seed="7701" />
<feDisplacementMap in="shape" scale="0.80000001192092896" xChannelSelector="R" yChannelSelector="G" result="displacedImage" width="100%" height="100%" />
<feMerge result="effect1_texture_4351_10874">
<feMergeNode in="displacedImage"/>
</feMerge>
</filter>
<filter id="filter2_g_4351_10874" x="17.1" y="25.1" width="22.6926" height="7.81758" filterUnits="userSpaceOnUse" color-interpolation-filters="sRGB">
<feFlood flood-opacity="0" result="BackgroundImageFix"/>
<feBlend mode="normal" in="SourceGraphic" in2="BackgroundImageFix" result="shape"/>
<feTurbulence type="fractalNoise" baseFrequency="0.55555558204650879 0.55555558204650879" numOctaves="3" seed="7701" />
<feDisplacementMap in="shape" scale="0.80000001192092896" xChannelSelector="R" yChannelSelector="G" result="displacedImage" width="100%" height="100%" />
<feMerge result="effect1_texture_4351_10874">
<feMergeNode in="displacedImage"/>
</feMerge>
</filter>
<filter id="filter3_g_4351_10874" x="12.6" y="27.7289" width="26.8" height="6.49922" filterUnits="userSpaceOnUse" color-interpolation-filters="sRGB">
<feFlood flood-opacity="0" result="BackgroundImageFix"/>
<feBlend mode="normal" in="SourceGraphic" in2="BackgroundImageFix" result="shape"/>
<feTurbulence type="fractalNoise" baseFrequency="0.55555558204650879 0.55555558204650879" numOctaves="3" seed="7701" />
<feDisplacementMap in="shape" scale="0.80000001192092896" xChannelSelector="R" yChannelSelector="G" result="displacedImage" width="100%" height="100%" />
<feMerge result="effect1_texture_4351_10874">
<feMergeNode in="displacedImage"/>
</feMerge>
</filter>
<filter id="filter4_g_4351_10874" x="3.42812" y="26.2445" width="8.8" height="5.8" filterUnits="userSpaceOnUse" color-interpolation-filters="sRGB">
<feFlood flood-opacity="0" result="BackgroundImageFix"/>
<feBlend mode="normal" in="SourceGraphic" in2="BackgroundImageFix" result="shape"/>
<feTurbulence type="fractalNoise" baseFrequency="0.55555558204650879 0.55555558204650879" numOctaves="3" seed="7701" />
<feDisplacementMap in="shape" scale="0.80000001192092896" xChannelSelector="R" yChannelSelector="G" result="displacedImage" width="100%" height="100%" />
<feMerge result="effect1_texture_4351_10874">
<feMergeNode in="displacedImage"/>
</feMerge>
</filter>
<filter id="filter5_g_4351_10874" x="6.00332" y="25.1" width="29.8967" height="5.89961" filterUnits="userSpaceOnUse" color-interpolation-filters="sRGB">
<feFlood flood-opacity="0" result="BackgroundImageFix"/>
<feBlend mode="normal" in="SourceGraphic" in2="BackgroundImageFix" result="shape"/>
<feTurbulence type="fractalNoise" baseFrequency="0.55555558204650879 0.55555558204650879" numOctaves="3" seed="7701" />
<feDisplacementMap in="shape" scale="0.80000001192092896" xChannelSelector="R" yChannelSelector="G" result="displacedImage" width="100%" height="100%" />
<feMerge result="effect1_texture_4351_10874">
<feMergeNode in="displacedImage"/>
</feMerge>
</filter>
<filter id="filter6_g_4351_10874" x="4.69863" y="8.975" width="36.4201" height="19.9348" filterUnits="userSpaceOnUse" color-interpolation-filters="sRGB">
<feFlood flood-opacity="0" result="BackgroundImageFix"/>
<feBlend mode="normal" in="SourceGraphic" in2="BackgroundImageFix" result="shape"/>
<feTurbulence type="fractalNoise" baseFrequency="0.55555558204650879 0.55555558204650879" numOctaves="3" seed="7701" />
<feDisplacementMap in="shape" scale="0.80000001192092896" xChannelSelector="R" yChannelSelector="G" result="displacedImage" width="100%" height="100%" />
<feMerge result="effect1_texture_4351_10874">
<feMergeNode in="displacedImage"/>
</feMerge>
</filter>
<filter id="filter7_g_4351_10874" x="4.69473" y="6.8207" width="32.4768" height="17.8996" filterUnits="userSpaceOnUse" color-interpolation-filters="sRGB">
<feFlood flood-opacity="0" result="BackgroundImageFix"/>
<feBlend mode="normal" in="SourceGraphic" in2="BackgroundImageFix" result="shape"/>
<feTurbulence type="fractalNoise" baseFrequency="0.55555558204650879 0.55555558204650879" numOctaves="3" seed="7701" />
<feDisplacementMap in="shape" scale="0.80000001192092896" xChannelSelector="R" yChannelSelector="G" result="displacedImage" width="100%" height="100%" />
<feMerge result="effect1_texture_4351_10874">
<feMergeNode in="displacedImage"/>
</feMerge>
</filter>
<filter id="filter8_g_4351_10874" x="4.74941" y="19.2309" width="32.6506" height="7.93477" filterUnits="userSpaceOnUse" color-interpolation-filters="sRGB">
<feFlood flood-opacity="0" result="BackgroundImageFix"/>
<feBlend mode="normal" in="SourceGraphic" in2="BackgroundImageFix" result="shape"/>
<feTurbulence type="fractalNoise" baseFrequency="0.55555558204650879 0.55555558204650879" numOctaves="3" seed="7701" />
<feDisplacementMap in="shape" scale="0.80000001192092896" xChannelSelector="R" yChannelSelector="G" result="displacedImage" width="100%" height="100%" />
<feMerge result="effect1_texture_4351_10874">
<feMergeNode in="displacedImage"/>
</feMerge>
</filter>
<radialGradient id="paint0_radial_4351_10874" cx="0" cy="0" r="1" gradientTransform="matrix(-0.468748 7.46416 -32.4138 -2.01753 23 33.7363)" gradientUnits="userSpaceOnUse">
<stop stop-color="#F5C36C"/>
<stop offset="1" stop-color="#FFEAC7"/>
</radialGradient>
<radialGradient id="paint1_radial_4351_10874" cx="0" cy="0" r="1" gradientUnits="userSpaceOnUse" gradientTransform="translate(19.5 27.5) rotate(107.354) scale(8.38153 7.06055)">
<stop stop-color="#CDDB8D"/>
<stop offset="1" stop-color="#71A83A"/>
</radialGradient>
<radialGradient id="paint2_radial_4351_10874" cx="0" cy="0" r="1" gradientUnits="userSpaceOnUse" gradientTransform="translate(28.5 28.5) rotate(69.2278) scale(15.5081 56.2255)">
<stop stop-color="#FFE17D"/>
<stop offset="0.836538" stop-color="#FFBF21"/>
</radialGradient>
<radialGradient id="paint3_radial_4351_10874" cx="0" cy="0" r="1" gradientUnits="userSpaceOnUse" gradientTransform="translate(16 30.0005) rotate(15.1011) scale(32.6267 173.018)">
<stop offset="0.163462" stop-color="#FFBF21"/>
<stop offset="1" stop-color="#FFF9E5"/>
</radialGradient>
<radialGradient id="paint4_radial_4351_10874" cx="0" cy="0" r="1" gradientUnits="userSpaceOnUse" gradientTransform="translate(9 27.501) rotate(149.744) scale(6.94622 6.74484)">
<stop stop-color="#CDDB8D"/>
<stop offset="1" stop-color="#71A83A"/>
</radialGradient>
<radialGradient id="paint5_radial_4351_10874" cx="0" cy="0" r="1" gradientUnits="userSpaceOnUse" gradientTransform="translate(22 35.5) rotate(-90.0494) scale(13.1355 20.2711)">
<stop stop-color="#FFDDD9"/>
<stop offset="1" stop-color="#EB4432"/>
</radialGradient>
<radialGradient id="paint6_radial_4351_10874" cx="0" cy="0" r="1" gradientTransform="matrix(-49.5 -0.500031 -132.994 -740.819 25 27)" gradientUnits="userSpaceOnUse">
<stop stop-color="#EB4432"/>
<stop offset="1" stop-color="#FFDDD9"/>
</radialGradient>
<radialGradient id="paint7_radial_4351_10874" cx="0" cy="0" r="1" gradientUnits="userSpaceOnUse" gradientTransform="translate(22.5 20.5005) rotate(8.65254) scale(23.2648 23.7033)">
<stop stop-color="#71A83A"/>
<stop offset="1" stop-color="#CDDB8D"/>
</radialGradient>
<radialGradient id="paint8_radial_4351_10874" cx="0" cy="0" r="1" gradientUnits="userSpaceOnUse" gradientTransform="translate(23 15.5) rotate(66.1613) scale(23.5053 78.5508)">
<stop stop-color="#FFEAC7"/>
<stop offset="1" stop-color="#F5C36C"/>
</radialGradient>
<radialGradient id="paint9_radial_4351_10874" cx="0" cy="0" r="1" gradientUnits="userSpaceOnUse" gradientTransform="translate(21 23.5027) rotate(93.5775) scale(8.01293 34.6423)">
<stop stop-color="#F5C36C"/>
<stop offset="1" stop-color="#FFEAC7"/>
</radialGradient>
</defs>
</svg>
