<svg width="44" height="44" viewBox="0 0 44 44" fill="none" xmlns="http://www.w3.org/2000/svg">
<g filter="url(#filter0_g_4351_10870)">
<path d="M32.5008 31.1635C27.3507 37.0493 21.5 37.6626 19.0008 36.6635C13.8341 34.6636 3.30076 29.1637 2.50076 23.1637C1.50076 15.6637 11.0002 9.66337 17.0008 7.66353C23.5002 5.49744 37.6248 8.71309 38.5008 16.1635C39.5 24.6626 39.5008 23.1635 32.5008 31.1635Z" fill="#D9D9D9"/>
<path d="M32.5008 31.1635C27.3507 37.0493 21.5 37.6626 19.0008 36.6635C13.8341 34.6636 3.30076 29.1637 2.50076 23.1637C1.50076 15.6637 11.0002 9.66337 17.0008 7.66353C23.5002 5.49744 37.6248 8.71309 38.5008 16.1635C39.5 24.6626 39.5008 23.1635 32.5008 31.1635Z" fill="url(#paint0_radial_4351_10870)"/>
</g>
<g filter="url(#filter1_g_4351_10870)">
<path d="M5.81858 32.4109L11.151 34.6066C12.0491 34.9765 12.973 35.2804 13.9153 35.5159L20.552 37.1751C21.6719 37.4551 22.8283 36.8742 23.2723 35.8086C24.4031 33.0947 24.7805 30.1258 24.3647 27.2152L24.2892 26.6868C24.1033 25.3851 23.4331 24.2015 22.4127 23.3724L20.1333 21.5204C17.4595 19.348 14.1195 18.1621 10.6744 18.1621H6.2578C3.95052 18.1621 2.12167 20.1088 2.26559 22.4116L2.32137 23.3041C2.44015 25.2045 2.75246 27.0878 3.25346 28.9248L3.48252 29.7647C3.80885 30.9612 4.67176 31.9387 5.81858 32.4109Z" fill="#D9D9D9"/>
<path d="M5.81858 32.4109L11.151 34.6066C12.0491 34.9765 12.973 35.2804 13.9153 35.5159L20.552 37.1751C21.6719 37.4551 22.8283 36.8742 23.2723 35.8086C24.4031 33.0947 24.7805 30.1258 24.3647 27.2152L24.2892 26.6868C24.1033 25.3851 23.4331 24.2015 22.4127 23.3724L20.1333 21.5204C17.4595 19.348 14.1195 18.1621 10.6744 18.1621H6.2578C3.95052 18.1621 2.12167 20.1088 2.26559 22.4116L2.32137 23.3041C2.44015 25.2045 2.75246 27.0878 3.25346 28.9248L3.48252 29.7647C3.80885 30.9612 4.67176 31.9387 5.81858 32.4109Z" fill="url(#paint1_radial_4351_10870)"/>
<path d="M5.81858 32.4109L11.151 34.6066C12.0491 34.9765 12.973 35.2804 13.9153 35.5159L20.552 37.1751C21.6719 37.4551 22.8283 36.8742 23.2723 35.8086C24.4031 33.0947 24.7805 30.1258 24.3647 27.2152L24.2892 26.6868C24.1033 25.3851 23.4331 24.2015 22.4127 23.3724L20.1333 21.5204C17.4595 19.348 14.1195 18.1621 10.6744 18.1621H6.2578C3.95052 18.1621 2.12167 20.1088 2.26559 22.4116L2.32137 23.3041C2.44015 25.2045 2.75246 27.0878 3.25346 28.9248L3.48252 29.7647C3.80885 30.9612 4.67176 31.9387 5.81858 32.4109Z" fill="url(#paint2_radial_4351_10870)"/>
</g>
<g filter="url(#filter2_g_4351_10870)">
<path d="M39.2704 22.3506C32.7749 21.9475 31.0375 27.3466 30.7557 30.871C30.7124 31.4123 31.1476 31.8619 31.6906 31.8536C38.6757 31.7472 40.8872 27.8785 41.351 24.8163C41.5442 23.5404 40.5583 22.4305 39.2704 22.3506Z" fill="#D9D9D9"/>
<path d="M39.2704 22.3506C32.7749 21.9475 31.0375 27.3466 30.7557 30.871C30.7124 31.4123 31.1476 31.8619 31.6906 31.8536C38.6757 31.7472 40.8872 27.8785 41.351 24.8163C41.5442 23.5404 40.5583 22.4305 39.2704 22.3506Z" fill="url(#paint3_radial_4351_10870)"/>
<path d="M39.2704 22.3506C32.7749 21.9475 31.0375 27.3466 30.7557 30.871C30.7124 31.4123 31.1476 31.8619 31.6906 31.8536C38.6757 31.7472 40.8872 27.8785 41.351 24.8163C41.5442 23.5404 40.5583 22.4305 39.2704 22.3506Z" fill="url(#paint4_radial_4351_10870)"/>
</g>
<g filter="url(#filter3_g_4351_10870)">
<path d="M37.8589 31.7065C33.7018 28.7507 29.6708 31.1746 27.287 33.6339C26.5182 34.427 26.722 35.7066 27.692 36.2349C32.5731 38.8933 36.1831 37.0281 38.1904 34.9151C39.0906 33.9674 38.9241 32.464 37.8589 31.7065Z" fill="#D9D9D9"/>
<path d="M37.8589 31.7065C33.7018 28.7507 29.6708 31.1746 27.287 33.6339C26.5182 34.427 26.722 35.7066 27.692 36.2349C32.5731 38.8933 36.1831 37.0281 38.1904 34.9151C39.0906 33.9674 38.9241 32.464 37.8589 31.7065Z" fill="url(#paint5_radial_4351_10870)"/>
</g>
<g filter="url(#filter4_g_4351_10870)">
<circle cx="6.61539" cy="22.6154" r="0.615386" fill="#945529" fill-opacity="0.13"/>
</g>
<g filter="url(#filter5_g_4351_10870)">
<circle cx="17.6154" cy="10.6154" r="0.615386" fill="#945529" fill-opacity="0.13"/>
</g>
<g filter="url(#filter6_g_4351_10870)">
<circle cx="25.6154" cy="23.6154" r="0.615386" fill="#945529" fill-opacity="0.13"/>
</g>
<g filter="url(#filter7_g_4351_10870)">
<circle cx="6.89282" cy="28.8928" r="0.710701" transform="rotate(180 6.89282 28.8928)" fill="#945529" fill-opacity="0.13"/>
</g>
<g filter="url(#filter8_g_4351_10870)">
<circle cx="19.6154" cy="17.6154" r="0.615386" fill="#945529" fill-opacity="0.13"/>
</g>
<g filter="url(#filter9_g_4351_10870)">
<circle cx="34.8357" cy="19.8358" r="0.615386" transform="rotate(61.1756 34.8357 19.8358)" fill="#945529" fill-opacity="0.13"/>
</g>
<g filter="url(#filter10_g_4351_10870)">
<ellipse cx="14.7625" cy="22.5423" rx="0.35535" ry="0.688505" transform="rotate(-72.9125 14.7625 22.5423)" fill="#945529" fill-opacity="0.13"/>
</g>
<g filter="url(#filter11_g_4351_10870)">
<ellipse cx="24.7625" cy="11.5423" rx="0.35535" ry="0.688505" transform="rotate(-72.9125 24.7625 11.5423)" fill="#945529" fill-opacity="0.13"/>
</g>
<g filter="url(#filter12_g_4351_10870)">
<circle cx="12.9826" cy="26.9826" r="0.710701" transform="rotate(122.762 12.9826 26.9826)" fill="#945529" fill-opacity="0.13"/>
</g>
<g filter="url(#filter13_g_4351_10870)">
<circle cx="11.9826" cy="14.9826" r="0.710701" transform="rotate(122.762 11.9826 14.9826)" fill="#945529" fill-opacity="0.13"/>
</g>
<g filter="url(#filter14_g_4351_10870)">
<circle cx="29.9826" cy="18.9826" r="0.710701" transform="rotate(122.762 29.9826 18.9826)" fill="#945529" fill-opacity="0.13"/>
</g>
<g filter="url(#filter15_g_4351_10870)">
<circle cx="14.893" cy="31.8929" r="0.710701" transform="rotate(-17.685 14.893 31.8929)" fill="#945529" fill-opacity="0.13"/>
</g>
<g filter="url(#filter16_g_4351_10870)">
<circle cx="23.893" cy="14.8929" r="0.710701" transform="rotate(-17.685 23.893 14.8929)" fill="#945529" fill-opacity="0.13"/>
</g>
<g filter="url(#filter17_g_4351_10870)">
<circle cx="19.893" cy="28.8929" r="0.710701" transform="rotate(-17.685 19.893 28.8929)" fill="#945529" fill-opacity="0.13"/>
</g>
<g filter="url(#filter18_g_4351_10870)">
<circle cx="31.893" cy="13.8929" r="0.710701" transform="rotate(-17.685 31.893 13.8929)" fill="#945529" fill-opacity="0.13"/>
</g>
<g filter="url(#filter19_g_4351_10870)">
<circle cx="26.8929" cy="30.8926" r="0.710701" transform="rotate(-107.622 26.8929 30.8926)" fill="#945529" fill-opacity="0.13"/>
</g>
<defs>
<filter id="filter0_g_4351_10870" x="2.02773" y="6.6" width="37.3459" height="30.8527" filterUnits="userSpaceOnUse" color-interpolation-filters="sRGB">
<feFlood flood-opacity="0" result="BackgroundImageFix"/>
<feBlend mode="normal" in="SourceGraphic" in2="BackgroundImageFix" result="shape"/>
<feTurbulence type="fractalNoise" baseFrequency="0.55555558204650879 0.55555558204650879" numOctaves="3" seed="7701" />
<feDisplacementMap in="shape" scale="0.80000001192092896" xChannelSelector="R" yChannelSelector="G" result="displacedImage" width="100%" height="100%" />
<feMerge result="effect1_texture_4351_10870">
<feMergeNode in="displacedImage"/>
</feMerge>
</filter>
<filter id="filter1_g_4351_10870" x="1.85781" y="17.7621" width="23.0715" height="19.884" filterUnits="userSpaceOnUse" color-interpolation-filters="sRGB">
<feFlood flood-opacity="0" result="BackgroundImageFix"/>
<feBlend mode="normal" in="SourceGraphic" in2="BackgroundImageFix" result="shape"/>
<feTurbulence type="fractalNoise" baseFrequency="0.55555558204650879 0.55555558204650879" numOctaves="3" seed="7701" />
<feDisplacementMap in="shape" scale="0.80000001192092896" xChannelSelector="R" yChannelSelector="G" result="displacedImage" width="100%" height="100%" />
<feMerge result="effect1_texture_4351_10870">
<feMergeNode in="displacedImage"/>
</feMerge>
</filter>
<filter id="filter2_g_4351_10870" x="30.3529" y="21.9301" width="11.4221" height="10.3234" filterUnits="userSpaceOnUse" color-interpolation-filters="sRGB">
<feFlood flood-opacity="0" result="BackgroundImageFix"/>
<feBlend mode="normal" in="SourceGraphic" in2="BackgroundImageFix" result="shape"/>
<feTurbulence type="fractalNoise" baseFrequency="0.55555558204650879 0.55555558204650879" numOctaves="3" seed="7701" />
<feDisplacementMap in="shape" scale="0.80000001192092896" xChannelSelector="R" yChannelSelector="G" result="displacedImage" width="100%" height="100%" />
<feMerge result="effect1_texture_4351_10870">
<feMergeNode in="displacedImage"/>
</feMerge>
</filter>
<filter id="filter3_g_4351_10870" x="26.4174" y="29.9457" width="12.7561" height="8.00117" filterUnits="userSpaceOnUse" color-interpolation-filters="sRGB">
<feFlood flood-opacity="0" result="BackgroundImageFix"/>
<feBlend mode="normal" in="SourceGraphic" in2="BackgroundImageFix" result="shape"/>
<feTurbulence type="fractalNoise" baseFrequency="0.55555558204650879 0.55555558204650879" numOctaves="3" seed="7701" />
<feDisplacementMap in="shape" scale="0.80000001192092896" xChannelSelector="R" yChannelSelector="G" result="displacedImage" width="100%" height="100%" />
<feMerge result="effect1_texture_4351_10870">
<feMergeNode in="displacedImage"/>
</feMerge>
</filter>
<filter id="filter4_g_4351_10870" x="2.30768" y="18.3077" width="8.6151" height="8.6151" filterUnits="userSpaceOnUse" color-interpolation-filters="sRGB">
<feFlood flood-opacity="0" result="BackgroundImageFix"/>
<feBlend mode="normal" in="SourceGraphic" in2="BackgroundImageFix" result="shape"/>
<feTurbulence type="fractalNoise" baseFrequency="0.2083328515291214 0.2083328515291214" numOctaves="3" seed="7701" />
<feDisplacementMap in="shape" scale="7.3846321105957031" xChannelSelector="R" yChannelSelector="G" result="displacedImage" width="100%" height="100%" />
<feMerge result="effect1_texture_4351_10870">
<feMergeNode in="displacedImage"/>
</feMerge>
</filter>
<filter id="filter5_g_4351_10870" x="13.3077" y="6.30768" width="8.6151" height="8.6151" filterUnits="userSpaceOnUse" color-interpolation-filters="sRGB">
<feFlood flood-opacity="0" result="BackgroundImageFix"/>
<feBlend mode="normal" in="SourceGraphic" in2="BackgroundImageFix" result="shape"/>
<feTurbulence type="fractalNoise" baseFrequency="0.2083328515291214 0.2083328515291214" numOctaves="3" seed="7701" />
<feDisplacementMap in="shape" scale="7.3846321105957031" xChannelSelector="R" yChannelSelector="G" result="displacedImage" width="100%" height="100%" />
<feMerge result="effect1_texture_4351_10870">
<feMergeNode in="displacedImage"/>
</feMerge>
</filter>
<filter id="filter6_g_4351_10870" x="21.3077" y="19.3077" width="8.6151" height="8.6151" filterUnits="userSpaceOnUse" color-interpolation-filters="sRGB">
<feFlood flood-opacity="0" result="BackgroundImageFix"/>
<feBlend mode="normal" in="SourceGraphic" in2="BackgroundImageFix" result="shape"/>
<feTurbulence type="fractalNoise" baseFrequency="0.2083328515291214 0.2083328515291214" numOctaves="3" seed="7701" />
<feDisplacementMap in="shape" scale="7.3846321105957031" xChannelSelector="R" yChannelSelector="G" result="displacedImage" width="100%" height="100%" />
<feMerge result="effect1_texture_4351_10870">
<feMergeNode in="displacedImage"/>
</feMerge>
</filter>
<filter id="filter7_g_4351_10870" x="4.18164" y="26.1816" width="5.42188" height="5.42188" filterUnits="userSpaceOnUse" color-interpolation-filters="sRGB">
<feFlood flood-opacity="0" result="BackgroundImageFix"/>
<feBlend mode="normal" in="SourceGraphic" in2="BackgroundImageFix" result="shape"/>
<feTurbulence type="fractalNoise" baseFrequency="0.29017791152000427 0.29017791152000427" numOctaves="3" seed="7701" />
<feDisplacementMap in="shape" scale="4" xChannelSelector="R" yChannelSelector="G" result="displacedImage" width="100%" height="100%" />
<feMerge result="effect1_texture_4351_10870">
<feMergeNode in="displacedImage"/>
</feMerge>
</filter>
<filter id="filter8_g_4351_10870" x="15.3077" y="13.3077" width="8.6151" height="8.6151" filterUnits="userSpaceOnUse" color-interpolation-filters="sRGB">
<feFlood flood-opacity="0" result="BackgroundImageFix"/>
<feBlend mode="normal" in="SourceGraphic" in2="BackgroundImageFix" result="shape"/>
<feTurbulence type="fractalNoise" baseFrequency="0.13541635870933533 0.13541635870933533" numOctaves="3" seed="7701" />
<feDisplacementMap in="shape" scale="7.3846321105957031" xChannelSelector="R" yChannelSelector="G" result="displacedImage" width="100%" height="100%" />
<feMerge result="effect1_texture_4351_10870">
<feMergeNode in="displacedImage"/>
</feMerge>
</filter>
<filter id="filter9_g_4351_10870" x="30.5274" y="15.5284" width="8.61608" height="8.6151" filterUnits="userSpaceOnUse" color-interpolation-filters="sRGB">
<feFlood flood-opacity="0" result="BackgroundImageFix"/>
<feBlend mode="normal" in="SourceGraphic" in2="BackgroundImageFix" result="shape"/>
<feTurbulence type="fractalNoise" baseFrequency="0.13541635870933533 0.13541635870933533" numOctaves="3" seed="7701" />
<feDisplacementMap in="shape" scale="7.3846321105957031" xChannelSelector="R" yChannelSelector="G" result="displacedImage" width="100%" height="100%" />
<feMerge result="effect1_texture_4351_10870">
<feMergeNode in="displacedImage"/>
</feMerge>
</filter>
<filter id="filter10_g_4351_10870" x="10.4034" y="18.4542" width="8.71764" height="8.17565" filterUnits="userSpaceOnUse" color-interpolation-filters="sRGB">
<feFlood flood-opacity="0" result="BackgroundImageFix"/>
<feBlend mode="normal" in="SourceGraphic" in2="BackgroundImageFix" result="shape"/>
<feTurbulence type="fractalNoise" baseFrequency="0.13541635870933533 0.13541635870933533" numOctaves="3" seed="7701" />
<feDisplacementMap in="shape" scale="7.3846321105957031" xChannelSelector="R" yChannelSelector="G" result="displacedImage" width="100%" height="100%" />
<feMerge result="effect1_texture_4351_10870">
<feMergeNode in="displacedImage"/>
</feMerge>
</filter>
<filter id="filter11_g_4351_10870" x="20.4034" y="7.45417" width="8.71764" height="8.17565" filterUnits="userSpaceOnUse" color-interpolation-filters="sRGB">
<feFlood flood-opacity="0" result="BackgroundImageFix"/>
<feBlend mode="normal" in="SourceGraphic" in2="BackgroundImageFix" result="shape"/>
<feTurbulence type="fractalNoise" baseFrequency="0.13541635870933533 0.13541635870933533" numOctaves="3" seed="7701" />
<feDisplacementMap in="shape" scale="7.3846321105957031" xChannelSelector="R" yChannelSelector="G" result="displacedImage" width="100%" height="100%" />
<feMerge result="effect1_texture_4351_10870">
<feMergeNode in="displacedImage"/>
</feMerge>
</filter>
<filter id="filter12_g_4351_10870" x="9.57148" y="23.5715" width="6.82188" height="6.82188" filterUnits="userSpaceOnUse" color-interpolation-filters="sRGB">
<feFlood flood-opacity="0" result="BackgroundImageFix"/>
<feBlend mode="normal" in="SourceGraphic" in2="BackgroundImageFix" result="shape"/>
<feTurbulence type="fractalNoise" baseFrequency="0.26315790414810181 0.158730149269104" numOctaves="3" seed="7701" />
<feDisplacementMap in="shape" scale="5.4000000953674316" xChannelSelector="R" yChannelSelector="G" result="displacedImage" width="100%" height="100%" />
<feMerge result="effect1_texture_4351_10870">
<feMergeNode in="displacedImage"/>
</feMerge>
</filter>
<filter id="filter13_g_4351_10870" x="7.87148" y="10.8715" width="8.22188" height="8.22188" filterUnits="userSpaceOnUse" color-interpolation-filters="sRGB">
<feFlood flood-opacity="0" result="BackgroundImageFix"/>
<feBlend mode="normal" in="SourceGraphic" in2="BackgroundImageFix" result="shape"/>
<feTurbulence type="fractalNoise" baseFrequency="0.16927044093608856 0.16927044093608856" numOctaves="3" seed="7701" />
<feDisplacementMap in="shape" scale="6.8000001907348633" xChannelSelector="R" yChannelSelector="G" result="displacedImage" width="100%" height="100%" />
<feMerge result="effect1_texture_4351_10870">
<feMergeNode in="displacedImage"/>
</feMerge>
</filter>
<filter id="filter14_g_4351_10870" x="25.5792" y="14.5792" width="8.80651" height="8.80651" filterUnits="userSpaceOnUse" color-interpolation-filters="sRGB">
<feFlood flood-opacity="0" result="BackgroundImageFix"/>
<feBlend mode="normal" in="SourceGraphic" in2="BackgroundImageFix" result="shape"/>
<feTurbulence type="fractalNoise" baseFrequency="0.16927044093608856 0.16927044093608856" numOctaves="3" seed="7701" />
<feDisplacementMap in="shape" scale="7.3846321105957031" xChannelSelector="R" yChannelSelector="G" result="displacedImage" width="100%" height="100%" />
<feMerge result="effect1_texture_4351_10870">
<feMergeNode in="displacedImage"/>
</feMerge>
</filter>
<filter id="filter15_g_4351_10870" x="12.1816" y="29.1816" width="5.42188" height="5.42188" filterUnits="userSpaceOnUse" color-interpolation-filters="sRGB">
<feFlood flood-opacity="0" result="BackgroundImageFix"/>
<feBlend mode="normal" in="SourceGraphic" in2="BackgroundImageFix" result="shape"/>
<feTurbulence type="fractalNoise" baseFrequency="0.29017791152000427 0.29017791152000427" numOctaves="3" seed="7701" />
<feDisplacementMap in="shape" scale="4" xChannelSelector="R" yChannelSelector="G" result="displacedImage" width="100%" height="100%" />
<feMerge result="effect1_texture_4351_10870">
<feMergeNode in="displacedImage"/>
</feMerge>
</filter>
<filter id="filter16_g_4351_10870" x="20.8816" y="11.8816" width="6.02187" height="6.02187" filterUnits="userSpaceOnUse" color-interpolation-filters="sRGB">
<feFlood flood-opacity="0" result="BackgroundImageFix"/>
<feBlend mode="normal" in="SourceGraphic" in2="BackgroundImageFix" result="shape"/>
<feTurbulence type="fractalNoise" baseFrequency="0.29017791152000427 0.29017791152000427" numOctaves="3" seed="7701" />
<feDisplacementMap in="shape" scale="4.5999999046325684" xChannelSelector="R" yChannelSelector="G" result="displacedImage" width="100%" height="100%" />
<feMerge result="effect1_texture_4351_10870">
<feMergeNode in="displacedImage"/>
</feMerge>
</filter>
<filter id="filter17_g_4351_10870" x="17.9816" y="26.9816" width="3.82188" height="3.82188" filterUnits="userSpaceOnUse" color-interpolation-filters="sRGB">
<feFlood flood-opacity="0" result="BackgroundImageFix"/>
<feBlend mode="normal" in="SourceGraphic" in2="BackgroundImageFix" result="shape"/>
<feTurbulence type="fractalNoise" baseFrequency="0.42763060331344604 0.42763060331344604" numOctaves="3" seed="7701" />
<feDisplacementMap in="shape" scale="2.4000000953674316" xChannelSelector="R" yChannelSelector="G" result="displacedImage" width="100%" height="100%" />
<feMerge result="effect1_texture_4351_10870">
<feMergeNode in="displacedImage"/>
</feMerge>
</filter>
<filter id="filter18_g_4351_10870" x="29.6816" y="11.6816" width="4.42188" height="4.42188" filterUnits="userSpaceOnUse" color-interpolation-filters="sRGB">
<feFlood flood-opacity="0" result="BackgroundImageFix"/>
<feBlend mode="normal" in="SourceGraphic" in2="BackgroundImageFix" result="shape"/>
<feTurbulence type="fractalNoise" baseFrequency="0.42763060331344604 0.42763060331344604" numOctaves="3" seed="7701" />
<feDisplacementMap in="shape" scale="3" xChannelSelector="R" yChannelSelector="G" result="displacedImage" width="100%" height="100%" />
<feMerge result="effect1_texture_4351_10870">
<feMergeNode in="displacedImage"/>
</feMerge>
</filter>
<filter id="filter19_g_4351_10870" x="24.1816" y="28.1816" width="5.42188" height="5.42188" filterUnits="userSpaceOnUse" color-interpolation-filters="sRGB">
<feFlood flood-opacity="0" result="BackgroundImageFix"/>
<feBlend mode="normal" in="SourceGraphic" in2="BackgroundImageFix" result="shape"/>
<feTurbulence type="fractalNoise" baseFrequency="0.42763060331344604 0.42763060331344604" numOctaves="3" seed="7701" />
<feDisplacementMap in="shape" scale="4" xChannelSelector="R" yChannelSelector="G" result="displacedImage" width="100%" height="100%" />
<feMerge result="effect1_texture_4351_10870">
<feMergeNode in="displacedImage"/>
</feMerge>
</filter>
<radialGradient id="paint0_radial_4351_10870" cx="0" cy="0" r="1" gradientUnits="userSpaceOnUse" gradientTransform="translate(24.5 18.1626) rotate(79.5085) scale(27.4591 27.5803)">
<stop offset="0.163462" stop-color="#CD7F26"/>
<stop offset="1" stop-color="#FED391"/>
</radialGradient>
<radialGradient id="paint1_radial_4351_10870" cx="0" cy="0" r="1" gradientTransform="matrix(10 12 -13.1323 18.3626 12 27.1621)" gradientUnits="userSpaceOnUse">
<stop stop-color="#FCE0AF"/>
<stop offset="1" stop-color="#FDD693"/>
</radialGradient>
<radialGradient id="paint2_radial_4351_10870" cx="0" cy="0" r="1" gradientTransform="matrix(13.9211 18.9928 -28.8043 15.6043 8.05263 21.2842)" gradientUnits="userSpaceOnUse">
<stop stop-color="#FBD289"/>
<stop offset="1" stop-color="#F3A84B"/>
</radialGradient>
<radialGradient id="paint3_radial_4351_10870" cx="0" cy="0" r="1" gradientUnits="userSpaceOnUse" gradientTransform="translate(31.5 31.1631) rotate(-38.1572) scale(17.8045 38.2496)">
<stop stop-color="#70A83A"/>
<stop offset="1" stop-color="#D1EAAD"/>
</radialGradient>
<radialGradient id="paint4_radial_4351_10870" cx="0" cy="0" r="1" gradientUnits="userSpaceOnUse" gradientTransform="translate(31.5 31.1631) rotate(-38.1572) scale(17.8045 38.2496)">
<stop stop-color="#71A83A"/>
<stop offset="1" stop-color="#CDDB8D"/>
</radialGradient>
<radialGradient id="paint5_radial_4351_10870" cx="0" cy="0" r="1" gradientTransform="matrix(17.1018 -0.842852 1.82893 36.374 26.9974 34.7174)" gradientUnits="userSpaceOnUse">
<stop stop-color="#71A83A"/>
<stop offset="1" stop-color="#CDDB8D"/>
</radialGradient>
</defs>
</svg>
