<svg width="120" height="120" viewBox="0 0 120 120" fill="none" xmlns="http://www.w3.org/2000/svg">
<g filter="url(#filter0_g_4330_10311)">
<path d="M92.5947 63.2742C81.9538 44.0188 60.9348 36.1025 45.8185 34.2016C41.1978 33.6206 37.7483 37.9527 39.6305 42.2125C48.0985 61.3775 70.0404 69.6759 86.4753 71.9358C91.4924 72.6257 95.0442 67.7067 92.5947 63.2742Z" fill="#D9D9D9"/>
<path d="M92.5947 63.2742C81.9538 44.0188 60.9348 36.1025 45.8185 34.2016C41.1978 33.6206 37.7483 37.9527 39.6305 42.2125C48.0985 61.3775 70.0404 69.6759 86.4753 71.9358C91.4924 72.6257 95.0442 67.7067 92.5947 63.2742Z" fill="url(#paint0_radial_4330_10311)"/>
</g>
<g filter="url(#filter1_g_4330_10311)">
<path d="M67.1042 60.8035C70.6069 55.5496 81.2056 45.1853 95.93 46.1353C97.4152 46.2312 98.5417 47.5124 98.446 48.9976C98.3502 50.4828 97.0679 51.6093 95.5827 51.5135C83.5743 50.7389 74.554 59.3454 71.5887 63.7931C70.7631 65.0315 69.09 65.3661 67.8516 64.5406C66.6134 63.7149 66.2787 62.0418 67.1042 60.8035Z" fill="#6EB0FF"/>
</g>
<g filter="url(#filter2_g_4330_10311)">
<path d="M44.262 21.0579C46.0414 20.2514 47.8231 19.8894 49.5603 20.0984C51.319 20.31 52.8155 21.0817 54.038 22.1806C56.3739 24.2804 57.7585 27.6116 58.6295 30.9834C60.401 37.8415 60.5077 46.7652 60.1013 52.8275C60.0018 54.3112 58.7176 55.4334 57.2339 55.3339C55.7506 55.2342 54.6284 53.951 54.7278 52.4676C55.1187 46.6369 54.9773 38.3751 53.4156 32.3295C52.62 29.2498 51.5669 27.1998 50.4382 26.1852C49.9284 25.727 49.436 25.507 48.9172 25.4446C48.3769 25.3796 47.5921 25.4601 46.4849 25.9618C45.1307 26.5756 43.5351 25.976 42.9211 24.6219C42.3072 23.2676 42.9077 21.6717 44.262 21.0579Z" fill="#FF8274"/>
</g>
<g filter="url(#filter3_g_4330_10311)">
<path d="M88.4579 64.3154C68.0615 59.2201 53.2045 47.6609 44.6522 38.3118C42.2818 35.7205 37.3218 36.9616 36.8728 40.4448L30.2192 92.0624C29.2053 99.9281 37.8572 105.383 44.517 101.076L89.9118 71.7231C92.8265 69.8384 91.8254 65.1566 88.4579 64.3154Z" fill="#D9D9D9"/>
<path d="M88.4579 64.3154C68.0615 59.2201 53.2045 47.6609 44.6522 38.3118C42.2818 35.7205 37.3218 36.9616 36.8728 40.4448L30.2192 92.0624C29.2053 99.9281 37.8572 105.383 44.517 101.076L89.9118 71.7231C92.8265 69.8384 91.8254 65.1566 88.4579 64.3154Z" fill="url(#paint1_radial_4330_10311)"/>
</g>
<g filter="url(#filter4_g_4330_10311)">
<path d="M17.1704 30.6838C18.1003 29.5756 19.7521 29.4306 20.8602 30.3604C21.9684 31.2903 22.1124 32.9422 21.1826 34.0504C20.3615 35.0289 19.5177 36.2299 18.8843 37.3803C18.5539 37.9804 18.325 38.489 18.175 38.8953C18.2758 38.8742 18.3852 38.8498 18.5032 38.8202C19.2747 38.6272 20.2985 38.2714 21.6233 37.687C22.849 37.1463 23.8585 36.7554 24.6536 36.5353C25.0426 36.4276 25.4959 36.3283 25.9577 36.3071C26.3119 36.2909 27.2638 36.2825 28.108 36.9691C29.1948 37.8532 29.2236 39.0871 29.1049 39.7384C28.9983 40.3227 28.7406 40.7909 28.5854 41.0488C28.2479 41.6094 27.7587 42.1898 27.3161 42.6849C26.4333 43.6723 25.1004 44.9991 24.1354 46.0173C23.6598 46.5192 23.2421 46.9776 22.9061 47.3792C23.4767 47.0852 24.1665 46.6773 24.9831 46.1174C25.8798 45.5025 26.7314 45.0123 27.5275 44.707C28.2449 44.4319 29.3524 44.1351 30.5024 44.5242C31.9192 45.0035 32.5475 46.1917 32.7371 47.1474C32.9048 47.9931 32.7924 48.8377 32.6531 49.4824C32.1024 52.0299 30.1685 55.5826 28.3382 58.1608C27.5007 59.3401 25.8657 59.6168 24.6861 58.7795C23.5067 57.942 23.2291 56.3072 24.0664 55.1276C24.8927 53.9638 25.6597 52.6841 26.2679 51.5045C25.1971 52.1316 24.2139 52.5944 23.3116 52.8864C22.0196 53.3043 20.4923 53.5048 19.1119 52.8485C17.5429 52.1024 16.9225 50.6391 16.827 49.3844C16.7374 48.2067 17.0627 47.0361 17.5114 46.0556C17.826 45.3682 18.3247 44.7026 18.7628 44.168C18.7806 44.1463 18.799 44.125 18.817 44.1032C17.9844 44.2452 17.2164 44.2823 16.5177 44.1915C15.4464 44.0523 14.3369 43.5866 13.5623 42.572C12.8221 41.6022 12.6695 40.4958 12.7026 39.6312C12.7653 37.992 13.5263 36.2498 14.2953 34.8529C15.1124 33.3689 16.1582 31.8901 17.1704 30.6838Z" fill="#6EB0FF"/>
</g>
<g filter="url(#filter5_g_4330_10311)">
<rect x="26.1729" y="64.8027" width="5.42501" height="5.42501" transform="rotate(9.77745 26.1729 64.8027)" fill="#E25C50"/>
</g>
<g filter="url(#filter6_g_4330_10311)">
<rect x="86.123" y="78.0029" width="5.42501" height="5.42501" transform="rotate(55.5107 86.123 78.0029)" fill="#6EB0FF"/>
</g>
<g filter="url(#filter7_g_4330_10311)">
<rect x="99.0947" y="70.8027" width="5.42501" height="5.42501" transform="rotate(19.861 99.0947 70.8027)" fill="#FF941A"/>
</g>
<g filter="url(#filter8_g_4330_10311)">
<rect x="102.052" y="81.8418" width="5.42501" height="5.42501" transform="rotate(-15.3719 102.052 81.8418)" fill="#FF8FDE"/>
</g>
<g filter="url(#filter9_g_4330_10311)">
<rect x="103.251" y="63.8418" width="5.42501" height="5.42501" transform="rotate(-15.3719 103.251 63.8418)" fill="#FF941A"/>
</g>
<g filter="url(#filter10_g_4330_10311)">
<rect x="92.4517" y="58.8828" width="5.42501" height="5.42501" transform="rotate(-42.7222 92.4517 58.8828)" fill="#FFD466"/>
</g>
<g filter="url(#filter11_g_4330_10311)">
<rect x="62.4517" y="33.6826" width="5.42501" height="5.42501" transform="rotate(-42.7222 62.4517 33.6826)" fill="#00CB89"/>
</g>
<g filter="url(#filter12_g_4330_10311)">
<rect x="57.6514" y="22.8828" width="5.42501" height="5.42501" transform="rotate(-42.7222 57.6514 22.8828)" fill="#00CB89"/>
</g>
<g filter="url(#filter13_g_4330_10311)">
<rect x="30.0518" y="34.8828" width="5.42501" height="5.42501" transform="rotate(-42.7222 30.0518 34.8828)" fill="#FFD466"/>
</g>
<g filter="url(#filter14_g_4330_10311)">
<rect x="79.2515" y="20.4824" width="5.42501" height="5.42501" transform="rotate(-42.7222 79.2515 20.4824)" fill="#FF8FDE"/>
</g>
<g filter="url(#filter15_g_4330_10311)">
<path d="M98.2359 17.3475C99.2545 16.5089 100.76 16.6547 101.599 17.6732C102.778 19.1047 103.538 21.475 103.494 23.6529C103.448 25.9301 102.437 28.7862 99.1971 29.7632C95.6043 30.8465 92.9983 29.9679 91.3212 29.3797C91.2184 29.3437 91.1241 29.3104 91.0366 29.2799C91.5094 29.8806 92.1559 30.5551 92.9141 31.358C93.3647 31.8352 93.8542 32.361 94.27 32.8763C94.6608 33.3607 95.1344 34.0116 95.4066 34.7473C95.6982 35.536 95.8789 36.8211 94.9792 37.976C94.2305 38.9368 93.1072 39.2767 92.2973 39.4299C89.3398 39.9892 86.5966 39.0321 84.6845 37.8127C84.3242 37.583 83.9366 37.3694 83.5675 37.2062C83.5222 37.1861 83.4776 37.1687 83.435 37.1511C83.4087 38.0192 83.5249 38.9633 83.6898 39.6706C83.9895 40.9555 83.1913 42.2404 81.9065 42.5401C80.6218 42.8398 79.3369 42.0415 79.037 40.7568C78.7258 39.4224 78.4515 37.2383 78.8495 35.2558L78.8943 35.0561C79.1405 34.0622 79.7258 33.1503 80.7279 32.6085C81.689 32.0889 82.6952 32.0983 83.4164 32.2035C84.8389 32.4109 86.272 33.1583 87.2535 33.7842C87.9319 34.2169 88.7052 34.5479 89.5053 34.7081C89.4839 34.6854 89.4627 34.6621 89.4409 34.639C88.6138 33.7632 87.4224 32.5506 86.6517 31.3599C86.2592 30.7535 85.8407 29.9572 85.7008 29.0419C85.5455 28.0263 85.7487 26.9221 86.5145 25.9746C87.4654 24.7981 88.6866 24.1885 90.0988 24.2109C91.183 24.2282 92.2761 24.6512 92.902 24.8707C94.3356 25.3735 95.727 25.8193 97.8179 25.1889C98.1793 25.0798 98.339 24.9173 98.4478 24.7363C98.5861 24.5059 98.706 24.1189 98.7174 23.5559C98.7421 22.3363 98.2552 21.1286 97.9103 20.7097C97.072 19.6913 97.2178 18.1861 98.2359 17.3475Z" fill="#FF8274"/>
</g>
<defs>
<filter id="filter0_g_4330_10311" x="37.9921" y="33.035" width="56.511" height="40.0803" filterUnits="userSpaceOnUse" color-interpolation-filters="sRGB">
<feFlood flood-opacity="0" result="BackgroundImageFix"/>
<feBlend mode="normal" in="SourceGraphic" in2="BackgroundImageFix" result="shape"/>
<feTurbulence type="fractalNoise" baseFrequency="0.27849265933036804 0.27849265933036804" numOctaves="3" seed="7701" />
<feDisplacementMap in="shape" scale="2.2287466526031494" xChannelSelector="R" yChannelSelector="G" result="displacedImage" width="100%" height="100%" />
<feMerge result="effect1_texture_4330_10311">
<feMergeNode in="displacedImage"/>
</feMerge>
</filter>
<filter id="filter1_g_4330_10311" x="65.666" y="45.0888" width="33.7711" height="20.8897" filterUnits="userSpaceOnUse" color-interpolation-filters="sRGB">
<feFlood flood-opacity="0" result="BackgroundImageFix"/>
<feBlend mode="normal" in="SourceGraphic" in2="BackgroundImageFix" result="shape"/>
<feTurbulence type="fractalNoise" baseFrequency="0.31494432687759399 0.31494432687759399" numOctaves="3" seed="7701" />
<feDisplacementMap in="shape" scale="1.9707916975021362" xChannelSelector="R" yChannelSelector="G" result="displacedImage" width="100%" height="100%" />
<feMerge result="effect1_texture_4330_10311">
<feMergeNode in="displacedImage"/>
</feMerge>
</filter>
<filter id="filter2_g_4330_10311" x="41.6957" y="19.0555" width="19.5862" height="37.2688" filterUnits="userSpaceOnUse" color-interpolation-filters="sRGB">
<feFlood flood-opacity="0" result="BackgroundImageFix"/>
<feBlend mode="normal" in="SourceGraphic" in2="BackgroundImageFix" result="shape"/>
<feTurbulence type="fractalNoise" baseFrequency="0.31523391604423523 0.31523391604423523" numOctaves="3" seed="7701" />
<feDisplacementMap in="shape" scale="1.968981146812439" xChannelSelector="R" yChannelSelector="G" result="displacedImage" width="100%" height="100%" />
<feMerge result="effect1_texture_4330_10311">
<feMergeNode in="displacedImage"/>
</feMerge>
</filter>
<filter id="filter3_g_4330_10311" x="29.0407" y="35.8317" width="63.6856" height="67.857" filterUnits="userSpaceOnUse" color-interpolation-filters="sRGB">
<feFlood flood-opacity="0" result="BackgroundImageFix"/>
<feBlend mode="normal" in="SourceGraphic" in2="BackgroundImageFix" result="shape"/>
<feTurbulence type="fractalNoise" baseFrequency="0.28291323781013489 0.28291323781013489" numOctaves="3" seed="7701" />
<feDisplacementMap in="shape" scale="2.1939222812652588" xChannelSelector="R" yChannelSelector="G" result="displacedImage" width="100%" height="100%" />
<feMerge result="effect1_texture_4330_10311">
<feMergeNode in="displacedImage"/>
</feMerge>
</filter>
<filter id="filter4_g_4330_10311" x="11.7405" y="28.7903" width="22.0386" height="31.4312" filterUnits="userSpaceOnUse" color-interpolation-filters="sRGB">
<feFlood flood-opacity="0" result="BackgroundImageFix"/>
<feBlend mode="normal" in="SourceGraphic" in2="BackgroundImageFix" result="shape"/>
<feTurbulence type="fractalNoise" baseFrequency="0.32402181625366211 0.32402181625366211" numOctaves="3" seed="7701" />
<feDisplacementMap in="shape" scale="1.9155796766281128" xChannelSelector="R" yChannelSelector="G" result="displacedImage" width="100%" height="100%" />
<feMerge result="effect1_texture_4330_10311">
<feMergeNode in="displacedImage"/>
</feMerge>
</filter>
<filter id="filter5_g_4330_10311" x="24.2596" y="63.8109" width="8.25125" height="8.25125" filterUnits="userSpaceOnUse" color-interpolation-filters="sRGB">
<feFlood flood-opacity="0" result="BackgroundImageFix"/>
<feBlend mode="normal" in="SourceGraphic" in2="BackgroundImageFix" result="shape"/>
<feTurbulence type="fractalNoise" baseFrequency="0.31289878487586975 0.31289878487586975" numOctaves="3" seed="7701" />
<feDisplacementMap in="shape" scale="1.983675479888916" xChannelSelector="R" yChannelSelector="G" result="displacedImage" width="100%" height="100%" />
<feMerge result="effect1_texture_4330_10311">
<feMergeNode in="displacedImage"/>
</feMerge>
</filter>
<filter id="filter6_g_4330_10311" x="80.6595" y="77.0111" width="9.52713" height="9.52664" filterUnits="userSpaceOnUse" color-interpolation-filters="sRGB">
<feFlood flood-opacity="0" result="BackgroundImageFix"/>
<feBlend mode="normal" in="SourceGraphic" in2="BackgroundImageFix" result="shape"/>
<feTurbulence type="fractalNoise" baseFrequency="0.31289878487586975 0.31289878487586975" numOctaves="3" seed="7701" />
<feDisplacementMap in="shape" scale="1.983675479888916" xChannelSelector="R" yChannelSelector="G" result="displacedImage" width="100%" height="100%" />
<feMerge result="effect1_texture_4330_10311">
<feMergeNode in="displacedImage"/>
</feMerge>
</filter>
<filter id="filter7_g_4330_10311" x="96.2596" y="69.8109" width="8.92948" height="8.92899" filterUnits="userSpaceOnUse" color-interpolation-filters="sRGB">
<feFlood flood-opacity="0" result="BackgroundImageFix"/>
<feBlend mode="normal" in="SourceGraphic" in2="BackgroundImageFix" result="shape"/>
<feTurbulence type="fractalNoise" baseFrequency="0.31289878487586975 0.31289878487586975" numOctaves="3" seed="7701" />
<feDisplacementMap in="shape" scale="1.983675479888916" xChannelSelector="R" yChannelSelector="G" result="displacedImage" width="100%" height="100%" />
<feMerge result="effect1_texture_4330_10311">
<feMergeNode in="displacedImage"/>
</feMerge>
</filter>
<filter id="filter8_g_4330_10311" x="101.06" y="79.4115" width="8.65262" height="8.65262" filterUnits="userSpaceOnUse" color-interpolation-filters="sRGB">
<feFlood flood-opacity="0" result="BackgroundImageFix"/>
<feBlend mode="normal" in="SourceGraphic" in2="BackgroundImageFix" result="shape"/>
<feTurbulence type="fractalNoise" baseFrequency="0.31289878487586975 0.31289878487586975" numOctaves="3" seed="7701" />
<feDisplacementMap in="shape" scale="1.983675479888916" xChannelSelector="R" yChannelSelector="G" result="displacedImage" width="100%" height="100%" />
<feMerge result="effect1_texture_4330_10311">
<feMergeNode in="displacedImage"/>
</feMerge>
</filter>
<filter id="filter9_g_4330_10311" x="102.26" y="61.4115" width="8.65262" height="8.65262" filterUnits="userSpaceOnUse" color-interpolation-filters="sRGB">
<feFlood flood-opacity="0" result="BackgroundImageFix"/>
<feBlend mode="normal" in="SourceGraphic" in2="BackgroundImageFix" result="shape"/>
<feTurbulence type="fractalNoise" baseFrequency="0.31289878487586975 0.31289878487586975" numOctaves="3" seed="7701" />
<feDisplacementMap in="shape" scale="1.983675479888916" xChannelSelector="R" yChannelSelector="G" result="displacedImage" width="100%" height="100%" />
<feMerge result="effect1_texture_4330_10311">
<feMergeNode in="displacedImage"/>
</feMerge>
</filter>
<filter id="filter10_g_4330_10311" x="91.4598" y="54.2103" width="9.64969" height="9.64969" filterUnits="userSpaceOnUse" color-interpolation-filters="sRGB">
<feFlood flood-opacity="0" result="BackgroundImageFix"/>
<feBlend mode="normal" in="SourceGraphic" in2="BackgroundImageFix" result="shape"/>
<feTurbulence type="fractalNoise" baseFrequency="0.31289878487586975 0.31289878487586975" numOctaves="3" seed="7701" />
<feDisplacementMap in="shape" scale="1.983675479888916" xChannelSelector="R" yChannelSelector="G" result="displacedImage" width="100%" height="100%" />
<feMerge result="effect1_texture_4330_10311">
<feMergeNode in="displacedImage"/>
</feMerge>
</filter>
<filter id="filter11_g_4330_10311" x="61.4598" y="29.0101" width="9.64969" height="9.64969" filterUnits="userSpaceOnUse" color-interpolation-filters="sRGB">
<feFlood flood-opacity="0" result="BackgroundImageFix"/>
<feBlend mode="normal" in="SourceGraphic" in2="BackgroundImageFix" result="shape"/>
<feTurbulence type="fractalNoise" baseFrequency="0.31289878487586975 0.31289878487586975" numOctaves="3" seed="7701" />
<feDisplacementMap in="shape" scale="1.983675479888916" xChannelSelector="R" yChannelSelector="G" result="displacedImage" width="100%" height="100%" />
<feMerge result="effect1_texture_4330_10311">
<feMergeNode in="displacedImage"/>
</feMerge>
</filter>
<filter id="filter12_g_4330_10311" x="56.6595" y="18.2103" width="9.64969" height="9.64969" filterUnits="userSpaceOnUse" color-interpolation-filters="sRGB">
<feFlood flood-opacity="0" result="BackgroundImageFix"/>
<feBlend mode="normal" in="SourceGraphic" in2="BackgroundImageFix" result="shape"/>
<feTurbulence type="fractalNoise" baseFrequency="0.31289878487586975 0.31289878487586975" numOctaves="3" seed="7701" />
<feDisplacementMap in="shape" scale="1.983675479888916" xChannelSelector="R" yChannelSelector="G" result="displacedImage" width="100%" height="100%" />
<feMerge result="effect1_texture_4330_10311">
<feMergeNode in="displacedImage"/>
</feMerge>
</filter>
<filter id="filter13_g_4330_10311" x="29.0599" y="30.2103" width="9.64969" height="9.64969" filterUnits="userSpaceOnUse" color-interpolation-filters="sRGB">
<feFlood flood-opacity="0" result="BackgroundImageFix"/>
<feBlend mode="normal" in="SourceGraphic" in2="BackgroundImageFix" result="shape"/>
<feTurbulence type="fractalNoise" baseFrequency="0.31289878487586975 0.31289878487586975" numOctaves="3" seed="7701" />
<feDisplacementMap in="shape" scale="1.983675479888916" xChannelSelector="R" yChannelSelector="G" result="displacedImage" width="100%" height="100%" />
<feMerge result="effect1_texture_4330_10311">
<feMergeNode in="displacedImage"/>
</feMerge>
</filter>
<filter id="filter14_g_4330_10311" x="78.2596" y="15.8099" width="9.64969" height="9.64969" filterUnits="userSpaceOnUse" color-interpolation-filters="sRGB">
<feFlood flood-opacity="0" result="BackgroundImageFix"/>
<feBlend mode="normal" in="SourceGraphic" in2="BackgroundImageFix" result="shape"/>
<feTurbulence type="fractalNoise" baseFrequency="0.31289878487586975 0.31289878487586975" numOctaves="3" seed="7701" />
<feDisplacementMap in="shape" scale="1.983675479888916" xChannelSelector="R" yChannelSelector="G" result="displacedImage" width="100%" height="100%" />
<feMerge result="effect1_texture_4330_10311">
<feMergeNode in="displacedImage"/>
</feMerge>
</filter>
<filter id="filter15_g_4330_10311" x="77.7779" y="15.9292" width="26.5917" height="27.5478" filterUnits="userSpaceOnUse" color-interpolation-filters="sRGB">
<feFlood flood-opacity="0" result="BackgroundImageFix"/>
<feBlend mode="normal" in="SourceGraphic" in2="BackgroundImageFix" result="shape"/>
<feTurbulence type="fractalNoise" baseFrequency="0.35528531670570374 0.35528531670570374" numOctaves="3" seed="7701" />
<feDisplacementMap in="shape" scale="1.747017502784729" xChannelSelector="R" yChannelSelector="G" result="displacedImage" width="100%" height="100%" />
<feMerge result="effect1_texture_4330_10311">
<feMergeNode in="displacedImage"/>
</feMerge>
</filter>
<radialGradient id="paint0_radial_4330_10311" cx="0" cy="0" r="1" gradientUnits="userSpaceOnUse" gradientTransform="translate(66.7778 57.3566) rotate(-57.0275) scale(24.0225 35.4134)">
<stop offset="0.163462" stop-color="#FFBF21"/>
<stop offset="1" stop-color="#FFF9E5"/>
</radialGradient>
<radialGradient id="paint1_radial_4330_10311" cx="0" cy="0" r="1" gradientUnits="userSpaceOnUse" gradientTransform="translate(57.0516 81.6027) rotate(86.8202) scale(54.0833 74.8616)">
<stop offset="0.163462" stop-color="#FFBF21"/>
<stop offset="1" stop-color="#FFF9E5"/>
</radialGradient>
</defs>
</svg>
