<svg width="12" height="14" viewBox="0 0 12 14" fill="none" xmlns="http://www.w3.org/2000/svg">
<path d="M5.83088 13.7092C3.73169 12.5148 2.17359 11.0743 0.986222 9.18273C-0.621988 6.62478 -0.246238 3.30306 1.98822 1.38589C4.22268 -0.531291 7.47419 -0.428778 9.57839 1.50378C11.6826 3.43633 12.0483 6.73243 10.385 9.30575C9.25774 11.0538 7.72466 12.3507 5.83088 13.7143V13.7092ZM8.0353 5.87639C8.0353 4.57435 7.00324 3.51325 5.72569 3.51325C4.44814 3.51325 3.41606 4.56923 3.41606 5.87639C3.41606 7.18356 4.44814 8.23954 5.72569 8.23954C7.00324 8.23954 8.0353 7.18356 8.0353 5.87639Z" fill="#B0B3BA"/>
</svg>
