<svg width="12" height="12" viewBox="0 0 12 12" fill="none" xmlns="http://www.w3.org/2000/svg">
<path d="M4.76877 0.560731C5.11358 -0.188571 6.13772 -0.186534 6.47955 0.564134L7.44573 2.6859C7.5833 2.98801 7.85816 3.19703 8.17616 3.24137L10.4095 3.55278C11.1997 3.66295 11.5141 4.67888 10.9348 5.24985L9.29735 6.86369C9.06421 7.09348 8.95839 7.43059 9.01615 7.75955L9.42182 10.0699C9.56535 10.8873 8.73555 11.5132 8.03569 11.1154L6.05751 9.99101C5.77585 9.83092 5.43559 9.83024 5.1533 9.98921L3.17066 11.1057C2.46922 11.5007 1.64192 10.8715 1.7887 10.0547L2.20356 7.746C2.26263 7.41727 2.15815 7.07974 1.92592 6.84903L0.294918 5.22868C-0.282122 4.65542 0.0363734 3.64074 0.826952 3.53371L3.06153 3.2312C3.37969 3.18812 3.65538 2.98019 3.79415 2.67864L4.76877 0.560731Z" fill="#B0B3BA"/>
</svg>
