<svg width="12" height="13" viewBox="0 0 12 13" fill="none" xmlns="http://www.w3.org/2000/svg">
<path d="M5.04925 0.375769C5.23556 -0.125416 5.94445 -0.125415 6.13077 0.37577L6.66325 1.80815C7.18383 3.20848 8.22732 4.35226 9.57414 4.9988L10.8528 5.61261C11.2891 5.82207 11.2891 6.44334 10.8528 6.65279L9.57414 7.2666C8.22732 7.91314 7.18383 9.05693 6.66325 10.4573L6.13077 11.8896C5.94445 12.3908 5.23556 12.3908 5.04925 11.8896L4.51676 10.4573C3.99619 9.05693 2.95269 7.91314 1.60588 7.2666L0.32725 6.65279C-0.109078 6.44334 -0.109077 5.82207 0.32725 5.61261L1.60588 4.9988C2.95269 4.35226 3.99619 3.20847 4.51676 1.80814L5.04925 0.375769Z" fill="white"/>
</svg>
