<svg width="24" height="24" viewBox="0 0 24 24" fill="none" xmlns="http://www.w3.org/2000/svg">
<path d="M9.74055 6.01641C9.98897 5.34816 10.9342 5.34816 11.1826 6.01641L11.8926 7.92624C12.5867 9.79335 13.978 11.3184 15.7737 12.1804L17.4786 12.9989C18.0603 13.2781 18.0603 14.1065 17.4786 14.3858L15.7737 15.2042C13.978 16.0662 12.5867 17.5913 11.8926 19.4584L11.1826 21.3682C10.9342 22.0365 9.98897 22.0365 9.74055 21.3682L9.03057 19.4584C8.33647 17.5913 6.94514 16.0662 5.14939 15.2042L3.44455 14.3858C2.86278 14.1065 2.86278 13.2781 3.44455 12.9989L5.14939 12.1805C6.94514 11.3184 8.33647 9.79335 9.03057 7.92624L9.74055 6.01641Z" fill="white"/>
<path d="M17.7184 2.23665C17.8631 1.82561 18.4444 1.82561 18.5891 2.23665L18.9886 3.37133C19.1859 3.93186 19.5919 4.39465 20.1219 4.66334L21.1879 5.20374C21.525 5.37464 21.525 5.85615 21.1879 6.02706L20.1219 6.56745C19.5919 6.83614 19.1859 7.29894 18.9886 7.85946L18.5891 8.99415C18.4444 9.40518 17.8631 9.40518 17.7184 8.99415L17.319 7.85946C17.1217 7.29894 16.7157 6.83614 16.1857 6.56745L15.1197 6.02706C14.7825 5.85615 14.7825 5.37464 15.1197 5.20374L16.1857 4.66334C16.7157 4.39466 17.1217 3.93186 17.319 3.37133L17.7184 2.23665Z" fill="white"/>
</svg>
