<svg width="22" height="22" viewBox="0 0 22 22" fill="none" xmlns="http://www.w3.org/2000/svg">
<path d="M15.7451 0.392976C19.1231 1.11873 21.1538 2.98315 22 6.08937C22 7.48483 21.9163 8.7628 21.1598 9.75319C20.8583 10.1478 20.6355 10.6227 20.6797 11.1234L21.3881 19.1527C21.523 20.6816 20.3588 22 18.874 22H3.12602C1.64117 22 0.476981 20.6816 0.611867 19.1527L1.32029 11.1234C1.36446 10.6227 1.14169 10.1478 0.840299 9.7532C0.0838107 8.76279 0 7.48475 0 6.08937C0.507692 2.98315 2.70769 1.11876 6.2549 0.392976C8.17148 0.000831771 9.27451 0.000120715 11 0.000120715C12.5098 0.000120715 13.8318 -0.0180943 15.7451 0.392976Z" fill="#555D6D"/>
</svg>
