<svg width="908" height="569" viewBox="0 0 908 569" fill="none" xmlns="http://www.w3.org/2000/svg">
<g filter="url(#filter0_g_4485_16741)">
<path d="M9.28516 320C9.28516 224.648 86.5829 147.351 181.935 147.351C277.286 147.351 354.584 224.648 354.584 320V413.525C354.584 442.926 330.75 466.76 301.349 466.76H96.5754C48.3663 466.76 9.28516 427.678 9.28516 379.469V320Z" fill="#FFC943"/>
<path d="M9.28516 320C9.28516 224.648 86.5829 147.351 181.935 147.351C277.286 147.351 354.584 224.648 354.584 320V413.525C354.584 442.926 330.75 466.76 301.349 466.76H96.5754C48.3663 466.76 9.28516 427.678 9.28516 379.469V320Z" fill="url(#paint0_radial_4485_16741)"/>
</g>
<g filter="url(#filter1_g_4485_16741)">
<path d="M553.137 320C553.137 224.648 630.434 147.351 725.786 147.351C821.138 147.351 898.435 224.648 898.435 320V379.469C898.435 427.678 859.354 466.76 811.145 466.76H606.372C576.971 466.76 553.137 442.926 553.137 413.525V320Z" fill="#FFC943"/>
<path d="M553.137 320C553.137 224.648 630.434 147.351 725.786 147.351C821.138 147.351 898.435 224.648 898.435 320V379.469C898.435 427.678 859.354 466.76 811.145 466.76H606.372C576.971 466.76 553.137 442.926 553.137 413.525V320Z" fill="url(#paint1_radial_4485_16741)"/>
</g>
<g filter="url(#filter2_g_4485_16741)">
<path d="M233.728 233.732C233.728 109.774 334.216 9.28564 458.174 9.28564C582.132 9.28564 682.62 109.774 682.62 233.732V390.562C682.62 432.677 648.479 466.818 606.365 466.818H309.983C267.868 466.818 233.728 432.677 233.728 390.562V233.732Z" fill="#FFC943"/>
<path d="M233.728 233.732C233.728 109.774 334.216 9.28564 458.174 9.28564C582.132 9.28564 682.62 109.774 682.62 233.732V390.562C682.62 432.677 648.479 466.818 606.365 466.818H309.983C267.868 466.818 233.728 432.677 233.728 390.562V233.732Z" fill="url(#paint2_radial_4485_16741)"/>
</g>
<g filter="url(#filter3_g_4485_16741)">
<circle cx="236.802" cy="461.226" r="98.0594" fill="url(#paint3_radial_4485_16741)"/>
</g>
<g filter="url(#filter4_g_4485_16741)">
<circle cx="685.725" cy="461.226" r="98.0594" fill="url(#paint4_radial_4485_16741)"/>
</g>
<defs>
<filter id="filter0_g_4485_16741" x="-0.0004673" y="138.065" width="363.87" height="337.98" filterUnits="userSpaceOnUse" color-interpolation-filters="sRGB">
<feFlood flood-opacity="0" result="BackgroundImageFix"/>
<feBlend mode="normal" in="SourceGraphic" in2="BackgroundImageFix" result="shape"/>
<feTurbulence type="fractalNoise" baseFrequency="0.034008443355560303 0.034008443355560303" numOctaves="3" seed="7701" />
<feDisplacementMap in="shape" scale="18.571247100830078" xChannelSelector="R" yChannelSelector="G" result="displacedImage" width="100%" height="100%" />
<feMerge result="effect1_texture_4485_16741">
<feMergeNode in="displacedImage"/>
</feMerge>
</filter>
<filter id="filter1_g_4485_16741" x="543.851" y="138.065" width="363.87" height="337.98" filterUnits="userSpaceOnUse" color-interpolation-filters="sRGB">
<feFlood flood-opacity="0" result="BackgroundImageFix"/>
<feBlend mode="normal" in="SourceGraphic" in2="BackgroundImageFix" result="shape"/>
<feTurbulence type="fractalNoise" baseFrequency="0.034008443355560303 0.034008443355560303" numOctaves="3" seed="7701" />
<feDisplacementMap in="shape" scale="18.571247100830078" xChannelSelector="R" yChannelSelector="G" result="displacedImage" width="100%" height="100%" />
<feMerge result="effect1_texture_4485_16741">
<feMergeNode in="displacedImage"/>
</feMerge>
</filter>
<filter id="filter2_g_4485_16741" x="224.442" y="2.09808e-05" width="467.464" height="476.103" filterUnits="userSpaceOnUse" color-interpolation-filters="sRGB">
<feFlood flood-opacity="0" result="BackgroundImageFix"/>
<feBlend mode="normal" in="SourceGraphic" in2="BackgroundImageFix" result="shape"/>
<feTurbulence type="fractalNoise" baseFrequency="0.034008443355560303 0.034008443355560303" numOctaves="3" seed="7701" />
<feDisplacementMap in="shape" scale="18.571247100830078" xChannelSelector="R" yChannelSelector="G" result="displacedImage" width="100%" height="100%" />
<feMerge result="effect1_texture_4485_16741">
<feMergeNode in="displacedImage"/>
</feMerge>
</filter>
<filter id="filter3_g_4485_16741" x="129.457" y="353.881" width="214.69" height="214.69" filterUnits="userSpaceOnUse" color-interpolation-filters="sRGB">
<feFlood flood-opacity="0" result="BackgroundImageFix"/>
<feBlend mode="normal" in="SourceGraphic" in2="BackgroundImageFix" result="shape"/>
<feTurbulence type="fractalNoise" baseFrequency="0.034008443355560303 0.034008443355560303" numOctaves="3" seed="7701" />
<feDisplacementMap in="shape" scale="18.571247100830078" xChannelSelector="R" yChannelSelector="G" result="displacedImage" width="100%" height="100%" />
<feMerge result="effect1_texture_4485_16741">
<feMergeNode in="displacedImage"/>
</feMerge>
</filter>
<filter id="filter4_g_4485_16741" x="578.38" y="353.881" width="214.69" height="214.69" filterUnits="userSpaceOnUse" color-interpolation-filters="sRGB">
<feFlood flood-opacity="0" result="BackgroundImageFix"/>
<feBlend mode="normal" in="SourceGraphic" in2="BackgroundImageFix" result="shape"/>
<feTurbulence type="fractalNoise" baseFrequency="0.034008443355560303 0.034008443355560303" numOctaves="3" seed="7701" />
<feDisplacementMap in="shape" scale="18.571247100830078" xChannelSelector="R" yChannelSelector="G" result="displacedImage" width="100%" height="100%" />
<feMerge result="effect1_texture_4485_16741">
<feMergeNode in="displacedImage"/>
</feMerge>
</filter>
<radialGradient id="paint0_radial_4485_16741" cx="0" cy="0" r="1" gradientUnits="userSpaceOnUse" gradientTransform="translate(181.935 307.055) rotate(90) scale(230.431 249.108)">
<stop offset="0.163462" stop-color="#FFBF21"/>
<stop offset="1" stop-color="#FFEBA8"/>
</radialGradient>
<radialGradient id="paint1_radial_4485_16741" cx="0" cy="0" r="1" gradientUnits="userSpaceOnUse" gradientTransform="translate(725.786 307.055) rotate(90) scale(230.431 249.108)">
<stop offset="0.163462" stop-color="#FFBF21"/>
<stop offset="1" stop-color="#FFEBA8"/>
</radialGradient>
<radialGradient id="paint2_radial_4485_16741" cx="0" cy="0" r="1" gradientUnits="userSpaceOnUse" gradientTransform="translate(458.174 238.052) rotate(90) scale(330.077 323.844)">
<stop offset="0.163462" stop-color="#FFBF21"/>
<stop offset="1" stop-color="#FFEBA8"/>
</radialGradient>
<radialGradient id="paint3_radial_4485_16741" cx="0" cy="0" r="1" gradientUnits="userSpaceOnUse" gradientTransform="translate(236.802 461.226) rotate(90) scale(98.0594 153.43)">
<stop stop-color="#9A6B1E"/>
<stop offset="1" stop-color="#EBC381"/>
</radialGradient>
<radialGradient id="paint4_radial_4485_16741" cx="0" cy="0" r="1" gradientUnits="userSpaceOnUse" gradientTransform="translate(685.725 461.226) rotate(90) scale(98.0594 153.43)">
<stop stop-color="#9A6B1E"/>
<stop offset="1" stop-color="#EBC381"/>
</radialGradient>
</defs>
</svg>
