<svg width="64" height="64" viewBox="0 0 64 64" fill="none" xmlns="http://www.w3.org/2000/svg">
<g clip-path="url(#clip0_4710_8136)">
<path d="M0 32C0 14.3269 14.3269 0 32 0C49.6731 0 64 14.3269 64 32C64 49.6731 49.6731 64 32 64C14.3269 64 0 49.6731 0 32Z" fill="#6EB0FF"/>
<g filter="url(#filter0_g_4710_8136)">
<path d="M43.4214 18.8792C51.2353 20.503 55.9329 24.6744 57.8902 31.6241C57.8902 34.7462 57.6966 37.6055 55.9466 39.8213C55.2493 40.7041 54.7339 41.7666 54.8361 42.887L56.4748 60.8513C56.7869 64.2718 54.0939 67.2217 50.6591 67.2217H14.2311C10.7963 67.2217 8.10335 64.2719 8.41537 60.8513L10.0541 42.8869C10.1563 41.7666 9.64096 40.7041 8.94377 39.8213C7.19387 37.6054 7 34.746 7 31.6241C8.17439 24.6744 13.2634 20.5031 21.4688 18.8792C25.9022 18.0019 28.4537 18.0003 32.4451 18.0003C35.9376 18.0003 38.9956 17.9595 43.4214 18.8792Z" fill="#D9D9D9"/>
<path d="M43.4214 18.8792C51.2353 20.503 55.9329 24.6744 57.8902 31.6241C57.8902 34.7462 57.6966 37.6055 55.9466 39.8213C55.2493 40.7041 54.7339 41.7666 54.8361 42.887L56.4748 60.8513C56.7869 64.2718 54.0939 67.2217 50.6591 67.2217H14.2311C10.7963 67.2217 8.10335 64.2719 8.41537 60.8513L10.0541 42.8869C10.1563 41.7666 9.64096 40.7041 8.94377 39.8213C7.19387 37.6054 7 34.746 7 31.6241C8.17439 24.6744 13.2634 20.5031 21.4688 18.8792C25.9022 18.0019 28.4537 18.0003 32.4451 18.0003C35.9376 18.0003 38.9956 17.9595 43.4214 18.8792Z" fill="url(#paint0_radial_4710_8136)"/>
</g>
<g filter="url(#filter1_g_4710_8136)">
<circle cx="23.685" cy="43.8631" r="2.50277" fill="#835520"/>
</g>
<g filter="url(#filter2_g_4710_8136)">
<circle cx="41.2055" cy="43.8631" r="2.50277" fill="#835520"/>
</g>
<path d="M30.3615 48.8682L30.898 49.0827C31.8924 49.4805 33.0019 49.4805 33.9963 49.0827L34.5328 48.8682" stroke="#7D451A" stroke-width="1.66853" stroke-linecap="round"/>
</g>
<path d="M32 0.5C49.397 0.5 63.5 14.603 63.5 32C63.5 49.397 49.397 63.5 32 63.5C14.603 63.5 0.5 49.397 0.5 32C0.5 14.603 14.603 0.5 32 0.5Z" stroke="#F3F3F5"/>
<defs>
<filter id="filter0_g_4710_8136" x="6.24916" y="17.2492" width="52.3919" height="50.7234" filterUnits="userSpaceOnUse" color-interpolation-filters="sRGB">
<feFlood flood-opacity="0" result="BackgroundImageFix"/>
<feBlend mode="normal" in="SourceGraphic" in2="BackgroundImageFix" result="shape"/>
<feTurbulence type="fractalNoise" baseFrequency="0.41333058476448059 0.41333058476448059" numOctaves="3" seed="7701" />
<feDisplacementMap in="shape" scale="1.5016781091690063" xChannelSelector="R" yChannelSelector="G" result="displacedImage" width="100%" height="100%" />
<feMerge result="effect1_texture_4710_8136">
<feMergeNode in="displacedImage"/>
</feMerge>
</filter>
<filter id="filter1_g_4710_8136" x="20.7651" y="40.9432" width="5.83982" height="5.84013" filterUnits="userSpaceOnUse" color-interpolation-filters="sRGB">
<feFlood flood-opacity="0" result="BackgroundImageFix"/>
<feBlend mode="normal" in="SourceGraphic" in2="BackgroundImageFix" result="shape"/>
<feTurbulence type="fractalNoise" baseFrequency="0.18729041516780853 0.18729041516780853" numOctaves="3" seed="7701" />
<feDisplacementMap in="shape" scale="0.83426564931869507" xChannelSelector="R" yChannelSelector="G" result="displacedImage" width="100%" height="100%" />
<feMerge result="effect1_texture_4710_8136">
<feMergeNode in="displacedImage"/>
</feMerge>
</filter>
<filter id="filter2_g_4710_8136" x="38.2856" y="40.9432" width="5.83982" height="5.84013" filterUnits="userSpaceOnUse" color-interpolation-filters="sRGB">
<feFlood flood-opacity="0" result="BackgroundImageFix"/>
<feBlend mode="normal" in="SourceGraphic" in2="BackgroundImageFix" result="shape"/>
<feTurbulence type="fractalNoise" baseFrequency="0.18729041516780853 0.18729041516780853" numOctaves="3" seed="7701" />
<feDisplacementMap in="shape" scale="0.83426564931869507" xChannelSelector="R" yChannelSelector="G" result="displacedImage" width="100%" height="100%" />
<feMerge result="effect1_texture_4710_8136">
<feMergeNode in="displacedImage"/>
</feMerge>
</filter>
<radialGradient id="paint0_radial_4710_8136" cx="0" cy="0" r="1" gradientUnits="userSpaceOnUse" gradientTransform="translate(32.4451 47.9153) rotate(90) scale(36.8259 36.6007)">
<stop offset="0.163462" stop-color="#FFBF21"/>
<stop offset="1" stop-color="#FFF9E5"/>
</radialGradient>
<clipPath id="clip0_4710_8136">
<path d="M0 32C0 14.3269 14.3269 0 32 0C49.6731 0 64 14.3269 64 32C64 49.6731 49.6731 64 32 64C14.3269 64 0 49.6731 0 32Z" fill="white"/>
</clipPath>
</defs>
</svg>
